<?xml version="1.0" encoding="UTF-8"?>
<svg version="1.1" xmlns="http://www.w3.org/2000/svg" width="256" height="256">
<path d="M0 0 C1.21610962 0.01957764 1.21610962 0.01957764 2.45678711 0.03955078 C9.51281516 0.2426326 15.13529476 0.4499539 20.52734375 5.4140625 C22.91306706 7.98330299 25.12058542 10.63891218 27.3125 13.375 C28.055 14.27089844 28.7975 15.16679688 29.5625 16.08984375 C31.83207228 18.83618382 34.07452538 21.60287464 36.3125 24.375 C42.17309092 31.59056292 42.17309092 31.59056292 48.1484375 38.7109375 C48.86954712 39.55773071 48.86954712 39.55773071 49.60522461 40.42163086 C50.56981519 41.54911428 51.53932651 42.67240806 52.51391602 43.79125977 C54.96279733 46.63285776 56.91175495 49.36178903 58.625 52.6875 C61.01517373 55.64079117 61.01517373 55.64079117 64.11889648 55.67260742 C65.25399658 55.65045166 66.38909668 55.6282959 67.55859375 55.60546875 C68.81502686 55.58121826 70.07145996 55.55696777 71.3659668 55.53198242 C77.61022766 55.28360261 83.83273644 54.86180307 90.0625 54.375 C113.58545422 52.55988153 113.58545422 52.55988153 122.375 55.5 C123.06110352 55.72300781 123.74720703 55.94601563 124.45410156 56.17578125 C131.65351674 58.64026191 139.65253552 62.37332882 143.3125 69.375 C144.07657264 74.16050761 143.80353262 78.09831519 142.0625 82.625 C128.93289601 95.75460399 107.12504604 94.90264276 89.86621094 95.45581055 C86.6366912 95.56010408 83.40838867 95.68364497 80.1796875 95.81054688 C48.15931506 96.99768852 16.22598447 96.32531556 -15.77807617 95.04260254 C-19.38638146 94.89999945 -22.99496504 94.76528124 -26.60357285 94.63058567 C-30.12106205 94.49868374 -33.63840417 94.36316407 -37.15570831 94.22642326 C-38.81255141 94.16221035 -40.46942665 94.09882059 -42.12633514 94.03631783 C-44.41998947 93.94901582 -46.71341463 93.85711598 -49.00683594 93.76391602 C-50.30167908 93.71284195 -51.59652222 93.66176788 -52.93060303 93.60914612 C-64.09495284 92.9133354 -64.09495284 92.9133354 -66.5234375 90.70703125 C-67.94156361 87.86602022 -69.16494143 85.0253486 -70.3125 82.0625 C-70.82799757 80.73562757 -71.34363226 79.40880841 -71.859375 78.08203125 C-72.28573242 76.97722412 -72.28573242 76.97722412 -72.72070312 75.85009766 C-73.8180555 73.04076474 -74.94706729 70.24514695 -76.078125 67.44921875 C-76.90647301 65.38290188 -77.73459842 63.31649577 -78.5625 61.25 C-79.17085693 59.75666138 -79.17085693 59.75666138 -79.79150391 58.2331543 C-80.35490479 56.81450073 -80.35490479 56.81450073 -80.9296875 55.3671875 C-81.43798096 54.10430908 -81.43798096 54.10430908 -81.95654297 52.81591797 C-82.74656246 50.17777005 -82.92889833 48.11356228 -82.6875 45.375 C-80.30348561 42.52673018 -78.55506548 42.35635106 -74.859375 41.8359375 C-61.73255288 41.3318011 -61.73255288 41.3318011 -57.375 45.125 C-56.09778318 46.49850367 -54.87466266 47.92295318 -53.6875 49.375 C-47.21960094 57.60840376 -47.21960094 57.60840376 -38.2265625 62.1796875 C-34.63026528 62.18762635 -31.24561885 61.88622397 -27.6875 61.375 C-25.89692629 61.19697466 -24.10520608 61.03008748 -22.3125 60.875 C-21.37148437 60.78347656 -20.43046875 60.69195312 -19.4609375 60.59765625 C-10.2242856 60.05263642 -0.93682339 60.30207351 8.3125 60.375 C7.79985596 59.19949585 7.79985596 59.19949585 7.27685547 58.00024414 C3.17357864 48.516435 -0.73455655 38.96167969 -4.54882812 29.3581543 C-5.2316193 27.64344727 -5.91822177 25.93025355 -6.60839844 24.21850586 C-7.61964199 21.71009962 -8.61964189 19.19747363 -9.6171875 16.68359375 C-10.08111404 15.54137611 -10.08111404 15.54137611 -10.55441284 14.37608337 C-12.02822188 10.62409639 -13.24239094 7.47851188 -12.6875 3.375 C-9.40181637 -0.65943192 -4.78606593 -0.08693946 0 0 Z " fill="#000000" transform="translate(97.6875,79.625)"/>
</svg>
