<?xml version="1.0" encoding="UTF-8"?>
<svg version="1.1" xmlns="http://www.w3.org/2000/svg" width="256" height="256">
<path d="M0 0 C2.86104081 -0.00983091 5.72139835 -0.04101255 8.58227539 -0.07226562 C10.41755765 -0.07878645 12.25284496 -0.08404052 14.08813477 -0.08789062 C14.93508408 -0.10023743 15.78203339 -0.11258423 16.65464783 -0.12530518 C21.64705851 -0.10654062 25.09012922 0.44721387 29.40454102 3.24023438 C32.53884669 7.48671304 32.66593924 10.94165992 32.31469727 15.99414062 C30.90640641 19.46953651 28.63284038 21.48661391 25.40454102 23.24023438 C21.73933104 23.95571402 18.14138928 23.91450099 14.41625977 23.87695312 C12.82960258 23.89252007 12.82960258 23.89252007 11.21089172 23.90840149 C7.8376099 23.93803653 4.46542914 23.93471961 1.09204102 23.92773438 C-2.27032572 23.93665952 -5.63239961 23.95275496 -8.99467468 23.97920227 C-11.08268871 23.99398234 -13.17081663 23.99800169 -15.25886536 23.98942566 C-26.62989664 23.95025891 -26.62989664 23.95025891 -36.47045898 28.92773438 C-37.00413086 29.38535156 -37.53780273 29.84296875 -38.08764648 30.31445312 C-43.49557401 37.22146937 -43.02358199 44.42817567 -42.98364258 52.85131836 C-42.98771253 54.22851985 -42.99305678 55.60571807 -42.99957275 56.98291016 C-43.01320323 60.70820265 -43.00796517 64.43324479 -42.9984355 68.15854144 C-42.99081514 72.06656212 -42.99789123 75.97456205 -43.00259399 79.88258362 C-43.0080453 86.44528024 -43.00087708 93.00787544 -42.98657227 99.57055664 C-42.97025372 107.1442667 -42.97553092 114.71773435 -42.99205148 122.29143852 C-43.00569236 128.80717072 -43.00757312 135.32283021 -42.99973547 141.83857208 C-42.99507235 145.72433031 -42.99439633 149.60997483 -43.00434494 153.49572563 C-43.01305009 157.15087273 -43.00692854 160.80570929 -42.98966217 164.46082306 C-42.9838424 166.43207377 -42.99268301 168.40335094 -43.00204468 170.37458801 C-43.00512839 180.75382351 -43.00512839 180.75382351 -38.28520775 189.7524786 C-33.36265319 194.21794385 -28.1001203 195.48782921 -21.61282349 195.50093079 C-20.43815521 195.50801559 -19.26348694 195.5151004 -18.05322266 195.5223999 C-16.77825928 195.51992249 -15.5032959 195.51744507 -14.18969727 195.51489258 C-12.82249677 195.51924365 -11.45529871 195.52442812 -10.08810425 195.53038025 C-6.38553352 195.54373986 -2.68306507 195.54435226 1.01952505 195.54181695 C4.11579935 195.54074505 7.21205314 195.54563625 10.30832303 195.55042237 C17.61629028 195.56150731 24.92420614 195.56196084 32.23217773 195.5559082 C39.75871005 195.54987015 47.28505534 195.56217739 54.81155574 195.58347827 C61.28479636 195.6011213 67.75797759 195.60709133 74.23124135 195.60384053 C78.09243363 195.60203164 81.95349253 195.60462418 85.81466293 195.61855507 C89.44761944 195.63117271 93.08028548 195.62915245 96.71323776 195.61614418 C98.67258213 195.61266841 100.63193554 195.62392767 102.59124756 195.63571167 C110.59545031 195.58814444 116.99561959 195.27038675 123.21704102 189.74023438 C128.59734328 182.40574452 128.83778572 172.57557258 128.81079102 163.84179688 C128.8216272 162.80380951 128.83246338 161.76582214 128.84362793 160.69638062 C128.88911218 156.30462772 128.90102265 151.91294246 128.91577148 147.52099609 C128.9314508 144.29438271 128.96442067 141.06826223 128.99829102 137.84179688 C128.99526978 136.85216949 128.99224854 135.86254211 128.98913574 134.84292603 C129.08344555 126.21404818 129.08344555 126.21404818 132.40454102 122.24023438 C136.21472256 119.77482279 139.90011167 120.02211427 144.24829102 120.63085938 C147.67292469 121.59869063 149.32050146 123.43980622 151.40454102 126.24023438 C152.74024222 130.40878693 152.56662482 134.63191188 152.57250977 138.96679688 C152.57583817 139.8284848 152.57916656 140.69017273 152.58259583 141.57797241 C152.5876588 143.40874703 152.59000434 145.23953088 152.58984375 147.0703125 C152.59199508 149.80680746 152.61005792 152.54287514 152.62915039 155.27929688 C152.65805504 163.95083851 152.46410631 172.53695441 151.55688477 181.16601562 C151.48439011 181.88701447 151.41189545 182.60801331 151.33720398 183.3508606 C150.08885236 193.84235443 144.53117625 203.50673661 136.40454102 210.24023438 C124.08144104 217.91643747 112.87974705 219.54502797 98.48461914 219.49902344 C97.11022253 219.50173935 95.73582738 219.50530363 94.36143494 219.50964355 C90.6568915 219.51869854 86.95246047 219.515252 83.24791527 219.50888538 C79.35419812 219.50378945 75.46049002 219.50852676 71.56677246 219.51165771 C65.03041879 219.51528695 58.49411045 219.51052572 51.95776367 219.50097656 C44.42213511 219.49009402 36.88661481 219.49362034 29.35098886 219.50462937 C22.85810631 219.51373205 16.36525617 219.51497299 9.87236929 219.50975204 C6.00449953 219.50664868 2.1366805 219.50617771 -1.73118591 219.51282501 C-5.36907914 219.5186414 -9.00683402 219.51452385 -12.64471245 219.5030365 C-14.60123891 219.49917026 -16.5577772 219.50503878 -18.51429749 219.5112915 C-32.90193086 219.44285781 -44.74478017 216.7788389 -55.48608398 206.66601562 C-65.86446824 194.73087373 -66.90284035 181.36550501 -66.85424805 166.22265625 C-66.85696484 164.84973466 -66.86052961 163.47681452 -66.86486816 162.10389709 C-66.87391263 158.40760978 -66.87048105 154.7114353 -66.86410999 151.01514626 C-66.85900852 147.12724146 -66.86375288 143.23934564 -66.86688232 139.35144043 C-66.87050997 132.82525925 -66.86575454 126.29912349 -66.85620117 119.77294922 C-66.84531894 112.25265661 -66.84884537 104.7324725 -66.85985398 97.21218252 C-66.86896124 90.72860591 -66.87019539 84.24506176 -66.86497664 77.76148081 C-66.86187578 73.90085989 -66.86139532 70.04028979 -66.86804962 66.17967224 C-66.87387274 62.54832883 -66.86973646 58.91712384 -66.85826111 55.28579521 C-66.85440165 53.33543457 -66.86025757 51.38506206 -66.86651611 49.43470764 C-66.82203706 40.08389941 -66.56209947 30.61860079 -61.72045898 22.36523438 C-61.22803711 21.5015625 -60.73561523 20.63789062 -60.22827148 19.74804688 C-53.46211082 9.35600107 -43.48017292 4.1221133 -31.59545898 1.24023438 C-21.16992742 -0.18947706 -10.50124207 0.02184914 0 0 Z " fill="#000000" transform="translate(84.595458984375,17.759765625)"/>
<path d="M0 0 C1.02561287 -0.01029488 1.02561287 -0.01029488 2.07194519 -0.02079773 C4.31575715 -0.03899084 6.55886501 -0.0352398 8.80273438 -0.02954102 C10.37162501 -0.03410598 11.94051366 -0.03941249 13.50939941 -0.04542542 C16.7910171 -0.05434142 20.07239122 -0.05195022 23.35400391 -0.04199219 C27.55059217 -0.0304958 31.74633981 -0.05073115 35.94281769 -0.07990932 C39.18057556 -0.09829023 42.41813259 -0.0979753 45.65592957 -0.0922718 C47.20282675 -0.09211887 48.74973778 -0.09814057 50.29658508 -0.11056328 C52.46257714 -0.1255109 54.62702371 -0.11477173 56.79296875 -0.09765625 C58.63779846 -0.097407 58.63779846 -0.097407 60.51989746 -0.09715271 C64.65826659 0.51712828 66.72318617 1.69328304 69.89648438 4.40405273 C72.76110236 8.76118496 73.27151076 12.18085373 73.26879883 17.33984375 C73.27244949 18.00568481 73.27610016 18.67152588 73.27986145 19.35754395 C73.28791575 21.54128146 73.27440198 23.72426494 73.25976562 25.90795898 C73.25924646 27.43440246 73.25976634 28.96084661 73.26127625 30.48728943 C73.26118676 33.67896569 73.250804 36.87038814 73.23266602 40.06201172 C73.20996032 44.14638926 73.20944072 48.23039697 73.21618366 52.31482029 C73.2195298 55.46415984 73.21288175 58.61341555 73.20305443 61.76273918 C73.1992147 63.2685801 73.19804911 64.77443037 73.19964027 66.28027534 C73.20001243 68.38624884 73.18734994 70.49175343 73.17114258 72.59765625 C73.16423149 74.3925222 73.16423149 74.3925222 73.15718079 76.22364807 C72.81336359 80.41809715 71.72222732 83.26071635 69.27148438 86.65405273 C65.94639411 89.10411924 62.97743614 89.46921763 58.89648438 89.40405273 C54.35347073 88.37154963 52.3580193 86.30253876 49.89648438 82.40405273 C49.29597483 79.25393096 49.29162352 76.14723409 49.28710938 72.94702148 C49.27057312 72.04405838 49.25403687 71.14109528 49.23699951 70.21076965 C49.18856381 67.33762785 49.1671585 64.46501517 49.14648438 61.59155273 C49.11832098 59.63905222 49.08839303 57.68657631 49.05664062 55.73413086 C48.98280601 50.95748172 48.9332043 46.18112554 48.89648438 41.40405273 C41.54013669 47.21743604 35.38816698 54.11653148 29.04296875 60.98999023 C25.10811647 65.20724818 21.05028412 69.09044884 16.66625977 72.83666992 C14.40548784 74.83889861 12.45893976 77.02846825 10.52148438 79.34155273 C9.35573964 80.73255094 8.15741604 82.09872207 6.89648438 83.40405273 C6.23648438 83.40405273 5.57648438 83.40405273 4.89648438 83.40405273 C4.64898437 83.98155273 4.40148437 84.55905273 4.14648438 85.15405273 C2.71348449 87.73345253 1.11223761 89.46526865 -1.10351562 91.40405273 C-1.76351562 91.40405273 -2.42351562 91.40405273 -3.10351562 91.40405273 C-3.48443359 92.29350586 -3.48443359 92.29350586 -3.87304688 93.20092773 C-5.23977937 95.64802972 -6.62094544 96.89753227 -8.79101562 98.65405273 C-12.33097354 101.64547663 -15.31374651 104.82798806 -18.31445312 108.34936523 C-29.25605685 120.91548654 -29.25605685 120.91548654 -37.04101562 121.90405273 C-41.76799426 121.74290574 -43.86961668 119.71682726 -47.10351562 116.40405273 C-48.67563713 113.25980971 -48.62145313 109.82613981 -48.10351562 106.40405273 C-45.61130145 101.31745587 -41.66898698 97.70217814 -37.69458008 93.76806641 C-36.94311707 93.01631134 -36.19165405 92.26455627 -35.41741943 91.49002075 C-32.93859091 89.01258278 -30.45275897 86.54229955 -27.96679688 84.07202148 C-26.24428966 82.35324536 -24.52222419 80.63402641 -22.80058289 78.91438293 C-18.2725429 74.39397176 -13.73852842 69.87959948 -9.20324707 65.36645508 C-4.57458569 60.75826822 0.04840498 56.14440023 4.671875 51.53100586 C13.7412008 42.48311671 22.81665671 33.44140227 31.89648438 24.40405273 C30.68589355 24.39994385 29.47530273 24.39583496 28.22802734 24.39160156 C23.72125112 24.36977129 19.21534313 24.31544121 14.70898438 24.25146484 C12.7614781 24.22831878 10.81384726 24.2138971 8.86621094 24.20849609 C6.06041135 24.19918164 3.25656184 24.15813767 0.45117188 24.11108398 C-0.41468536 24.11501663 -1.2805426 24.11894928 -2.17263794 24.1230011 C-8.1896896 23.97893251 -10.92743809 22.78489278 -15.10351562 18.40405273 C-16.94005712 14.38415504 -16.19825644 10.74400507 -15.04101562 6.59155273 C-11.46094827 0.7017645 -6.55057972 0.02877719 0 0 Z " fill="#000000" transform="translate(164.103515625,17.595947265625)"/>
</svg>
