<?xml version="1.0" encoding="UTF-8"?>
<svg version="1.1" xmlns="http://www.w3.org/2000/svg" width="256" height="256">
<path d="M0 0 C-1.83469039 9.01365498 -4.66434621 17.58201007 -7.63793945 26.27441406 C-8.2530317 28.08769365 -8.85694273 29.90480556 -9.44946289 31.72558594 C-12.93088774 42.41598283 -15.82287823 50.89803638 -25 58 C-26.34244735 59.17375782 -27.67985226 60.35331212 -29.01171875 61.5390625 C-29.66188965 62.09754883 -30.31206055 62.65603516 -30.98193359 63.23144531 C-35.49238719 67.18423093 -39.76853612 71.40309332 -44.08398438 75.56640625 C-44.80521484 76.25347656 -45.52644531 76.94054687 -46.26953125 77.6484375 C-46.91510986 78.26895996 -47.56068848 78.88948242 -48.22583008 79.52880859 C-50 81 -50 81 -53 82 C-53 82.66 -53 83.32 -53 84 C-54.48413086 85.47827148 -54.48413086 85.47827148 -56.52734375 87.18359375 C-60.6562678 90.69558343 -64.6223512 94.341276 -68.5625 98.0625 C-69.96860382 99.38557203 -71.37485732 100.70848502 -72.78125 102.03125 C-73.48507813 102.69382812 -74.18890625 103.35640625 -74.9140625 104.0390625 C-78.12245543 107.05519219 -81.34191709 110.05939777 -84.5625 113.0625 C-85.79949011 114.2161341 -87.03646927 115.36977994 -88.2734375 116.5234375 C-88.88541992 117.09416992 -89.49740234 117.66490234 -90.12792969 118.25292969 C-92.03700292 120.0345322 -93.94448045 121.81782886 -95.8515625 123.6015625 C-101.52416246 128.90549386 -107.20375825 134.19964943 -112.9375 139.4375 C-117.70501978 143.79325019 -122.42086229 148.20092921 -127.125 152.625 C-133.01452406 158.16315049 -138.95164676 163.63499436 -145 169 C-150.62303757 164.32533663 -155.79741554 159.32234333 -160.9375 154.125 C-161.71673828 153.34125 -162.49597656 152.5575 -163.29882812 151.75 C-165.20154085 149.83561419 -167.10186171 147.91891966 -169 146 C-164.76187561 140.9842381 -160.38655241 136.14512777 -155.875 131.375 C-154.54257557 129.96000555 -153.21054931 128.54463606 -151.87890625 127.12890625 C-151.22293457 126.43168457 -150.56696289 125.73446289 -149.89111328 125.01611328 C-147.18295214 122.1289464 -144.49472053 119.22375604 -141.8125 116.3125 C-141.32813477 115.78688477 -140.84376953 115.26126953 -140.34472656 114.71972656 C-138.89606681 113.14686825 -137.44801064 111.57345589 -136 110 C-126.77450916 99.98171773 -117.4957885 90.01427589 -108.19287109 80.06787109 C-102.28991234 73.756381 -96.3910524 67.44286802 -90.5625 61.0625 C-86.26552539 56.36110425 -81.92333916 51.70468362 -77.5625 47.0625 C-72.88018484 42.07687698 -68.20541882 37.08486282 -63.5625 32.0625 C-62.20757696 30.59713199 -60.85247664 29.13189874 -59.48918152 27.67431641 C-58.40080993 26.45063858 -57.36515334 25.17950375 -56.36299133 23.88427734 C-51.24407353 17.50887516 -46.47984802 14.89901135 -38.7890625 12.40234375 C-37.73971527 12.03774551 -36.69036804 11.67314728 -35.60922241 11.29750061 C-32.28944504 10.15131229 -28.95804982 9.04441602 -25.625 7.9375 C-23.36503356 7.1619832 -21.10590824 6.38401068 -18.84765625 5.60351562 C-14.73870862 4.19362245 -10.62803322 2.78998465 -6.50634766 1.41772461 C-5.68220367 1.14286728 -4.85805969 0.86800995 -4.00894165 0.58482361 C-2 0 -2 0 0 0 Z " fill="#000000" transform="translate(237,19)"/>
<path d="M0 0 C7.98944714 1.27970833 15.68445848 4.48186535 23.30932617 7.09960938 C25.30336288 7.7804446 27.30011803 8.4533719 29.29956055 9.11816406 C32.2024184 10.08378562 35.09572999 11.07430053 37.98828125 12.0703125 C38.8718782 12.35915314 39.75547516 12.64799377 40.66584778 12.94558716 C48.8762155 15.82993901 54.42661824 20.91615062 60.0625 27.4375 C64.06356455 31.97663875 68.16472921 36.40702593 72.3125 40.8125 C77.41970396 46.24370869 82.50457147 51.69364855 87.55493164 57.17773438 C93.3502089 63.47014345 99.17584167 69.73433289 105 76 C103.57588968 80.72114149 100.80708774 83.51039719 97.3125 86.8125 C96.22066641 87.87034592 95.13081538 88.93024198 94.04296875 89.9921875 C93.2547876 90.76127441 93.2547876 90.76127441 92.45068359 91.54589844 C90.57379488 93.4272093 88.84092449 95.40923869 87.125 97.4375 C84.3425232 100.71220857 81.38590789 103.35734019 78 106 C67.06168184 96.22218061 56.31837421 86.23878402 45.59814453 76.22314453 C41.47028563 72.36813145 37.3352152 68.52114542 33.1875 64.6875 C31.70485081 63.31689987 30.22326689 61.94481522 28.76660156 60.54663086 C26.98436027 58.9137888 26.98436027 58.9137888 24.70996094 57.50219727 C14.24574062 49.92099706 11.74635146 37.31054956 7.875 25.5625 C7.10431552 23.30700015 6.33090127 21.05243109 5.5546875 18.79882812 C4.1540841 14.70137279 2.76117615 10.60183371 1.40185547 6.49047852 C1.13001434 5.66935074 0.85817322 4.84822296 0.57809448 4.00221252 C0 2 0 2 0 0 Z " fill="#000000" transform="translate(18,19)"/>
<path d="M0 0 C4.60542852 3.80043181 8.81728418 7.75297339 12.8125 12.1875 C13.3187793 12.74268311 13.82505859 13.29786621 14.34667969 13.86987305 C15.9015735 15.57651711 17.45086234 17.2881316 19 19 C19.9982513 20.09676083 20.99693628 21.19312713 21.99609375 22.2890625 C24.33488714 24.8556157 26.66887391 27.42647806 29 30 C27.25565075 33.11789371 25.73260764 35.52634447 22.875 37.6875 C19.98461218 39.68356337 19.98461218 39.68356337 19 42 C18.34 42 17.68 42 17 42 C17 42.66 17 43.32 17 44 C16.34 44 15.68 44 15 44 C14.34 45.32 13.68 46.64 13 48 C12.34 48 11.68 48 11 48 C11 48.66 11 49.32 11 50 C9.03852126 51.38938077 7.03833424 52.7260411 5 54 C4.05640625 53.03900391 4.05640625 53.03900391 3.09375 52.05859375 C-1.37911345 47.53857661 -5.87574599 43.1378926 -10.70703125 39.00390625 C-15.91114958 34.45584372 -20.93517273 29.70195093 -26 25 C-23.71475421 22.04614518 -21.49505612 19.38954898 -18.625 17 C-14.48003806 13.46181006 -10.48641064 9.77685895 -6.5 6.0625 C-5.86400879 5.47017578 -5.22801758 4.87785156 -4.57275391 4.26757812 C-3.04764473 2.84597186 -1.52369893 1.42311768 0 0 Z " fill="#000000" transform="translate(158,134)"/>
<path d="M0 0 C3.7658106 3.18031122 7.48438989 6.35141825 10.9375 9.875 C11.81728516 10.76832031 11.81728516 10.76832031 12.71484375 11.6796875 C13.35099609 12.33324219 13.35099609 12.33324219 14 13 C12.48827944 16.64203615 10.36386164 18.74159932 7.46484375 21.37890625 C6.57345703 22.21873047 5.68207031 23.05855469 4.76367188 23.92382812 C2.89103682 25.67222478 1.00305422 27.40433725 -0.90039062 29.11914062 C-5.47378566 33.48058977 -8.50386974 36.42157384 -8.99609375 42.90234375 C-8.9660022 44.22286743 -8.9660022 44.22286743 -8.93530273 45.57006836 C-9.00745405 48.27996272 -9.53947838 49.73550989 -11 52 C-14.87062122 53.93531061 -19.61722942 53.27192404 -23.875 53.3125 C-24.88175781 53.34150391 -25.88851563 53.37050781 -26.92578125 53.40039062 C-34.09531074 53.46227899 -34.09531074 53.46227899 -37.66796875 51.63671875 C-39.82128243 47.37429431 -39.53638181 43.20167057 -39.4375 38.5 C-39.44458984 37.54996094 -39.45167969 36.59992188 -39.45898438 35.62109375 C-39.38554679 27.58815193 -39.38554679 27.58815193 -36 24 C-33 23 -33 23 -30.71166992 23.07250977 C-25.18622625 23.18927653 -21.74154697 22.30731126 -17.57376099 18.52792358 C-15.07464317 16.06713563 -12.68463446 13.52012019 -10.3125 10.9375 C-9.30512571 9.87987856 -8.29537477 8.82451553 -7.28320312 7.77148438 C-4.82750463 5.20646538 -2.4054283 2.61232632 0 0 Z " fill="#000000" transform="translate(57,185)"/>
<path d="M0 0 C3.64203615 1.51172056 5.74159932 3.63613836 8.37890625 6.53515625 C9.21873047 7.42654297 10.05855469 8.31792969 10.92382812 9.23632812 C12.67222478 11.10896318 14.40433725 12.99694578 16.11914062 14.90039062 C20.48058977 19.47378566 23.42157384 22.50386974 29.90234375 22.99609375 C30.78269287 22.97603271 31.66304199 22.95597168 32.57006836 22.93530273 C35.27996272 23.00745405 36.73550989 23.53947838 39 25 C40.99778712 28.99557425 40.22876505 34.04451995 40.25 38.4375 C40.270625 39.50033203 40.29125 40.56316406 40.3125 41.65820312 C40.32023437 43.18670898 40.32023437 43.18670898 40.328125 44.74609375 C40.34214355 46.14879517 40.34214355 46.14879517 40.35644531 47.57983398 C40 50 40 50 38.80566406 51.8034668 C36.37107602 53.41675993 34.69100882 53.38783637 31.78125 53.3984375 C30.76675781 53.40230469 29.75226563 53.40617187 28.70703125 53.41015625 C27.64871094 53.39855469 26.59039062 53.38695312 25.5 53.375 C24.44167969 53.38660156 23.38335937 53.39820313 22.29296875 53.41015625 C21.27847656 53.40628906 20.26398438 53.40242188 19.21875 53.3984375 C17.8255957 53.39336182 17.8255957 53.39336182 16.40429688 53.38818359 C14 53 14 53 12.17163086 51.8449707 C10.49368985 49.20271185 10.89968355 47.18376705 11.03515625 44.08203125 C10.52892865 34.94329089 4.79135043 30.44716591 -1.5625 24.6875 C-2.668754 23.64156059 -3.77229841 22.59274753 -4.87304688 21.54101562 C-7.55161079 18.99346298 -10.26471164 16.4867127 -13 14 C-9.81968878 10.2341894 -6.64858175 6.51561011 -3.125 3.0625 C-2.23167969 2.18271484 -2.23167969 2.18271484 -1.3203125 1.28515625 C-0.66675781 0.64900391 -0.66675781 0.64900391 0 0 Z " fill="#000000" transform="translate(197,185)"/>
<path d="M0 0 C3.21107147 1.60553573 3.45574161 4.45419565 4.625 7.75 C5.07101563 8.98234375 5.51703125 10.2146875 5.9765625 11.484375 C6.88350566 14.5998286 7.41983759 16.80233287 7 20 C4.8125 22 4.8125 22 2 24 C-0.77289709 26.63425224 -3.29794373 29.33431403 -5.6875 32.3125 C-6.8321875 33.6428125 -6.8321875 33.6428125 -8 35 C-8.66 35 -9.32 35 -10 35 C-10 35.66 -10 36.32 -10 37 C-13.38831296 40.68728175 -17.15965365 43.79971138 -21 47 C-24.41904512 50.24809287 -27.47596752 53.70172003 -30.51953125 57.29296875 C-33.42761472 60.64608875 -36.30576472 63.53717648 -40 66 C-44.61465426 65.64050144 -48.59715721 64.13990682 -52.875 62.4375 C-54.02742187 61.98246094 -55.17984375 61.52742188 -56.3671875 61.05859375 C-57.67042969 60.53458984 -57.67042969 60.53458984 -59 60 C-53.38062338 53.14092885 -47.09685489 46.96990509 -40.8203125 40.72265625 C-39.64039553 39.54460742 -38.46070142 38.36633534 -37.28121948 37.18785095 C-34.19610309 34.10652858 -31.10799411 31.02822284 -28.01922607 27.95056152 C-24.85994267 24.80155966 -21.70353484 21.64967829 -18.546875 18.49804688 C-12.36737473 12.3292289 -6.1847061 6.16359871 0 0 Z " fill="#000000" transform="translate(206,148)"/>
<path d="M0 0 C6.85907115 5.61937662 13.03009491 11.90314511 19.27734375 18.1796875 C20.45539258 19.35960447 21.63366466 20.53929858 22.81214905 21.71878052 C25.89347142 24.80389691 28.97177716 27.89200589 32.04943848 30.98077393 C35.19844034 34.14005733 38.35032171 37.29646516 41.50195312 40.453125 C47.6707711 46.63262527 53.83640129 52.8152939 60 59 C58.43540681 62.12918639 55.38073691 62.57526452 52.25 63.6875 C51.01765625 64.14511719 49.7853125 64.60273438 48.515625 65.07421875 C44.86307585 66.03605669 43.51879945 66.11759022 40 65 C37.63893127 63.19396973 37.63893127 63.19396973 35.17797852 60.80664062 C34.2509462 59.91481079 33.32391388 59.02298096 32.36878967 58.10412598 C31.37113555 57.12254268 30.3745323 56.13989033 29.37890625 55.15625 C28.35000517 54.14783163 27.32102758 53.13949132 26.29197693 52.13122559 C24.14023379 50.01692937 21.99765213 47.89377852 19.85961914 45.765625 C17.12147529 43.04385408 14.35034343 40.35851672 11.56964207 37.680336 C9.43292993 35.61069341 7.32137971 33.51671846 5.21592522 31.41532898 C4.20463026 30.41427619 3.18423468 29.42232932 2.15472603 28.4400177 C-5.8734572 20.75294646 -5.8734572 20.75294646 -6.18560791 16.42884827 C-5.68995639 14.09181155 -5.01082898 12.15827914 -4 10 C-3.64679687 8.98808594 -3.29359375 7.97617188 -2.9296875 6.93359375 C-2.40761719 5.69802734 -2.40761719 5.69802734 -1.875 4.4375 C-1.34519531 3.16712891 -1.34519531 3.16712891 -0.8046875 1.87109375 C-0.53914063 1.25363281 -0.27359375 0.63617188 0 0 Z " fill="#000000" transform="translate(48,148)"/>
</svg>
