<?xml version="1.0" encoding="UTF-8"?>
<svg version="1.1" xmlns="http://www.w3.org/2000/svg" width="256" height="256">
<path d="M0 0 C1.44632813 -0.01836914 1.44632813 -0.01836914 2.921875 -0.03710938 C8.72401767 -0.04893439 13.68837295 0.52032981 19.25 2.1875 C19.23839844 3.14011719 19.22679687 4.09273437 19.21484375 5.07421875 C19.20582031 6.32847656 19.19679688 7.58273438 19.1875 8.875 C19.17589844 10.11636719 19.16429687 11.35773437 19.15234375 12.63671875 C19.23521327 15.64985454 19.54160551 18.27025339 20.25 21.1875 C17.64446762 23.76617122 16.3725269 24.18113497 12.640625 24.375 C11.25998342 24.32294111 9.87971922 24.25999939 8.5 24.1875 C2.34923142 24.01077369 -2.19534836 24.46463155 -7.75 27.1875 C-9.235 27.6825 -9.235 27.6825 -10.75 28.1875 C-11.93391223 30.56375345 -11.93391223 30.56375345 -12.75 33.1875 C-13.08 34.1775 -13.41 35.1675 -13.75 36.1875 C-15.02743404 44.70911694 -12.36894587 51.09549353 -7.75 58.1875 C5.53154663 75.2598214 31.331904 87.16368885 51.58203125 93.60546875 C69.15049365 99.19436216 81.64109363 109.64796474 90.25 126.1875 C94.8307797 135.17684963 94.57038673 146.38953515 92.37109375 156.046875 C88.05587369 169.09222672 80.53841733 179.48960439 68.3125 186 C54.77994952 192.27118193 41.06557768 190.99696376 27.25 186.1875 C17.01730509 182.15002934 8.33752497 176.68035402 0.25 169.1875 C-0.47703125 168.52878906 -1.2040625 167.87007812 -1.953125 167.19140625 C-7.76704691 161.67705666 -12.18588068 155.37992867 -16.35546875 148.5625 C-26.59346595 131.83152121 -39.77993075 117.01744027 -59.375 111.8125 C-63.97807633 110.93808048 -68.1768101 111.29062198 -72.75 112.1875 C-73.719375 112.373125 -74.68875 112.55875 -75.6875 112.75 C-78.43964214 114.66815967 -78.87253654 116.71718897 -79.46484375 119.9375 C-79.55894531 120.68 -79.65304688 121.4225 -79.75 122.1875 C-79.83378906 122.8475 -79.91757813 123.5075 -80.00390625 124.1875 C-80.8500366 138.59901047 -73.72126656 153.6597649 -64.625 164.375 C-53.02003817 176.42705416 -37.52805175 186.49705511 -21.75 192.1875 C-22.08 193.5075 -22.41 194.8275 -22.75 196.1875 C-27.59252805 195.64289958 -31.39773396 194.13193487 -35.625 191.8125 C-36.27138428 191.4609082 -36.91776855 191.10931641 -37.58374023 190.74707031 C-60.35374585 178.07058938 -83.21859047 160.78172859 -91.75 135.1875 C-92.460066 123.62855682 -92.56591066 113.53710925 -85.5 103.8125 C-79.27917832 97.87444294 -72.28248803 95.84454596 -63.82421875 95.98828125 C-47.54653227 97.04312497 -32.44261254 106.2800848 -20.75 117.1875 C-20.2348584 117.66171387 -19.7197168 118.13592773 -19.18896484 118.62451172 C-12.94566863 124.41960927 -7.38726847 130.34235158 -2.5625 137.375 C7.50945719 152.02986849 24.09318508 166.15733414 42.0546875 169.90234375 C49.05058943 170.81106411 56.2615621 171.36663499 62.5625 167.73046875 C67.08897677 163.59167633 69.97808639 156.40588727 70.48828125 150.3671875 C70.69221147 141.28692629 69.54731837 134.69645841 63.5625 127.6875 C52.10838895 117.24404581 35.7094733 112.54499643 21.45849609 107.36865234 C-28.08643708 89.12954211 -28.08643708 89.12954211 -37.99609375 70.89453125 C-39.00945827 68.67849235 -39.91955367 66.47811499 -40.75 64.1875 C-41.28560547 62.84171875 -41.28560547 62.84171875 -41.83203125 61.46875 C-45.65026633 47.82059057 -42.7997505 30.70158065 -36.5 18.1875 C-30.75376932 9.0631822 -23.22910371 3.69228275 -12.90039062 0.64111328 C-8.66488429 -0.25234389 -4.31196358 0.00283682 0 0 Z " fill="#000000" transform="translate(111.75,31.8125)"/>
<path d="M0 0 C2.75839257 0.29554206 4.41312378 1.24787427 6.8125 2.6875 C10.92230411 4.37977228 12.93563102 3.54446021 17 2 C17.4125 3.134375 17.825 4.26875 18.25 5.4375 C19.70999027 9.38930059 21.45568978 13.14986782 23.328125 16.921875 C24.11693437 19.36168072 23.83828626 20.61410834 23 23 C24.2684375 23.58007812 24.2684375 23.58007812 25.5625 24.171875 C43.32773109 32.32773109 43.32773109 32.32773109 46 35 C45.625 37.625 45.625 37.625 45 40 C42.03 39.505 42.03 39.505 39 39 C39 41.31 39 43.62 39 46 C33.25 48 33.25 48 31 48 C31.33 45.36 31.66 42.72 32 40 C31.13375 40.2475 30.2675 40.495 29.375 40.75 C24.0620894 41.14354893 21.49857819 38.24146919 17.609375 35.01953125 C16.74828125 34.31183594 15.8871875 33.60414062 15 32.875 C14.195625 32.19179687 13.39125 31.50859375 12.5625 30.8046875 C9.78606815 28.84933458 7.25371559 27.91747213 4 27 C4.721875 27.721875 5.44375 28.44375 6.1875 29.1875 C7.115625 30.115625 8.04375 31.04375 9 32 C9.886875 32.78375 10.77375 33.5675 11.6875 34.375 C14.4192825 37.47594229 15.09637127 40.00897311 16 44 C16.33 44.66 16.66 45.32 17 46 C16.72057545 47.67654729 16.39171753 49.34608154 16 51 C16.99 51.495 16.99 51.495 18 52 C17.625 54.4375 17.625 54.4375 17 57 C14.26094655 58.36952673 12.02912668 58.12621361 9 58 C8.34 57.67 7.68 57.34 7 57 C4 56.66666667 4 56.66666667 1 57 C0.34 57.99 -0.32 58.98 -1 60 C-2.485 59.505 -2.485 59.505 -4 59 C-4 58.34 -4 57.68 -4 57 C-3.2884375 56.319375 -3.2884375 56.319375 -2.5625 55.625 C-0.77906263 53.77022513 -0.4308007 52.49864408 0 50 C1.32 50 2.64 50 4 50 C2.00505119 45.38011855 0.28793008 42.6799563 -4 40 C-6.80269709 38.91919452 -9.61492521 37.94071565 -12.4765625 37.02734375 C-15.06100092 35.97516526 -16.40463399 35.27986426 -18 33 C-18.44191533 27.86993947 -17.17438248 23.06320957 -14 19 C-11.04335481 17.5216774 -8.25770263 17.93967217 -5 18 C-5.33 17.01 -5.66 16.02 -6 15 C-6.54027041 9.27313367 -5.55592955 6.49720502 -2 2 C-1.34 1.34 -0.68 0.68 0 0 Z M9 10 C6.83358335 11.66545339 6.83358335 11.66545339 5 14 C5.14025199 16.70705512 5.14025199 16.70705512 6 19 C10.09542781 20.14203952 10.09542781 20.14203952 13.9375 18.875 C15.21055745 16.98761427 15.21055745 16.98761427 15 14.4375 C14.20869776 11.75624123 14.20869776 11.75624123 11.4375 10.6875 C10.2309375 10.3471875 10.2309375 10.3471875 9 10 Z " fill="#000000" transform="translate(173,55)"/>
<path d="M0 0 C0.99 0.33 1.98 0.66 3 1 C2.360625 1.721875 1.72125 2.44375 1.0625 3.1875 C-1.00837459 6.01141989 -1.81785604 7.53926481 -2 11 C-1.01 12.485 -1.01 12.485 0 14 C0.61875 13.175 1.2375 12.35 1.875 11.5 C2.57625 10.675 3.2775 9.85 4 9 C4.66 9 5.32 9 6 9 C5.95359375 9.83144531 5.9071875 10.66289062 5.859375 11.51953125 C5.82328125 12.60621094 5.7871875 13.69289063 5.75 14.8125 C5.70359375 15.89144531 5.6571875 16.97039063 5.609375 18.08203125 C5.70283547 21.12076818 5.70283547 21.12076818 8.015625 22.88671875 C8.67046875 23.25410156 9.3253125 23.62148438 10 24 C10 23.01 10 22.02 10 21 C10.66 21 11.32 21 12 21 C12.66 21.99 13.32 22.98 14 24 C16.05925139 24.72382467 16.05925139 24.72382467 18 25 C18.061875 24.46375 18.12375 23.9275 18.1875 23.375 C19.52339574 19.47007398 22.26339701 15.8683015 26 14 C28.3329866 13.95977609 30.66706666 13.95679753 33 14 C32.60167969 14.44730469 32.20335937 14.89460938 31.79296875 15.35546875 C27.34572755 20.30556994 27.34572755 20.30556994 24 26 C24.20534522 28.80638467 24.71933469 30.54207238 26.1875 32.9375 C27.40809112 36.03592361 26.21775065 38.0232762 25 41 C20.32201005 39.35638191 20.32201005 39.35638191 18.609375 37.4609375 C15.93378669 35.03212676 13.37734275 35.4076304 9.8984375 35.53515625 C4.28209105 36.43589106 -0.46211283 38.58820595 -5 42 C-7.26533096 45.16949776 -8.61711452 48.38082673 -10 52 C-10.66 52.99 -11.32 53.98 -12 55 C-12.45139459 57.0492094 -12.45139459 57.0492094 -12.625 59.1875 C-12.74875 60.445625 -12.8725 61.70375 -13 63 C-13.66 63 -14.32 63 -15 63 C-15.81567174 61.56429734 -16.62742093 60.12636566 -17.4375 58.6875 C-18.11619141 57.48673828 -18.11619141 57.48673828 -18.80859375 56.26171875 C-20 54 -20 54 -21 51 C-20.34 51 -19.68 51 -19 51 C-20.39655297 47.50126729 -21.71260484 46.29108169 -25.125 44.75 C-25.84945312 44.41484375 -26.57390625 44.0796875 -27.3203125 43.734375 C-27.87460938 43.49203125 -28.42890625 43.2496875 -29 43 C-28.67 42.01 -28.34 41.02 -28 40 C-24.535 39.505 -24.535 39.505 -21 39 C-21.639375 38.175 -22.27875 37.35 -22.9375 36.5 C-25.4696278 32.715325 -25.84922336 29.52329913 -26 25 C-25.34 24.34 -24.68 23.68 -24 23 C-22.35 24.65 -20.7 26.3 -19 28 C-18.90912109 26.75283203 -18.90912109 26.75283203 -18.81640625 25.48046875 C-18.73261719 24.39378906 -18.64882812 23.30710937 -18.5625 22.1875 C-18.48128906 21.10855469 -18.40007812 20.02960937 -18.31640625 18.91796875 C-18 16 -18 16 -17 13 C-16.34 13 -15.68 13 -15 13 C-14.74476563 13.93972656 -14.74476563 13.93972656 -14.484375 14.8984375 C-14.24203125 15.71570312 -13.9996875 16.53296875 -13.75 17.375 C-13.51796875 18.18710937 -13.2859375 18.99921875 -13.046875 19.8359375 C-11.7785108 22.45785454 -10.67576692 22.99382318 -8 24 C-8.05220703 22.83984375 -8.05220703 22.83984375 -8.10546875 21.65625 C-8.27869325 14.99123106 -8.08865668 9.96430256 -5 4 C-2.5 1.4375 -2.5 1.4375 0 0 Z " fill="#000000" transform="translate(158,16)"/>
<path d="M0 0 C0 0.66 0 1.32 0 2 C-1.65 2.33 -3.3 2.66 -5 3 C-2.46276559 5.53723441 -0.37531783 5.93631095 3.0625 6.9375 C8.41494505 8.52539203 13.71283977 10.20774229 19 12 C19 12.33 19 12.66 19 13 C16.36 13 13.72 13 11 13 C11 14.32 11 15.64 11 17 C12.10859375 17.18175781 13.2171875 17.36351562 14.359375 17.55078125 C15.82301777 17.80410404 17.28655404 18.0580427 18.75 18.3125 C19.47960937 18.43044922 20.20921875 18.54839844 20.9609375 18.66992188 C24.96505667 19.379743 28.04792053 19.97800286 31 23 C31 23.66 31 24.32 31 25 C29.5608866 24.71640113 28.12374482 24.42278601 26.6875 24.125 C25.88699219 23.96257812 25.08648437 23.80015625 24.26171875 23.6328125 C22 23 22 23 19 21 C16.02550392 20.75780685 16.02550392 20.75780685 12.8125 20.875 C11.72582031 20.89304688 10.63914063 20.91109375 9.51953125 20.9296875 C8.68808594 20.95289063 7.85664062 20.97609375 7 21 C7 21.99 7 22.98 7 24 C7.66 24 8.32 24 9 24 C9 24.66 9 25.32 9 26 C1.45709983 26.4946164 -4.058915 24.90617391 -11 22 C-10.34 23.65 -9.68 25.3 -9 27 C-12.0625 27.5 -12.0625 27.5 -16 27 C-20.0180103 23.88177579 -22.71976662 20.68140031 -23.5625 15.625 C-23 13 -23 13 -21 11 C-20.35644659 8.63964943 -20.35644659 8.63964943 -19.9375 6 C-19.0896861 1.1793722 -19.0896861 1.1793722 -18 -1 C-11.73810044 -2.40573255 -6.08425408 -2.02808469 0 0 Z " fill="#000000" transform="translate(113,217)"/>
<path d="M0 0 C0.66 0 1.32 0 2 0 C2.12117188 0.63808594 2.24234375 1.27617187 2.3671875 1.93359375 C2.53476563 2.75988281 2.70234375 3.58617187 2.875 4.4375 C3.11863281 5.67306641 3.11863281 5.67306641 3.3671875 6.93359375 C3.57601562 7.61550781 3.78484375 8.29742187 4 9 C4.66 9.33 5.32 9.66 6 10 C6.26554687 9.44570312 6.53109375 8.89140625 6.8046875 8.3203125 C7.15789062 7.59585938 7.51109375 6.87140625 7.875 6.125 C8.22304687 5.40570313 8.57109375 4.68640625 8.9296875 3.9453125 C10 2 10 2 12 0 C12.99 0.33 13.98 0.66 15 1 C14.13375 2.3303125 14.13375 2.3303125 13.25 3.6875 C9.6036366 10.04259049 7 17.6719266 7 25 C13.08408472 25.19814261 13.08408472 25.19814261 19 24 C18.75 25.875 18.75 25.875 18 28 C15.45488869 29.85988903 13.54360839 30.05508175 10.375 30.4375 C9.26125 30.623125 8.1475 30.80875 7 31 C4.12496498 35.31255254 4.61050727 39.36763598 4.44140625 44.45703125 C3.94895763 48.40969404 2.90072624 52.09927376 0 55 C-6.88782745 55.72503447 -10.50540823 54.09171728 -16 50 C-15.71890887 48.35232753 -15.42481474 46.70686855 -15.125 45.0625 C-14.96257812 44.14597656 -14.80015625 43.22945312 -14.6328125 42.28515625 C-14.42398438 41.53105469 -14.21515625 40.77695313 -14 40 C-12 39 -12 39 -8.875 39.9375 C-7.92625 40.288125 -6.9775 40.63875 -6 41 C-1.60348319 37.19760708 0.62835108 33.68100263 2 28 C2.3918681 22.37415968 2.3918681 22.37415968 1 17 C-0.86644906 15.81669817 -0.86644906 15.81669817 -3 15 C-3.99 14.34 -4.98 13.68 -6 13 C-6 12.34 -6 11.68 -6 11 C-4.35 11 -2.7 11 -1 11 C-1.020625 9.741875 -1.04125 8.48375 -1.0625 7.1875 C-1.10886083 4.35948913 -0.91692961 2.75078884 0 0 Z " fill="#000000" transform="translate(221,142)"/>
<path d="M0 0 C4.66276061 1.06343663 7.71180801 2.9316514 10.5625 6.8125 C10.625 9.75 10.625 9.75 9.5625 12.8125 C9.20282368 14.10264331 8.84865991 15.39433602 8.5 16.6875 C8.190625 17.71875 7.88125 18.75 7.5625 19.8125 C5.24995231 18.69905111 3.26423819 17.59272814 1.1875 16.0625 C-1.41163274 14.50705295 -1.41163274 14.50705295 -4.375 15.375 C-10.58264574 18.2887929 -15.77404903 21.59842422 -18.375 28.1875 C-18.46249299 31.86220558 -16.91453154 34.48917904 -15.4375 37.8125 C-15.7675 38.8025 -16.0975 39.7925 -16.4375 40.8125 C-17.7575 40.1525 -19.0775 39.4925 -20.4375 38.8125 C-20.870625 39.740625 -21.30375 40.66875 -21.75 41.625 C-23.15788627 44.28434073 -24.19873556 45.89355905 -26.4375 47.8125 C-27.0975 47.4825 -27.7575 47.1525 -28.4375 46.8125 C-28.128125 46.11125 -27.81875 45.41 -27.5 44.6875 C-26.40447322 41.72313343 -25.87327008 38.93551892 -25.4375 35.8125 C-26.46875 36.616875 -27.5 37.42125 -28.5625 38.25 C-31.80877696 40.59049296 -34.38652383 41.51608711 -38.4375 41.8125 C-38.4375 41.1525 -38.4375 40.4925 -38.4375 39.8125 C-33.02573529 35.8125 -33.02573529 35.8125 -30.4375 35.8125 C-30.18097656 35.21566406 -29.92445312 34.61882812 -29.66015625 34.00390625 C-28.32649816 31.61354782 -27.01698606 30.42692019 -24.875 28.75 C-22.24312347 26.68717786 -21.53317461 26.09952382 -20.4375 22.8125 C-23.99389236 20.51130494 -27.38468288 19.03777029 -31.4375 17.8125 C-30.3125 16.25 -30.3125 16.25 -28.4375 14.8125 C-25.6875 15.0625 -25.6875 15.0625 -22.4375 15.8125 C-20.10492506 16.15109959 -17.77175788 16.4857039 -15.4375 16.8125 C-15.07398437 16.24402344 -14.71046875 15.67554688 -14.3359375 15.08984375 C-12.73922091 12.63745083 -11.10183572 10.21950269 -9.4375 7.8125 C-8.94636719 7.1009375 -8.45523438 6.389375 -7.94921875 5.65625 C-5.41354045 2.32091034 -4.18078917 0.98818653 0 0 Z " fill="#000000" transform="translate(60.4375,45.1875)"/>
<path d="M0 0 C3 1 3 1 4 3 C4.7015818 9.21401025 3.9660752 12.48059048 0.875 17.9375 C-1.84741835 23.02192198 -2.58887607 25.9330033 -0.9921875 31.4765625 C0.50977551 35.29651567 2.20728068 38.99735231 4.07421875 42.65234375 C5 45 5 45 4 48 C-1.42098275 43.22885115 -5.83787045 35.27564239 -7.73046875 28.3125 C-8.12402836 21.84535823 -5.24824199 16.73253407 -2.40234375 11.07421875 C-0.65287639 7.23903543 -0.16388082 4.17896093 0 0 Z " fill="#000000" transform="translate(216,39)"/>
<path d="M0 0 C-0.6496875 0.85271484 -0.6496875 0.85271484 -1.3125 1.72265625 C-4.9352435 6.74585847 -6.7941402 9.7792351 -6 16 C-7.66611905 16.042721 -9.33382885 16.04063832 -11 16 C-12 15 -12 15 -12.25 11.25 C-12.18747689 7.36662006 -11.53635218 5.0611147 -9 2 C-5.56068537 -0.64562664 -4.09063882 -1.26801118 0 0 Z " fill="#000000" transform="translate(171,54)"/>
<path d="M0 0 C12.11949878 4.42420538 12.11949878 4.42420538 15 8 C15.09940493 10.87169802 14.61695439 13.15251821 14 16 C12 15 12 15 11 12 C9.906875 11.773125 8.81375 11.54625 7.6875 11.3125 C3.67580419 9.88460827 3.3512521 9.57106984 1.5625 6 C0.60273824 3.81543767 0 2.38790748 0 0 Z " fill="#000000" transform="translate(123,21)"/>
<path d="M0 0 C3.3 0.99 6.6 1.98 10 3 C10 5.97 10 8.94 10 12 C4.97050156 10.56300045 2.92172415 8.17389165 0 4 C0 2.68 0 1.36 0 0 Z " fill="#000000" transform="translate(132,141)"/>
<path d="M0 0 C0.33 0 0.66 0 1 0 C0.979375 1.19625 0.95875 2.3925 0.9375 3.625 C0.91287163 6.41293181 1.11359735 8.4922552 1.75 11.25 C2 14 2 14 0.0625 16.375 C-0.618125 16.91125 -1.29875 17.4475 -2 18 C-4.00441422 13.86589566 -4.40848636 10.57504719 -4 6 C-2.84360194 3.68720389 -1.82590172 1.82590172 0 0 Z " fill="#000000" transform="translate(156,58)"/>
<path d="M0 0 C3.12290635 0.48578543 5.99580359 0.9986012 9 2 C9 4.97 9 7.94 9 11 C6.2941403 10.32353508 4.48483064 9.64282657 2.77734375 7.37890625 C0 2.59072581 0 2.59072581 0 0 Z " fill="#000000" transform="translate(114,135)"/>
<path d="M0 0 C4.95 1.98 4.95 1.98 10 4 C9.67 6.64 9.34 9.28 9 12 C5.18688695 10.5019913 3.27516449 8.37351976 1 5 C0.67 3.35 0.34 1.7 0 0 Z " fill="#000000" transform="translate(96,126)"/>
<path d="M0 0 C3.84938867 3.59276276 5.91873633 5.88714467 6.125 11.25 C6.08375 12.1575 6.0425 13.065 6 14 C4 14 4 14 2.421875 12.4609375 C0.73412284 10.35519064 -0.75415215 8.3971831 -2 6 C-1.375 2.5 -1.375 2.5 0 0 Z " fill="#000000" transform="translate(99,145)"/>
<path d="M0 0 C9.80843419 0.61970499 9.80843419 0.61970499 14 4 C14 4.66 14 5.32 14 6 C10.37 6 6.74 6 3 6 C2.67 5.01 2.34 4.02 2 3 C1.34 2.67 0.68 2.34 0 2 C0 1.34 0 0.68 0 0 Z " fill="#000000" transform="translate(100,23)"/>
<path d="M0 0 C0.99 0.33 1.98 0.66 3 1 C3.66 4.63 4.32 8.26 5 12 C0.97777612 9.98888806 -0.48314253 8.59551067 -3 5 C-3 3 -3 3 -1.5 1.375 C-1.005 0.92125 -0.51 0.4675 0 0 Z " fill="#000000" transform="translate(116,167)"/>
<path d="M0 0 C0.66 0 1.32 0 2 0 C4.21854707 4.62197306 5.38281159 7.76824163 5 13 C4.01 13 3.02 13 2 13 C-0.44038726 8.11922548 -1.46845421 5.47332932 0 0 Z " fill="#000000" transform="translate(148,71)"/>
<path d="M0 0 C0 0.66 0 1.32 0 2 C-2.59964741 4.27469149 -4.61854386 5.97771845 -8.1796875 6.03515625 C-10.13382059 5.78132758 -12.07031892 5.39924436 -14 5 C-14 4.34 -14 3.68 -14 3 C-9.03006806 0.56574762 -5.65394631 -0.34615998 0 0 Z " fill="#000000" transform="translate(90,32)"/>
<path d="M0 0 C3.34373475 0.55728913 6.03312999 1.35173889 9 3 C8.67 5.31 8.34 7.62 8 10 C4.68265755 8.93371135 3.42559558 7.35782372 1.75 4.4375 C0 1 0 1 0 0 Z " fill="#000000" transform="translate(149,148)"/>
<path d="M0 0 C2.46800047 1.15173355 4.04783565 2.04783565 6 4 C6.26991906 6.68839385 6.08737357 9.29141936 6 12 C2.59156258 9.11593757 1.13408616 7.6291735 0.1875 3.1875 C0.125625 2.135625 0.06375 1.08375 0 0 Z " fill="#000000" transform="translate(80,115)"/>
<path d="M0 0 C5.66153846 2.46153846 5.66153846 2.46153846 7.375 5.1875 C7.58125 5.785625 7.7875 6.38375 8 7 C5.66705225 7.04241723 3.33297433 7.04092937 1 7 C0 6 0 6 -0.0625 2.9375 C-0.041875 1.968125 -0.02125 0.99875 0 0 Z " fill="#000000" transform="translate(158,194)"/>
<path d="M0 0 C0.33 0.66 0.66 1.32 1 2 C0.0625 4.125 0.0625 4.125 -1 6 C-4.65316671 4.75023244 -5.78065836 4.32901247 -8 1 C-5.07175348 0.02391783 -3.04386724 -0.08226668 0 0 Z " fill="#000000" transform="translate(178,188)"/>
<path d="M0 0 C3.7952131 1.49097658 5.61042731 3.75700849 8 7 C7.01 7.33 6.02 7.66 5 8 C2.3125 6.3125 2.3125 6.3125 0 4 C0 2.68 0 1.36 0 0 Z " fill="#000000" transform="translate(77,132)"/>
<path d="M0 0 C2 1.8125 2 1.8125 4 4 C4 4.99 4 5.98 4 7 C2.35 7.33 0.7 7.66 -1 8 C-0.67 5.36 -0.34 2.72 0 0 Z " fill="#000000" transform="translate(175,164)"/>
<path d="M0 0 C2.47141532 2.1490568 3.69898137 3.68879509 4 7 C3.0625 9.25 3.0625 9.25 2 11 C-0.67927341 6.98108988 -0.15601248 4.75838077 0 0 Z " fill="#000000" transform="translate(68,98)"/>
<path d="M0 0 C1.32 0.33 2.64 0.66 4 1 C3.67 2.98 3.34 4.96 3 7 C2.34 7 1.68 7 1 7 C0.67 4.69 0.34 2.38 0 0 Z " fill="#000000" transform="translate(165,156)"/>
<path d="M0 0 C0.99 0.33 1.98 0.66 3 1 C1.6875 3 1.6875 3 0 5 C-0.99 5 -1.98 5 -3 5 C-1.125 1.125 -1.125 1.125 0 0 Z " fill="#000000" transform="translate(20,137)"/>
<path d="M0 0 C0.99 0.33 1.98 0.66 3 1 C2.67 2.32 2.34 3.64 2 5 C1.01 4.67 0.02 4.34 -1 4 C-0.67 2.68 -0.34 1.36 0 0 Z " fill="#000000" transform="translate(182,68)"/>
<path d="M0 0 C1.32 0.99 2.64 1.98 4 3 C3.67 3.99 3.34 4.98 3 6 C1.68 5.01 0.36 4.02 -1 3 C-0.67 2.01 -0.34 1.02 0 0 Z " fill="#000000" transform="translate(144,192)"/>
<path d="M0 0 C4.875 1.75 4.875 1.75 6 4 C3.03 3.505 3.03 3.505 0 3 C0 2.01 0 1.02 0 0 Z " fill="#000000" transform="translate(59,125)"/>
<path d="M0 0 C2.31 0 4.62 0 7 0 C6.34 0.66 5.68 1.32 5 2 C2.375 1.625 2.375 1.625 0 1 C0 0.67 0 0.34 0 0 Z " fill="#000000" transform="translate(33,125)"/>
<path d="M0 0 C0.66 0.33 1.32 0.66 2 1 C2 1.99 2 2.98 2 4 C1.01 3.67 0.02 3.34 -1 3 C-0.67 2.01 -0.34 1.02 0 0 Z " fill="#000000" transform="translate(131,185)"/>
<path d="M0 0 C-0.33 0.99 -0.66 1.98 -1 3 C-1.99 3 -2.98 3 -4 3 C-4 2.34 -4 1.68 -4 1 C-2 0 -2 0 0 0 Z " fill="#000000" transform="translate(181,178)"/>
<path d="M0 0 C2 1 2 1 2 1 Z " fill="#000000" transform="translate(16,166)"/>
</svg>
