<?xml version="1.0" encoding="UTF-8"?>
<svg version="1.1" xmlns="http://www.w3.org/2000/svg" width="256" height="256">
<path d="M0 0 C75.57 0 151.14 0 229 0 C229 38.61 229 77.22 229 117 C217.78 117 206.56 117 195 117 C194.938125 113.761875 194.87625 110.52375 194.8125 107.1875 C193.98141945 85.14087101 187.09183655 65.34297325 172 49 C171.32582031 48.22269531 170.65164062 47.44539063 169.95703125 46.64453125 C157.10805457 32.63842346 137.78451798 24.81489469 119.03125 23.78125 C96.78555759 23.11258749 75.29282793 30.63940463 58.921875 45.9609375 C42.77674514 63.0905265 35.3648798 83.09699722 34.4375 106.4375 C34.293125 109.923125 34.14875 113.40875 34 117 C22.78 117 11.56 117 0 117 C0 78.39 0 39.78 0 0 Z " fill="#000000" transform="translate(14,70)"/>
</svg>
