<?xml version="1.0" encoding="UTF-8"?>
<svg version="1.1" xmlns="http://www.w3.org/2000/svg" width="256" height="256">
<path d="M0 0 C71.61 0 143.22 0 217 0 C217.061875 21.305625 217.12375 42.61125 217.1875 64.5625 C217.21481201 71.28568604 217.24212402 78.00887207 217.27026367 84.93579102 C217.28381348 93.15612793 217.28381348 93.15612793 217.28633118 97.00645447 C217.29093316 99.69131644 217.30034798 102.37575281 217.31672668 105.06053162 C217.34122841 109.13101076 217.34171771 113.20117583 217.34057617 117.27172852 C217.3513705 118.46442887 217.36216482 119.65712923 217.37328625 120.88597202 C217.34227149 129.15052425 216.34012688 135.30924411 210.52811432 141.65900421 C202.60699324 148.61017919 192.18398081 147.56782909 182.32226562 147.51757812 C180.53260225 147.52300455 178.74294335 147.53013012 176.95329285 147.53881836 C172.11235454 147.55699278 167.27175873 147.55000854 162.43081474 147.53730202 C157.35413597 147.52714381 152.27748565 147.53657552 147.20080566 147.54284668 C138.67694864 147.55011488 130.15323045 147.5405571 121.62939453 147.52148438 C111.78802759 147.49971726 101.94699217 147.50676921 92.10563326 147.52879 C83.64165814 147.54696758 75.17778257 147.54949079 66.71379423 147.53903532 C61.66491992 147.53281336 56.61620122 147.53192901 51.56733704 147.54518127 C46.81966519 147.55677349 42.07241895 147.54865261 37.32479286 147.52560425 C35.58701088 147.52033513 33.84919281 147.52180001 32.1114254 147.53065491 C12.90653554 147.61945948 12.90653554 147.61945948 6.14131927 141.25006866 C1.69432732 136.49676701 -0.25308539 131.98403177 -0.24050903 125.42546082 C-0.24326403 124.31862788 -0.24601902 123.21179495 -0.2488575 122.07142162 C-0.24166128 120.86215669 -0.23446507 119.65289175 -0.22705078 118.40698242 C-0.22729185 117.10788342 -0.22753292 115.80878443 -0.2277813 114.47031879 C-0.22823198 110.96288568 -0.21665789 107.45558962 -0.20256042 103.94818878 C-0.19115296 100.65446859 -0.19063322 97.3607542 -0.18920898 94.0670166 C-0.17872304 84.44049299 -0.15080065 74.81399475 -0.125 65.1875 C-0.08375 43.675625 -0.0425 22.16375 0 0 Z M36 31 C33.40222295 35.19589757 33.63270596 39.14053715 33.625 43.9375 C33.60050781 44.73607422 33.57601562 45.53464844 33.55078125 46.35742188 C33.53055903 50.42545837 33.67471026 52.48529257 35.8984375 56.00390625 C39.79316397 59.70317247 43.62365757 59.28577569 48.75 59.375 C49.54921875 59.41238281 50.3484375 59.44976562 51.171875 59.48828125 C55.3780953 59.55054438 58.15701321 59.33851263 61.515625 56.6640625 C65.37003073 52.53087899 65.20938789 49.17414948 65.3125 43.6875 C65.34988281 42.39199219 65.38726562 41.09648437 65.42578125 39.76171875 C64.93117025 35.39189866 63.81696948 33.33990952 61 30 C57.5445708 27.38202198 53.84490064 27.70013443 49.625 27.6875 C48.33851562 27.67074219 47.05203125 27.65398437 45.7265625 27.63671875 C41.72783634 28.02653168 39.35241408 28.80955835 36 31 Z M94.2109375 32.66015625 C92.40102784 36.15736879 92.56593513 39.59500206 92.625 43.4375 C92.61339844 44.18837891 92.60179688 44.93925781 92.58984375 45.71289062 C92.61397193 50.28518142 93.05121916 53.2967189 96 57 C100.13909944 59.75939963 103.50894206 59.40462123 108.375 59.4375 C109.65117187 59.48680664 109.65117187 59.48680664 110.953125 59.53710938 C115.48121206 59.5759014 117.3775541 59.49203628 121.0390625 56.59765625 C124.26132902 52.32911594 124.27872074 48.95783287 124.375 43.75 C124.41238281 42.99847656 124.44976562 42.24695313 124.48828125 41.47265625 C124.55254016 37.38150552 124.25965433 34.77520543 121.6640625 31.515625 C117.50820672 27.59132717 114.16673961 27.81532502 108.625 27.75 C107.31789063 27.72421875 106.01078125 27.6984375 104.6640625 27.671875 C99.93339177 28.09551715 97.62936674 29.48803305 94.2109375 32.66015625 Z M155 31 C151.7445548 35.03732068 151.59441001 38.40166769 151.625 43.5 C151.61726562 44.7890625 151.60953125 46.078125 151.6015625 47.40625 C152.11580364 52.04450343 153.5364796 54.39609396 156.62890625 57.78515625 C160.31385156 59.67315953 163.85725442 59.47355036 167.9375 59.4375 C168.73607422 59.45748047 169.53464844 59.47746094 170.35742188 59.49804688 C174.41820761 59.49468251 176.49621076 59.31904468 180.00390625 57.09765625 C183.87784387 53.02661025 183.28722308 49.0538615 183.375 43.6875 C183.41238281 42.83220703 183.44976562 41.97691406 183.48828125 41.09570312 C183.5517037 36.54690395 183.50534541 34.6411467 180.6015625 30.95703125 C176.4131856 27.8063153 173.28653113 27.78632435 168.1875 27.75 C167.11918945 27.7190625 167.11918945 27.7190625 166.02929688 27.6875 C161.47411206 27.6537891 158.54084467 28.07578357 155 31 Z M35 92 C33.24778932 95.50442137 33.68816463 99.45084431 33.625 103.3125 C33.58761719 104.16779297 33.55023438 105.02308594 33.51171875 105.90429688 C33.4482963 110.45309605 33.49465459 112.3588533 36.3984375 116.04296875 C40.55755006 119.17167054 43.68254085 119.24438899 48.75 119.3125 C49.80574219 119.35600586 49.80574219 119.35600586 50.8828125 119.40039062 C56.02753938 119.46254811 58.96391438 118.45000732 63 115 C65.63190432 111.53377442 65.2999115 107.79643196 65.3125 103.5625 C65.32925781 102.26441406 65.34601563 100.96632813 65.36328125 99.62890625 C64.89468579 94.94799035 63.48497441 92.627418 60.37109375 89.21484375 C56.68614844 87.32684047 53.14274558 87.52644964 49.0625 87.5625 C48.26392578 87.54251953 47.46535156 87.52253906 46.64257812 87.50195312 C41.50169808 87.50621235 38.70499137 88.10649634 35 92 Z M94 93 C92.38614233 96.22771533 92.69050255 99.70690777 92.625 103.25 C92.58761719 104.00152344 92.55023438 104.75304687 92.51171875 105.52734375 C92.44745984 109.61849448 92.74034567 112.22479457 95.3359375 115.484375 C99.49179328 119.40867283 102.83326039 119.18467498 108.375 119.25 C109.68210937 119.27578125 110.98921875 119.3015625 112.3359375 119.328125 C117.06560346 118.90457282 119.37358838 117.51608611 122.78515625 114.3359375 C124.59355199 110.85870067 124.47365664 107.45103027 124.4375 103.625 C124.45748047 102.8825 124.47746094 102.14 124.49804688 101.375 C124.4934258 96.14393982 123.44539179 93.14473575 120 89 C116.49557863 87.24778932 112.54915569 87.68816463 108.6875 87.625 C107.83220703 87.58761719 106.97691406 87.55023438 106.09570312 87.51171875 C100.30679478 87.43100585 97.66710445 88.12516654 94 93 Z M154 92 C151.46137442 95.5233046 151.66736926 99.12959982 151.625 103.375 C151.59664062 104.66148437 151.56828125 105.94796875 151.5390625 107.2734375 C152.07440772 111.60156752 153.2106123 113.68209673 156 117 C159.49573143 119.68782905 163.63351462 119.36721746 167.875 119.375 C168.56980469 119.39949219 169.26460937 119.42398438 169.98046875 119.44921875 C175.14107404 119.47837471 178.04302341 118.25512753 182 115 C183.75021631 111.49956737 183.26948691 107.54434036 183.3125 103.6875 C183.35600586 102.40456055 183.35600586 102.40456055 183.40039062 101.09570312 C183.44288075 96.87610668 183.38274023 94.61475183 181.10546875 90.95703125 C177.16477152 87.29415683 173.32397083 87.74811925 168.1875 87.6875 C167.37990234 87.65849609 166.57230469 87.62949219 165.74023438 87.59960938 C160.55542478 87.54440665 157.68469423 87.99245638 154 92 Z " fill="#000000" transform="translate(19,95)"/>
<path d="M0 0 C0.99386719 0.00902344 1.98773438 0.01804687 3.01171875 0.02734375 C4.15060547 0.04474609 4.15060547 0.04474609 5.3125 0.0625 C5.41046875 1.00351562 5.5084375 1.94453125 5.609375 2.9140625 C6.64043545 11.50030726 7.33650364 16.39234952 13.75 22.3125 C19.42924783 26.19101072 24.528801 26.88978037 31.3125 26.0625 C37.24168354 24.25080503 40.82365702 21.09053841 44.3125 16.0625 C46.91493236 10.2471148 46.91493236 10.2471148 47.3125 0.0625 C72.7225 0.0625 98.1325 0.0625 124.3125 0.0625 C124.6425 3.6925 124.9725 7.3225 125.3125 11.0625 C128.00309199 18.03810887 131.06814482 21.58662614 137.5625 25.375 C144.2956153 27.05827882 150.47738183 26.80876453 156.55859375 23.33203125 C160.96059518 20.14572732 163.57052668 16.19831789 165.3125 11.0625 C165.5884478 9.13346868 165.79699903 7.1935968 165.9375 5.25 C166.01226562 4.27417969 166.08703125 3.29835937 166.1640625 2.29296875 C166.23753906 1.18888672 166.23753906 1.18888672 166.3125 0.0625 C174.35189099 -0.6252806 180.74641014 0.06905753 187.3125 5.0625 C192.96261164 11.61984502 194.46660017 17.08734833 194.4453125 25.6328125 C194.44626923 26.46964569 194.44722595 27.30647888 194.44821167 28.16867065 C194.44889173 29.9355273 194.44704957 31.70238645 194.44287109 33.46923828 C194.43750696 36.18397577 194.44282883 38.89854882 194.44921875 41.61328125 C194.4485582 43.32812537 194.44727752 45.04296938 194.4453125 46.7578125 C194.44733673 47.57444366 194.44936096 48.39107483 194.45144653 49.23245239 C194.42745964 54.94754036 194.42745964 54.94754036 193.3125 56.0625 C190.54578927 56.16260555 187.8039693 56.19689447 185.03674316 56.18948364 C184.15863055 56.19104363 183.28051793 56.19260362 182.37579584 56.19421089 C179.41001909 56.19822479 176.44429282 56.19502974 173.47851562 56.19189453 C171.36179067 56.1932484 169.24506595 56.19502825 167.12834167 56.19720459 C161.36198288 56.20178065 155.59564189 56.19998866 149.82928276 56.1968255 C143.80924301 56.19430279 137.78920484 56.19663919 131.76916504 56.19821167 C121.6574679 56.20003363 111.54577806 56.19762638 101.43408203 56.19287109 C89.72512366 56.18742843 78.0161827 56.18919106 66.30722475 56.1946975 C56.27414949 56.19922789 46.24107948 56.19987954 36.20800352 56.19725883 C30.20692884 56.19569565 24.20586237 56.19550341 18.20478821 56.19879532 C12.56439202 56.20167296 6.92401839 56.19970032 1.28362465 56.19390106 C-0.79292959 56.19257289 -2.8694857 56.19296854 -4.9460392 56.19516373 C-7.76796661 56.19787299 -10.58982051 56.19449686 -13.41174316 56.18948364 C-14.24470209 56.19171436 -15.07766101 56.19394509 -15.93586111 56.19624341 C-21.57335017 56.17664983 -21.57335017 56.17664983 -22.6875 55.0625 C-22.98160764 49.81212013 -23.00180709 44.55885301 -23.03759766 39.30102539 C-23.05405053 37.53298685 -23.08119713 35.76501182 -23.11962891 33.99731445 C-23.54124637 14.49842334 -23.54124637 14.49842334 -17.6875 7.0625 C-15.3359375 4.80859375 -15.3359375 4.80859375 -13.0625 3.5 C-11.92941406 2.81744141 -11.92941406 2.81744141 -10.7734375 2.12109375 C-7.0298339 0.22124998 -4.14044868 -0.04871116 0 0 Z " fill="#000000" transform="translate(41.6875,29.9375)"/>
<path d="M0 0 C3.02508145 1.73602105 5.41790069 3.83580137 7 7 C7.29125335 10.26404619 7.27787486 13.53696174 7.3125 16.8125 C7.34150391 17.71548828 7.37050781 18.61847656 7.40039062 19.54882812 C7.4415752 23.86053629 7.42520142 26.30816186 5.125 30.05078125 C1.59628398 33.28759981 -0.70151797 34.04637436 -5.5 33.875 C-9.31676375 32.92080906 -11.1992823 31.71834365 -14 29 C-15.87181618 25.25636763 -15.31428147 20.80807994 -15.375 16.6875 C-15.41238281 15.73681641 -15.44976562 14.78613281 -15.48828125 13.80664062 C-15.5770793 6.74719551 -15.5770793 6.74719551 -12.6015625 2.89453125 C-8.4965374 -0.0948639 -5.04055858 -0.86035508 0 0 Z " fill="#000000" transform="translate(191,14)"/>
<path d="M0 0 C3.58552881 1.63687185 4.79315055 2.68972583 7 6 C7.45694847 9.44285712 7.37031082 12.90501023 7.375 16.375 C7.39949219 17.32117188 7.42398438 18.26734375 7.44921875 19.2421875 C7.46777457 23.64610202 7.45466809 26.25513835 5.12109375 30.078125 C1.58299552 33.28391566 -0.71293075 34.04596676 -5.5 33.875 C-9.31676375 32.92080906 -11.1992823 31.71834365 -14 29 C-15.80484412 25.39031177 -15.31305733 21.2255929 -15.375 17.25 C-15.43107422 15.90808594 -15.43107422 15.90808594 -15.48828125 14.5390625 C-15.54755296 10.07392686 -15.48992136 6.97449273 -12.6015625 3.421875 C-8.5983076 -0.30487881 -5.34200319 -0.58444181 0 0 Z " fill="#000000" transform="translate(72,14)"/>
</svg>
