<?xml version="1.0" encoding="UTF-8"?>
<svg version="1.1" xmlns="http://www.w3.org/2000/svg" width="256" height="256">
<path d="M0 0 C1.010625 0.26683594 2.02125 0.53367187 3.0625 0.80859375 C21.45169884 6.31068117 37.30622467 16.81998824 51 30 C51.63550781 30.56074219 52.27101562 31.12148438 52.92578125 31.69921875 C69.66132391 46.9169795 82.01165014 73.9091704 83.17700195 96.41894531 C83.71282768 130.60078405 83.71282768 130.60078405 79 144 C78.62617188 145.12148437 78.25234375 146.24296875 77.8671875 147.3984375 C72.91310993 161.21079947 66.28048746 172.77779605 57 184 C56.37222656 184.78117188 55.74445313 185.56234375 55.09765625 186.3671875 C53.78917991 187.96039341 52.40420036 189.49048461 51 191 C50.34 191 49.68 191 49 191 C48.67 191.99 48.34 192.98 48 194 C26.29298024 213.91170233 -0.57074869 223.69601552 -29.8125 223.4375 C-30.92877274 223.43243942 -30.92877274 223.43243942 -32.06759644 223.42727661 C-43.42894487 223.35278046 -54.19621395 222.76147812 -65 219 C-66.04631592 218.64591064 -66.04631592 218.64591064 -67.11376953 218.28466797 C-82.34617827 212.97199292 -97.43756054 204.36646591 -109 193 C-109 192.34 -109 191.68 -109 191 C-109.82757813 190.70029297 -109.82757813 190.70029297 -110.671875 190.39453125 C-113.93891827 188.43759426 -115.9684004 185.66765454 -118.25 182.6875 C-118.97243896 181.75296997 -118.97243896 181.75296997 -119.70947266 180.79956055 C-140.18994285 153.88110794 -146.64131501 122.91110824 -142.58544922 89.59472656 C-141.5600941 83.89112933 -139.98409337 78.43922443 -138 73 C-137.60425781 71.8759375 -137.20851562 70.751875 -136.80078125 69.59375 C-135.65840654 66.6486245 -134.38839444 63.83663346 -133 61 C-132.51015625 59.97003906 -132.0203125 58.94007812 -131.515625 57.87890625 C-117.73980143 30.55685617 -92.89972495 10.57129154 -64 1 C-43.76240086 -4.86520497 -20.39793095 -5.55651185 0 0 Z M1.34986115 80.69723511 C-1.24501394 83.33455981 -3.84955759 85.96224956 -6.45349503 88.59062195 C-11.2871878 93.46991723 -16.11671461 98.35317879 -20.93017578 103.25244141 C-24.29379828 106.67527785 -27.669356 110.08592713 -31.0532608 113.4887085 C-32.33844081 114.78565296 -33.6190666 116.08712656 -34.89504242 117.39312744 C-36.6710192 119.20988802 -38.46176297 121.01072819 -40.25683594 122.80859375 C-40.78158005 123.35288528 -41.30632416 123.89717682 -41.8469696 124.45796204 C-43.33294678 125.92749023 -43.33294678 125.92749023 -46 128 C-50.36846608 127.94088911 -53.01990667 124.50184039 -56 121.625 C-57.15599953 120.53358881 -58.31225561 119.44244931 -59.46875 118.3515625 C-60.05398437 117.79500977 -60.63921875 117.23845703 -61.2421875 116.66503906 C-63.96914535 114.08200399 -66.73252916 111.53946898 -69.5 109 C-70.90765625 107.700625 -70.90765625 107.700625 -72.34375 106.375 C-78.05971473 100.92741078 -78.05971473 100.92741078 -85.3125 98.75 C-89.2584558 99.01752243 -90.9789062 99.49680799 -94 102 C-95.79391966 104.93550491 -95.9974928 106.86711829 -96.0625 110.3125 C-93.78692998 118.21006653 -86.72422244 123.30459296 -80.73828125 128.58203125 C-77.79058941 131.18491463 -74.89242575 133.83615501 -72 136.5 C-68.17624414 140.01058491 -64.34710133 143.5149788 -60.5 147 C-59.33984375 148.051875 -59.33984375 148.051875 -58.15625 149.125 C-53.738497 152.96652435 -51.05574172 154.79118132 -45 155 C-39.37244847 152.85069446 -35.71887417 149.16921346 -31.54174805 144.9934082 C-30.82071396 144.28405624 -30.09967987 143.57470428 -29.35679626 142.84385681 C-26.98365052 140.50421615 -24.62201047 138.15338444 -22.26171875 135.80078125 C-20.61374002 134.16498607 -18.96561057 132.52934273 -17.31733704 130.8938446 C-13.86806838 127.46702995 -10.42529501 124.03383071 -6.98608398 120.59692383 C-2.57995677 116.19608694 1.84876011 111.81876033 6.28353596 107.44682026 C9.69347128 104.0777524 13.08749062 100.69299143 16.47728539 97.30367088 C18.10348149 95.68285862 19.73541814 94.06778472 21.37316322 92.45864296 C23.66194839 90.20653588 25.92751385 87.93331457 28.1887207 85.65356445 C28.86765381 84.99508514 29.54658691 84.33660583 30.24609375 83.65817261 C34.61617523 79.18896371 36.00646935 76.30488588 36 70 C34.49717203 65.94236447 33.61841259 64.41227506 30 62 C17.67771795 59.25361367 9.09945507 72.81306091 1.34986115 80.69723511 Z " fill="#000000" transform="translate(158,18)"/>
</svg>
