<?xml version="1.0" encoding="UTF-8"?>
<svg version="1.1" xmlns="http://www.w3.org/2000/svg" width="256" height="256">
<path d="M0 0 C2.73384721 2.29756977 5.40855557 4.65692911 8.06396484 7.04443359 C9.28792969 8.14078125 9.28792969 8.14078125 10.53662109 9.25927734 C30.4716753 28.13956678 42.35122601 56.29130809 43.26708984 83.56787109 C43.70460318 110.6909111 36.83120939 136.3391434 20.06396484 158.04443359 C19.42587891 158.89650391 18.78779297 159.74857422 18.13037109 160.62646484 C13.90064924 166.12592776 9.44377215 170.68458976 4.06396484 175.04443359 C3.34982422 175.66833984 2.63568359 176.29224609 1.89990234 176.93505859 C-21.91369578 197.16467038 -52.23251842 204.37583962 -82.93603516 202.04443359 C-95.31590625 200.66483331 -106.64162133 197.22273885 -117.93603516 192.04443359 C-118.81130859 191.66673828 -119.68658203 191.28904297 -120.58837891 190.89990234 C-146.98612572 178.79202171 -166.45502626 154.61756652 -176.93603516 128.04443359 C-186.64402738 99.85798887 -185.83441967 68.01233533 -172.90234375 40.99365234 C-158.74463394 12.4349977 -135.53599878 -8.03984759 -105.56103516 -18.76806641 C-69.87538671 -29.82874906 -29.26269756 -24.03023843 0 0 Z " fill="#0152FF" transform="translate(197.93603515625,38.95556640625)"/>
<path d="M0 0 C9.80489663 -0.22305811 18.62972054 0.0106278 28.015625 3.1484375 C28.93601562 3.38046875 29.85640625 3.6125 30.8046875 3.8515625 C50.0225599 9.1351824 67.28538892 24.38079283 77.09204102 41.46069336 C82.89682346 52.16408494 88.015625 63.80427632 88.015625 76.1484375 C73.825625 76.1484375 59.635625 76.1484375 45.015625 76.1484375 C43.365625 71.8584375 41.715625 67.5684375 40.015625 63.1484375 C33.36070311 52.97032167 24.6086813 46.48499667 12.73828125 43.59375 C-0.75392335 41.38699057 -11.23426286 43.74594246 -22.4765625 51.27734375 C-30.39195863 57.18306765 -34.89123119 65.86900606 -37.984375 75.1484375 C-38.74558109 85.84882027 -38.80479894 94.77449158 -32.984375 104.1484375 C-32.51515625 104.95796875 -32.0459375 105.7675 -31.5625 106.6015625 C-25.97446838 115.67460309 -18.28299455 121.37634544 -8.1484375 124.76171875 C5.23957894 127.15416212 16.97071164 124.3144654 28.328125 116.8984375 C36.68764862 110.64921708 42.93922573 103.53043385 45.015625 93.1484375 C58.875625 93.1484375 72.735625 93.1484375 87.015625 93.1484375 C87.015625 98.86232208 86.51275525 102.78645869 84.765625 108.0234375 C84.53456055 108.72960205 84.30349609 109.4357666 84.06542969 110.16333008 C76.98442854 131.4430607 62.85309632 149.36557873 42.640625 159.5859375 C40.77723462 160.46514282 38.90172554 161.31907 37.015625 162.1484375 C35.91476563 162.65117187 34.81390625 163.15390625 33.6796875 163.671875 C14.5748341 171.37084577 -7.90919333 171.82734777 -27.14648438 164.30273438 C-46.72700318 155.86501767 -61.3309624 142.43607694 -71.984375 124.1484375 C-72.47679687 123.3646875 -72.96921875 122.5809375 -73.4765625 121.7734375 C-82.86663721 105.44287279 -84.81299529 83.12679594 -80.234375 65.0859375 C-79.51309549 62.76431907 -78.76534226 60.4506639 -77.984375 58.1484375 C-77.55125 56.70791016 -77.55125 56.70791016 -77.109375 55.23828125 C-70.65285063 35.20576143 -54.13523112 18.03516641 -35.88378906 8.10058594 C-24.11952995 2.20333523 -13.02216746 0.39270125 0 0 Z " fill="#FCFCFF" transform="translate(124.984375,43.8515625)"/>
</svg>
