<?xml version="1.0" encoding="UTF-8"?>
<svg version="1.1" xmlns="http://www.w3.org/2000/svg" width="256" height="256">
<path d="M0 0 C0.83950699 -0.0049649 1.67901398 -0.00992981 2.54396057 -0.01504517 C5.31788964 -0.02963605 8.09176154 -0.03646325 10.86572266 -0.04199219 C12.79619345 -0.04774565 14.72666424 -0.05350336 16.65713501 -0.05926514 C20.70388047 -0.06976601 24.75060612 -0.07561483 28.79736328 -0.07910156 C33.9780476 -0.08458796 39.15846933 -0.108623 44.33907127 -0.13707352 C48.32653567 -0.15571228 52.31393692 -0.16090613 56.30144119 -0.16243744 C58.21118228 -0.16546109 60.12092232 -0.17347992 62.03062057 -0.18662262 C64.70421001 -0.2037109 67.3771591 -0.20179625 70.05078125 -0.1953125 C71.22926888 -0.20913467 71.22926888 -0.20913467 72.43156433 -0.22323608 C77.20521522 -0.18704107 80.56712806 0.43146369 84.65478516 3.16113281 C87.60420855 6.73037892 86.95013687 11.47856624 86.9453125 15.8894043 C86.95202972 16.76953186 86.95874695 17.64965942 86.96566772 18.55645752 C86.98466163 21.46510466 86.98857245 24.37352127 86.99072266 27.28222656 C86.99714899 29.30477493 87.00387723 31.32732237 87.01089478 33.34986877 C87.02287058 37.58914343 87.02657522 41.82833657 87.02539062 46.06762695 C87.02518728 51.49961487 87.05250444 56.93108053 87.08693504 62.3629446 C87.10917095 66.53996685 87.1132292 70.71686268 87.11217117 74.89393806 C87.11453154 76.89661524 87.12337953 78.89929567 87.13883591 80.9019146 C87.15843131 83.70280452 87.15268354 86.50255859 87.140625 89.3034668 C87.15186401 90.13012344 87.16310303 90.95678009 87.17468262 91.80848694 C87.1311027 95.79183749 86.94359065 97.70775652 84.74942017 101.15223694 C80.867644 104.8751214 77.17849111 104.32821544 72.06176758 104.35400391 C71.1721785 104.3621814 70.28258942 104.37035889 69.36604309 104.37878418 C66.41412026 104.40365217 63.46224554 104.42015731 60.51025391 104.43457031 C59.50333307 104.43989399 58.49641224 104.44521767 57.45897865 104.45070267 C52.12996812 104.47743968 46.80098106 104.49681329 41.47192383 104.51123047 C35.96359104 104.52788454 30.45585584 104.57266729 24.94774914 104.62360191 C20.71583863 104.65723285 16.48407072 104.66880333 12.25203896 104.67445755 C10.22142276 104.68118094 8.19081629 104.69643111 6.16032982 104.72034836 C3.31838431 104.75191515 0.47806062 104.75204951 -2.36401367 104.74462891 C-3.20316315 104.76103424 -4.04231262 104.77743958 -4.90689087 104.79434204 C-9.20142143 104.74842936 -10.84880125 104.54997173 -14.34403992 101.81216431 C-17.73938406 97.31422455 -17.49883102 93.22948847 -17.50634766 87.82177734 C-17.51131256 86.97105652 -17.51627747 86.12033569 -17.52139282 85.24383545 C-17.53600783 82.4271972 -17.54281508 79.61061526 -17.54833984 76.79394531 C-17.55409151 74.83722939 -17.55984924 72.88051349 -17.56561279 70.92379761 C-17.57612067 66.8198012 -17.58196484 62.71582437 -17.58544922 58.61181641 C-17.59093578 53.35365728 -17.61496821 48.09575686 -17.64342117 42.83767891 C-17.6620458 38.7953516 -17.66725305 34.75308666 -17.6687851 30.71072006 C-17.67181217 28.77224182 -17.67984252 26.83376468 -17.69297028 24.89532852 C-17.71002827 22.18311116 -17.70815124 19.47152661 -17.70166016 16.75927734 C-17.71087494 15.95910187 -17.72008972 15.15892639 -17.72958374 14.33450317 C-17.68574754 8.48629432 -16.4420096 5.25792756 -12.34521484 1.16113281 C-8.30164579 -0.15652798 -4.20987253 0.00595923 0 0 Z " fill="#000000" transform="translate(154.34521484375,13.8388671875)"/>
<path d="M0 0 C0.88973511 -0.00671722 1.77947021 -0.01343445 2.69616699 -0.02035522 C5.64271604 -0.03938097 8.58903785 -0.04326176 11.53564453 -0.04541016 C13.58204238 -0.05183504 15.6284393 -0.05856316 17.67483521 -0.06558228 C21.96716441 -0.07756659 26.25941306 -0.08126192 30.55175781 -0.08007812 C36.05215325 -0.0798749 41.5520322 -0.10717541 47.05230522 -0.14162254 C51.27994153 -0.16385972 55.50745294 -0.16791664 59.73514175 -0.16685867 C61.76293848 -0.16921949 63.79073841 -0.17806999 65.81847763 -0.19352341 C68.65539458 -0.21311832 71.49119001 -0.20737082 74.328125 -0.1953125 C75.16570343 -0.20655151 76.00328186 -0.21779053 76.86624146 -0.22937012 C80.83195565 -0.18653395 82.83602645 0.00932998 86.29129028 2.13339233 C90.01946857 6.15013265 89.44748316 10.5494522 89.45458984 15.72167969 C89.4620372 17.01239128 89.4620372 17.01239128 89.46963501 18.32917786 C89.48425076 21.17828163 89.49105739 24.02732973 89.49658203 26.87646484 C89.50233363 28.85560101 89.50809136 30.83473716 89.51385498 32.81387329 C89.52436306 36.96494812 89.53020711 41.11600359 89.53369141 45.26708984 C89.53917805 50.58578184 89.56321058 55.90421807 89.59166336 61.22282982 C89.61028721 65.31148018 89.61549519 69.40006889 89.61702728 73.48875809 C89.62005452 75.44956486 89.62808544 77.41037054 89.64121246 79.37113571 C89.65826882 82.11448385 89.65639381 84.85720628 89.64990234 87.60058594 C89.65911713 88.41011215 89.66833191 89.21963837 89.67782593 90.05369568 C89.64378537 94.64649295 89.19238196 97.66626023 86.29345703 101.29052734 C82.39479262 103.88963695 79.11048817 103.58592625 74.58691406 103.58105469 C73.2523114 103.59113052 73.2523114 103.59113052 71.89074707 103.60140991 C68.94419802 103.62043566 65.99787621 103.62431645 63.05126953 103.62646484 C61.00487168 103.63288973 58.95847476 103.63961785 56.91207886 103.64663696 C52.61974966 103.65862128 48.32750101 103.66231661 44.03515625 103.66113281 C38.53476081 103.66092959 33.03488186 103.68823009 27.53460884 103.72267723 C23.30697253 103.74491441 19.07946112 103.74897132 14.85177231 103.74791336 C12.82397558 103.75027418 10.79617565 103.75912467 8.76843643 103.77457809 C5.93151948 103.79417301 3.09572406 103.7884255 0.25878906 103.77636719 C-0.57878937 103.7876062 -1.4163678 103.79884521 -2.27932739 103.8104248 C-6.28800463 103.76712456 -8.23792708 103.58837056 -11.70437622 101.38516235 C-15.38581313 97.53370161 -14.86081959 93.95042176 -14.86767578 88.88110352 C-14.87264069 88.01102158 -14.87760559 87.14093964 -14.88272095 86.24449158 C-14.89736145 83.35748512 -14.90414801 80.47053362 -14.90966797 77.58349609 C-14.91541825 75.58051044 -14.921176 73.5775248 -14.92694092 71.57453918 C-14.93745654 67.37040958 -14.94329541 63.16629912 -14.94677734 58.9621582 C-14.9522606 53.57505754 -14.97628274 48.18820982 -15.0047493 42.80118847 C-15.0233742 38.66192384 -15.02858122 34.52272012 -15.03011322 30.38341713 C-15.03314105 28.39749075 -15.04117394 26.41156548 -15.0542984 24.42568016 C-15.0713543 21.64630285 -15.06947965 18.86754319 -15.06298828 16.08813477 C-15.07220306 15.26768677 -15.08141785 14.44723877 -15.09091187 13.60192871 C-15.05731805 9.00993383 -14.69206113 6.01098985 -11.70654297 2.29052734 C-7.80787856 -0.30858226 -4.5235741 -0.00487157 0 0 Z " fill="#000000" transform="translate(28.70654296875,137.70947265625)"/>
<path d="M0 0 C0.83950699 -0.0049649 1.67901398 -0.00992981 2.54396057 -0.01504517 C5.31788964 -0.02963605 8.09176154 -0.03646325 10.86572266 -0.04199219 C12.79619345 -0.04774565 14.72666424 -0.05350336 16.65713501 -0.05926514 C20.70388047 -0.06976601 24.75060612 -0.07561483 28.79736328 -0.07910156 C33.9780476 -0.08458796 39.15846933 -0.108623 44.33907127 -0.13707352 C48.32653567 -0.15571228 52.31393692 -0.16090613 56.30144119 -0.16243744 C58.21118228 -0.16546109 60.12092232 -0.17347992 62.03062057 -0.18662262 C64.70421001 -0.2037109 67.3771591 -0.20179625 70.05078125 -0.1953125 C71.22926888 -0.20913467 71.22926888 -0.20913467 72.43156433 -0.22323608 C77.22117141 -0.18692009 80.51510521 0.49672564 84.65478516 3.16113281 C87.25389476 7.05979722 86.95018407 10.34410168 86.9453125 14.86767578 C86.95202972 15.75741089 86.95874695 16.647146 86.96566772 17.56384277 C86.98469347 20.51039182 86.98857426 23.45671363 86.99072266 26.40332031 C86.99714754 28.44971816 87.00387566 30.49611509 87.01089478 32.54251099 C87.02287909 36.83484019 87.02657442 41.12708884 87.02539062 45.41943359 C87.0251874 50.91982904 87.05248791 56.41970798 87.08693504 61.919981 C87.10917222 66.14761731 87.11322914 70.37512872 87.11217117 74.60281754 C87.11453199 76.63061427 87.12338249 78.65841419 87.13883591 80.68615341 C87.15843082 83.52307037 87.15268332 86.35886579 87.140625 89.19580078 C87.15186401 90.03337921 87.16310303 90.87095764 87.17468262 91.73391724 C87.13138237 95.74259447 86.95262838 97.69251692 84.74942017 101.15896606 C80.88711561 104.85076809 77.25446043 104.32803969 72.16943359 104.35400391 C71.29120438 104.3621814 70.41297516 104.37035889 69.50813293 104.37878418 C66.59348232 104.40365405 63.67888049 104.42015893 60.76416016 104.43457031 C59.76952003 104.43989399 58.77487991 104.44521767 57.75009918 104.45070267 C52.48477448 104.47744212 47.21947354 104.49681384 41.95410156 104.51123047 C36.51536549 104.52787355 31.07723593 104.5726464 25.6387291 104.62360191 C21.45739039 104.65726041 17.27619582 104.66880643 13.09473419 104.67445755 C11.09006367 104.68117467 9.08540278 104.69640865 7.08086395 104.72034836 C4.27264539 104.75197051 1.46606474 104.75204103 -1.34228516 104.74462891 C-2.58159035 104.76923691 -2.58159035 104.76923691 -3.84593201 104.79434204 C-7.71940812 104.75255277 -10.62067355 104.41845456 -13.86135864 102.18875122 C-17.22640819 98.08702989 -17.18331652 95.29494038 -17.08984375 90.13574219 C-17.09714508 89.23596146 -17.10444641 88.33618073 -17.11196899 87.40913391 C-17.12815727 84.4402777 -17.10098575 81.47361309 -17.07177734 78.50488281 C-17.07073982 76.43892417 -17.07177647 74.37296353 -17.07479858 72.30700684 C-17.07461924 67.97927331 -17.0537841 63.65228576 -17.01757812 59.32470703 C-16.97220254 53.77942353 -16.9711161 48.23522976 -16.98461342 42.68981171 C-16.99129882 38.42436042 -16.97802217 34.15915726 -16.95835495 29.89375305 C-16.95066064 27.84924112 -16.94835052 25.80470156 -16.95152664 23.76017761 C-16.95226906 20.90175874 -16.92700163 18.04473284 -16.89453125 15.18652344 C-16.89948608 14.34273636 -16.90444092 13.49894928 -16.9095459 12.6295929 C-16.83836215 8.70024505 -16.60966581 6.60598973 -14.56088257 3.1595459 C-10.35988228 -0.62953035 -5.4130765 0.00766241 0 0 Z " fill="#000000" transform="translate(154.34521484375,137.8388671875)"/>
<path d="M0 0 C0.88973511 -0.00832352 1.77947021 -0.01664703 2.69616699 -0.02522278 C5.64270379 -0.04935367 8.58901935 -0.05809859 11.53564453 -0.06469727 C13.58204211 -0.07366111 15.628439 -0.08278291 17.67483521 -0.09205627 C21.96715896 -0.10855713 26.2594046 -0.11624841 30.55175781 -0.11914062 C36.05225399 -0.1245261 41.55201635 -0.16220851 47.05230522 -0.20788479 C51.27994468 -0.23762508 55.50740677 -0.24486352 59.73514175 -0.24586678 C61.76295458 -0.25007495 63.79076765 -0.26253309 65.81847763 -0.28338432 C68.65557585 -0.31023623 71.49096466 -0.30549184 74.328125 -0.29296875 C75.16570343 -0.30780304 76.00328186 -0.32263733 76.86624146 -0.33792114 C81.15523022 -0.28400151 82.80142899 -0.07929754 86.29129028 2.65635681 C89.67401742 7.13368674 89.44178986 11.17075828 89.4387207 16.55395508 C89.44207932 17.39492233 89.44543793 18.23588959 89.44889832 19.1023407 C89.45840869 21.88652009 89.4603515 24.67063935 89.46142578 27.45483398 C89.4646384 29.38912989 89.46800248 31.32342555 89.47151184 33.25772095 C89.4775034 37.31464196 89.47935172 41.37154167 89.47875977 45.4284668 C89.47865817 50.62603482 89.49230809 55.82346618 89.50953197 61.02100182 C89.5206528 65.01700467 89.52267894 69.0129745 89.52215004 73.00899124 C89.52333012 74.92513118 89.52775345 76.84127198 89.53548241 78.7573967 C89.54528346 81.43837797 89.54240372 84.11906275 89.53637695 86.80004883 C89.54199646 87.59087357 89.54761597 88.3816983 89.55340576 89.19648743 C89.52389546 94.36454595 89.19553807 98.14627112 85.7197113 102.09364319 C82.07128144 103.91729597 78.46344906 103.7318826 74.47338867 103.71044922 C73.58350754 103.71731247 72.6936264 103.72417572 71.77677917 103.73124695 C68.8355615 103.74954625 65.89487566 103.74567292 62.95361328 103.73999023 C60.90864386 103.7445506 58.86367598 103.74985573 56.81871033 103.75587463 C52.53231583 103.76481194 48.24610758 103.76237559 43.9597168 103.75244141 C38.46716762 103.74095221 32.97526137 103.76115953 27.48279667 103.79035854 C23.25943417 103.80870645 19.03622613 103.80843086 14.81283379 103.80272102 C12.78783707 103.80256763 10.76283001 103.80862682 8.73787117 103.8210125 C5.90581077 103.83589356 3.07494304 103.82526653 0.24291992 103.80810547 C-0.59308746 103.81777344 -1.42909485 103.82744141 -2.29043579 103.83740234 C-6.29349903 103.78661941 -8.2425643 103.60154353 -11.7033844 101.40003967 C-15.38688918 97.5501474 -14.86081975 93.96617295 -14.86767578 88.89697266 C-14.87264069 88.02689072 -14.87760559 87.15680878 -14.88272095 86.26036072 C-14.89736145 83.37335426 -14.90414801 80.48640276 -14.90966797 77.59936523 C-14.91541825 75.59637958 -14.921176 73.59339394 -14.92694092 71.59040833 C-14.93745654 67.38627872 -14.94329541 63.18216826 -14.94677734 58.97802734 C-14.9522606 53.59092668 -14.97628274 48.20407896 -15.0047493 42.81705761 C-15.0233742 38.67779298 -15.02858122 34.53858926 -15.03011322 30.39928627 C-15.03314105 28.41335989 -15.04117394 26.42743462 -15.0542984 24.4415493 C-15.0713543 21.66217199 -15.06947965 18.88341233 -15.06298828 16.10400391 C-15.07220306 15.28355591 -15.08141785 14.46310791 -15.09091187 13.61779785 C-15.05731805 9.02580297 -14.69206113 6.02685899 -11.70654297 2.30639648 C-7.80991165 -0.29135773 -4.52206597 0.00357129 0 0 Z " fill="#000000" transform="translate(28.70654296875,14.693603515625)"/>
</svg>
