<?xml version="1.0" encoding="UTF-8"?>
<svg version="1.1" xmlns="http://www.w3.org/2000/svg" width="256" height="256">
<path d="M0 0 C4.64335937 13.9300781 0.89768342 32.20444108 -3 46 C-3.32218506 47.18215088 -3.32218506 47.18215088 -3.65087891 48.38818359 C-12.96567976 81.70111652 -31.26075756 112.07559115 -55 137 C-56.01513672 138.09441406 -56.01513672 138.09441406 -57.05078125 139.2109375 C-59.94089993 142.23868088 -62.48009341 144.69715441 -66.125 146.8203125 C-72.18269565 150.2609229 -72.18269565 150.2609229 -75.58300781 156.0625 C-76.21629807 160.94729257 -76.06167677 165.83251593 -75.97070312 170.74707031 C-76.15216298 184.70133292 -84.23797067 196.60529443 -93.875 206 C-102.84170492 213.61410028 -113.86031 218.70308769 -125.0625 222.0625 C-126.07860352 222.36837036 -126.07860352 222.36837036 -127.11523438 222.68041992 C-131.91761069 223.9939763 -136.07559791 224.49504571 -141 224 C-142.76489258 222.53710938 -142.76489258 222.53710938 -144 220 C-144.17008453 216.97314575 -143.81083829 214.03976386 -143.453125 211.03515625 C-143.36246765 210.16483261 -143.2718103 209.29450897 -143.17840576 208.39781189 C-142.88466609 205.61742419 -142.56737792 202.84027815 -142.25 200.0625 C-142.05059168 198.19612231 -141.85265815 196.32958642 -141.65625 194.46289062 C-140.09603546 179.89319219 -140.09603546 179.89319219 -139 175 C-139.56847656 175.03480469 -140.13695312 175.06960937 -140.72265625 175.10546875 C-141.49480469 175.13253906 -142.26695312 175.15960938 -143.0625 175.1875 C-143.81660156 175.22230469 -144.57070312 175.25710937 -145.34765625 175.29296875 C-153.69003308 174.37149855 -158.24111193 169.28883166 -163.8125 163.5 C-164.57498047 162.72785156 -165.33746094 161.95570313 -166.12304688 161.16015625 C-173.39721898 153.73805669 -175.06283853 149.25315359 -175 139 C-176.86918091 139.23505249 -176.86918091 139.23505249 -178.77612305 139.47485352 C-183.40633482 140.05497633 -188.03778467 140.62463342 -192.66967773 141.19116211 C-194.67295998 141.43766258 -196.67589681 141.68698749 -198.6784668 141.93920898 C-201.55951838 142.30157394 -204.44166564 142.65371239 -207.32421875 143.00390625 C-208.66355721 143.17570152 -208.66355721 143.17570152 -210.029953 143.35096741 C-218.13017764 144.31644108 -218.13017764 144.31644108 -222 143 C-224 141 -224 141 -224.2890625 137.453125 C-224.16029028 132.61216244 -222.8932261 128.32001861 -221.375 123.75 C-220.96677002 122.50101929 -220.96677002 122.50101929 -220.55029297 121.22680664 C-214.64004543 103.64765252 -204.67537647 88.88687728 -188 80 C-181.4523109 77.13407857 -174.70422382 75.92054572 -167.5625 76.00390625 C-159.0349439 76.322999 -159.0349439 76.322999 -151.453125 73.13671875 C-149.43562231 70.52313572 -147.74445098 67.80225635 -146 65 C-144.26174004 62.94691586 -142.5207701 60.96229791 -140.6875 59 C-140.21723389 58.49299561 -139.74696777 57.98599121 -139.26245117 57.46362305 C-113.17322951 29.62888596 -77.36663951 12.13023068 -41 2 C-40.32598145 1.80792969 -39.65196289 1.61585937 -38.95751953 1.41796875 C-27.60649288 -1.70512811 -11.31971086 -3.77323695 0 0 Z M-93 60 C-97.5462182 65.73106827 -99.44966182 70.08947523 -99.33984375 77.49609375 C-98.48963209 83.76029688 -95.26080314 89.20981497 -90.625 93.4375 C-85.4210068 97.39657241 -80.12594597 99.7397649 -73.53125 99.46875 C-66.11128624 98.09468264 -59.61299313 94.62932295 -55.3125 88.375 C-51.81103877 82.48758732 -51.31509651 76.74977353 -52 70 C-53.83992996 62.78091174 -57.93806536 58.16758007 -64 54 C-73.98336716 49.00831642 -85.94986466 51.61605527 -93 60 Z " fill="#000000" transform="translate(239,17)"/>
<path d="M0 0 C0.84708238 2.39113127 1.15143365 3.59033213 0.2578125 6.0078125 C-0.11601563 6.70648438 -0.48984375 7.40515625 -0.875 8.125 C-3.47698207 13.66558421 -5.04971793 19.21188747 -3.37109375 25.26953125 C-1.27382597 29.99935273 1.23917613 32.75432836 6 35 C12.75842494 36.86797158 18.60299949 35.62115364 25 33 C25.99 32.34 26.98 31.68 28 31 C30.1875 31.375 30.1875 31.375 32 32 C31.72758987 40.44471392 29.19692591 46.72060175 23.2109375 52.82421875 C14.31960548 60.08730272 3.05338316 61.79372274 -8 63.25 C-9.19367187 63.42273438 -10.38734375 63.59546875 -11.6171875 63.7734375 C-18.79141501 64.76244479 -25.7602186 65.23270726 -33 65 C-33.15373642 57.95008723 -32.58805824 51.17702239 -31.6875 44.1875 C-31.48229736 42.59301025 -31.48229736 42.59301025 -31.27294922 40.96630859 C-27.5851713 13.38206849 -27.5851713 13.38206849 -17.02734375 5.25 C-11.65671028 1.93862676 -6.3602044 -0.29424433 0 0 Z " fill="#000000" transform="translate(56,168)"/>
</svg>
