<?xml version="1.0" encoding="UTF-8"?>
<svg version="1.1" xmlns="http://www.w3.org/2000/svg" width="256" height="256">
<path d="M0 0 C1.34724705 0.98117438 2.68221236 1.97960129 4 3 C5.5778125 4.175625 5.5778125 4.175625 7.1875 5.375 C10.66036232 8.61633817 13.30720957 12.10311629 16 16 C16.44472656 16.60585938 16.88945312 17.21171875 17.34765625 17.8359375 C26.02670784 30.41658108 26.97090977 46.34821922 24.67041016 61.11572266 C23.85446896 64.92709233 22.57588309 68.4438954 21 72 C20.649375 72.80179687 20.29875 73.60359375 19.9375 74.4296875 C13.12419617 88.10360977 -0.63787661 98.95452667 -11.28149414 109.68652344 C-13.21823243 111.641071 -15.14607725 113.60378708 -17.06665039 115.57421875 C-38.24290193 137.28702038 -38.24290193 137.28702038 -50 142 C-50.66 142 -51.32 142 -52 142 C-52.13535156 142.54527344 -52.27070313 143.09054688 -52.41015625 143.65234375 C-55.67640114 155.09398005 -64.497079 162.80118132 -72.71875 170.984375 C-73.74601851 172.01299481 -74.77299032 173.04191101 -75.79968262 174.07110596 C-77.93793424 176.21228431 -80.0797047 178.34985959 -82.22412109 180.48486328 C-84.95756594 183.20688605 -87.68189155 185.93783179 -90.40364838 188.67153549 C-92.51739168 190.79253928 -94.63591657 192.90871568 -96.75587463 195.02350616 C-97.7619508 196.0282589 -98.7665733 197.03446961 -99.76963806 198.0422287 C-106.83729597 205.13571516 -113.13064298 211.26655389 -122.6875 214.75 C-123.78449219 215.15734375 -124.88148437 215.5646875 -126.01171875 215.984375 C-140.2870656 220.83612687 -157.63959913 219.50914829 -171.16455078 212.97998047 C-179.4161172 208.57431571 -186.40872158 202.48509854 -192 195 C-192.45890625 194.39929688 -192.9178125 193.79859375 -193.390625 193.1796875 C-201.88416608 180.95103498 -203.27335159 165.01449125 -201.609375 150.62109375 C-198.42864373 134.00381179 -187.87764881 122.854672 -176.25463867 111.36254883 C-173.91310923 109.03828913 -171.61175846 106.67856466 -169.31054688 104.31445312 C-167.82257364 102.82326114 -166.33241688 101.33424406 -164.83984375 99.84765625 C-164.15736069 99.14270523 -163.47487762 98.43775421 -162.77171326 97.71144104 C-157.93416965 93.01260116 -157.93416965 93.01260116 -153.07250977 92.94702148 C-150 94 -150 94 -149 96 C-148.92907158 98.2072923 -148.91584975 100.41667452 -148.9375 102.625 C-148.94652344 103.81351562 -148.95554688 105.00203125 -148.96484375 106.2265625 C-148.97644531 107.14179688 -148.98804688 108.05703125 -149 109 C-147.86111328 108.94779297 -147.86111328 108.94779297 -146.69921875 108.89453125 C-145.20841797 108.85392578 -145.20841797 108.85392578 -143.6875 108.8125 C-142.70136719 108.77769531 -141.71523437 108.74289063 -140.69921875 108.70703125 C-138 109 -138 109 -136.18359375 110.09375 C-134.41029224 112.94976035 -134.4544028 115.34897308 -134.375 118.6875 C-134.32085937 119.86699219 -134.26671875 121.04648438 -134.2109375 122.26171875 C-135.33822912 127.60240231 -138.19349507 130.2316127 -142 134 C-142.73605469 134.73871338 -143.47210938 135.47742676 -144.23046875 136.23852539 C-147.3837008 139.37019178 -150.5671102 142.46938779 -153.76757812 145.55273438 C-154.54166016 146.31263672 -155.31574219 147.07253906 -156.11328125 147.85546875 C-157.16189331 148.87096802 -157.16189331 148.87096802 -158.23168945 149.90698242 C-161.84747936 154.18672381 -162.37856295 158.37827734 -162.26171875 163.7890625 C-161.88549271 166.96733027 -160.6424795 169.2835916 -159 172 C-158.57847656 173.01707031 -158.57847656 173.01707031 -158.1484375 174.0546875 C-156.31433872 177.16142625 -153.90882182 177.54991906 -150.56640625 178.515625 C-145.59474179 179.45396045 -140.63656463 179.72385682 -136.26454163 176.86531067 C-131.17345716 173.07296205 -126.66875576 168.93380797 -122.21875 164.4140625 C-121.17031921 163.36138687 -121.17031921 163.36138687 -120.10070801 162.28744507 C-117.89568057 160.07133011 -115.6977567 157.84832323 -113.5 155.625 C-111.99525814 154.11021356 -110.490054 152.59588618 -108.984375 151.08203125 C-105.31755487 147.39330258 -101.6570833 143.69838115 -98 140 C-100.44312694 138.03727602 -102.8838272 136.08679795 -105.39453125 134.2109375 C-114.31782199 127.43557943 -122.4381811 118.86940039 -126 108 C-126.3571595 104.61394239 -126.32420479 101.38613893 -126 98 C-127.03125 98.515625 -128.0625 99.03125 -129.125 99.5625 C-132.73421007 101.11768808 -135.17438229 101.18411977 -139 100 C-140.87459701 96.25080597 -140.3573379 91.8144659 -140.4375 87.6875 C-140.48326172 86.73681641 -140.52902344 85.78613281 -140.57617188 84.80664062 C-140.6858845 77.980607 -140.6858845 77.980607 -138.79150391 75.2722168 C-136.00011519 72.83495948 -133.0209418 71.45168432 -129.5 70.4375 C-124.0595154 68.19783384 -122.85901981 64.32796493 -120.5859375 59.16015625 C-117.97108651 53.94977584 -114.01243261 50.16129183 -110 46 C-107.86367206 43.5496136 -105.74349013 41.08633797 -103.62890625 38.6171875 C-102 37 -102 37 -100 37 C-99.67 36.01 -99.34 35.02 -99 34 C-98.34 34 -97.68 34 -97 34 C-96.731875 33.360625 -96.46375 32.72125 -96.1875 32.0625 C-95 30 -95 30 -92 29 C-91.67 28.01 -91.34 27.02 -91 26 C-90.34 26 -89.68 26 -89 26 C-88.731875 25.360625 -88.46375 24.72125 -88.1875 24.0625 C-87 22 -87 22 -84 21 C-84 20.34 -84 19.68 -84 19 C-83.34 19 -82.68 19 -82 19 C-81.7628125 18.43796875 -81.525625 17.8759375 -81.28125 17.296875 C-79.71052303 14.48105958 -77.78528536 12.52044584 -75.5 10.25 C-74.7059375 9.45078125 -73.911875 8.6515625 -73.09375 7.828125 C-71 6 -71 6 -69 6 C-69 5.34 -69 4.68 -69 4 C-65.57672747 1.27647456 -61.79935014 -0.84611051 -58 -3 C-57.10539063 -3.51820312 -56.21078125 -4.03640625 -55.2890625 -4.5703125 C-38.32484892 -12.70383956 -15.50687924 -9.82866238 0 0 Z M-57.34375 47.24609375 C-58.32559265 48.23005882 -58.32559265 48.23005882 -59.32727051 49.23390198 C-61.38723823 51.29940145 -63.44367366 53.36837595 -65.5 55.4375 C-66.9086205 56.85114434 -68.31747267 58.26455786 -69.7265625 59.67773438 C-73.15372133 63.11583149 -76.57772019 66.55704656 -80 70 C-78.01966565 71.48814825 -76.03820713 72.97219919 -74.03515625 74.4296875 C-66.06378845 80.27009559 -58.7735056 87.24857306 -54 96 C-47.85375955 90.90764165 -42.2063253 85.38976208 -36.5625 79.75 C-35.64017578 78.83992188 -34.71785156 77.92984375 -33.76757812 76.9921875 C-32.89681641 76.12335938 -32.02605469 75.25453125 -31.12890625 74.359375 C-30.33556885 73.57014648 -29.54223145 72.78091797 -28.72485352 71.96777344 C-26.78027837 70.18545476 -26.78027837 70.18545476 -27 68 C-26.13955078 67.65775391 -26.13955078 67.65775391 -25.26171875 67.30859375 C-22.39615481 65.65062498 -20.84871207 63.66411429 -18.8125 61.0625 C-18.11769531 60.18722656 -17.42289063 59.31195313 -16.70703125 58.41015625 C-13.48485835 53.86077255 -13.49222935 49.3823689 -14 44 C-16.21497692 37.93795789 -19.75021521 34.18625016 -25.4375 31.1875 C-39.37442137 26.54185954 -48.4227944 38.25026115 -57.34375 47.24609375 Z M-130 82 C-130 83.98 -130 85.96 -130 88 C-124.06 87.505 -124.06 87.505 -118 87 C-117.34 89.64 -116.68 92.28 -116 95 C-114.824375 94.7525 -114.824375 94.7525 -113.625 94.5 C-103.56239816 93.11205492 -95.05448732 93.7483073 -86.75 100 C-85.49687136 100.99607661 -84.24650248 101.9956437 -83 103 C-78.52101088 106.16806548 -74.35109885 107.48982193 -68.80859375 106.6796875 C-66.35932663 106.16384323 -66.35932663 106.16384323 -63 105 C-62.67 104.34 -62.34 103.68 -62 103 C-63.0823777 100.68154559 -63.0823777 100.68154559 -64.6875 98.1875 C-65.20699219 97.33542969 -65.72648437 96.48335937 -66.26171875 95.60546875 C-73.94780937 84.08496887 -84.25336107 78.43721339 -97.56640625 75.41796875 C-109.02823509 73.44940425 -119.98698871 76.41582062 -130 82 Z M-175 125 C-184.37353668 134.4440144 -191.30590113 145.38244312 -191.41772461 159.0390625 C-191.40362549 159.83054688 -191.38952637 160.62203125 -191.375 161.4375 C-191.36412354 162.27152344 -191.35324707 163.10554688 -191.34204102 163.96484375 C-191.0141397 176.63544567 -186.37846358 186.48461001 -177.6875 195.8125 C-166.73654964 206.0056837 -154.78596378 208.71857805 -140.28125 208.28125 C-127.47008952 207.61284163 -117.50878561 201.29623107 -109 192 C-107.33333333 190.33333333 -105.66666667 188.66666667 -104 187 C-103.21625 186.195625 -102.4325 185.39125 -101.625 184.5625 C-99.64771378 182.63229202 -97.68311437 180.88208047 -95.5625 179.125 C-92.55434211 176.58666286 -90.03051913 173.86309609 -87.5546875 170.80859375 C-84.52212147 167.2807594 -81.11537305 164.10990414 -77.7734375 160.87890625 C-76.64053008 159.77353478 -75.50771889 158.66806467 -74.375 157.5625 C-73.80265625 157.01529297 -73.2303125 156.46808594 -72.640625 155.90429688 C-69.21248289 152.53594794 -66.91171469 149.49456326 -65 145 C-66.09699219 144.93941406 -67.19398438 144.87882812 -68.32421875 144.81640625 C-69.77865654 144.73195502 -71.23308305 144.64730934 -72.6875 144.5625 C-73.7693457 144.50352539 -73.7693457 144.50352539 -74.87304688 144.44335938 C-75.93168945 144.38051758 -75.93168945 144.38051758 -77.01171875 144.31640625 C-77.65584717 144.27974854 -78.29997559 144.24309082 -78.96362305 144.20532227 C-81 144 -81 144 -83.37023926 143.26972961 C-86.04288116 142.71506104 -86.04288116 142.71506104 -88.06599426 144.36465454 C-88.74135727 145.06238983 -89.41672028 145.76012512 -90.11254883 146.47900391 C-90.88717972 147.26377106 -91.66181061 148.04853821 -92.45991516 148.85708618 C-93.28396347 149.72151337 -94.10801178 150.58594055 -94.95703125 151.4765625 C-95.81882492 152.35396088 -96.68061859 153.23135925 -97.56852722 154.13534546 C-99.86292154 156.4742177 -102.14458555 158.82456769 -104.41949463 161.18237305 C-107.6080363 164.48449682 -110.81158437 167.77182776 -114.02433777 171.05038452 C-115.73249138 172.79503549 -117.43256444 174.54764608 -119.12324524 176.30923462 C-127.03634964 184.42007134 -133.23129982 189.0991 -144.75 189.25 C-153.22113169 189.16221625 -159.08393517 187.65128931 -165.39453125 181.875 C-171.23605896 175.05277786 -173.58046111 166.85203185 -173 158 C-170.77216053 145.67534679 -162.24744913 137.96751524 -153.5625 129.5625 C-151.93432015 127.9850818 -150.31036851 126.40328338 -148.69140625 124.81640625 C-147.62708374 123.78688843 -147.62708374 123.78688843 -146.54125977 122.73657227 C-144.77873472 121.13767677 -144.77873472 121.13767677 -145 119 C-149.29 118.67 -153.58 118.34 -158 118 C-158.495 114.535 -158.495 114.535 -159 111 C-163.54094295 111 -171.76120241 121.85453701 -175 125 Z " fill="#000000" transform="translate(216,23)"/>
<path d="M0 0 C3.48997715 2.49863085 6.3715193 5.62893154 9.375 8.6875 C10.20644531 9.49123047 11.03789063 10.29496094 11.89453125 11.12304688 C12.67957031 11.91130859 13.46460937 12.69957031 14.2734375 13.51171875 C14.98935059 14.22803467 15.70526367 14.94435059 16.44287109 15.68237305 C18.45223592 18.67310686 18.52206996 20.46769044 18 24 C14.73897111 26.17401926 13.78225071 26.52328988 10 26 C7.79589844 24.44287109 7.79589844 24.44287109 5.609375 22.2734375 C4.81789063 21.48839844 4.02640625 20.70335938 3.2109375 19.89453125 C2.39882813 19.06308594 1.58671875 18.23164062 0.75 17.375 C-0.07757813 16.56675781 -0.90515625 15.75851563 -1.7578125 14.92578125 C-2.54414062 14.13300781 -3.33046875 13.34023437 -4.140625 12.5234375 C-4.85766602 11.80075684 -5.57470703 11.07807617 -6.31347656 10.33349609 C-8.34932703 7.51666651 -8.76665008 5.44279971 -9 2 C-6.78202608 -2.04454068 -4.01221331 -1.02210747 0 0 Z " fill="#000000" transform="translate(38,68)"/>
<path d="M0 0 C4.67745185 0.12047662 8.86126976 1.26084389 13.3046875 2.6484375 C14.44164062 2.98101562 14.44164062 2.98101562 15.6015625 3.3203125 C21.15704719 5.00079719 21.15704719 5.00079719 23.4296875 7.2734375 C23.7421875 9.7109375 23.7421875 9.7109375 23.4296875 12.2734375 C22.140625 13.93359375 22.140625 13.93359375 20.4296875 15.2734375 C11.77050508 15.2734375 3.56406041 11.97824125 -4.5703125 9.2734375 C-5.1953125 5.8984375 -5.1953125 5.8984375 -5.5703125 2.2734375 C-3.5703125 0.2734375 -3.5703125 0.2734375 0 0 Z " fill="#000000" transform="translate(22.5703125,97.7265625)"/>
<path d="M0 0 C3.07239396 0.37468219 3.63322029 0.97408904 5.5625 3.3125 C6.78344889 6.15394782 7.50653511 9.14197612 8.3125 12.125 C8.66248047 13.31706055 8.66248047 13.31706055 9.01953125 14.53320312 C10.28850276 19.12657605 10.89458707 22.59839188 9.5625 27.3125 C8.5625 28.3125 8.5625 28.3125 5.6875 28.5625 C2.5625 28.3125 2.5625 28.3125 1.00390625 27.28125 C-1.15277423 24.33554008 -1.80524313 21.05842814 -2.625 17.5625 C-2.80224609 16.8715625 -2.97949219 16.180625 -3.16210938 15.46875 C-4.24438986 11.02262475 -4.79044656 6.91816334 -4.4375 2.3125 C-2.4375 0.3125 -2.4375 0.3125 0 0 Z " fill="#000000" transform="translate(64.4375,54.6875)"/>
</svg>
