<?xml version="1.0" encoding="UTF-8"?>
<svg version="1.1" xmlns="http://www.w3.org/2000/svg" width="256" height="256">
<path d="M0 0 C2.44646291 2.14892012 4.72740591 4.36969243 6.9765625 6.72265625 C7.523125 7.23828125 8.0696875 7.75390625 8.6328125 8.28515625 C15.84153696 15.64725783 22.17857067 28.43188657 22.9765625 38.72265625 C23.0796875 39.94339844 23.1828125 41.16414063 23.2890625 42.421875 C23.81951006 52.76935563 23.81951006 52.76935563 20.61000061 56.39903259 C16.21900431 59.81442141 11.53908054 59.4158293 6.18530273 59.35375977 C5.10981171 59.36091507 4.03432068 59.36807037 2.92623901 59.3754425 C-0.62122341 59.39232201 -4.16742095 59.37293099 -7.71484375 59.3515625 C-10.18293869 59.3523912 -12.65103357 59.3548506 -15.11912537 59.35887146 C-20.28816365 59.3617289 -25.45676849 59.34703154 -30.62573242 59.31958008 C-37.2526823 59.28548036 -43.87885802 59.29152242 -50.50584507 59.31024265 C-55.60078896 59.32080817 -60.69555254 59.31187903 -65.79047966 59.29685783 C-68.23412478 59.29167353 -70.67778871 59.29216081 -73.12143135 59.29840279 C-76.53522408 59.30384999 -79.94790607 59.28349443 -83.36157227 59.25610352 C-84.37210159 59.26262939 -85.38263092 59.26915527 -86.42378235 59.27587891 C-90.81296417 59.21596521 -93.32436757 59.1524632 -97.12730408 56.8143158 C-101.04401528 52.49371986 -100.29348748 48.13574999 -100.23046875 42.515625 C-99.38528444 27.0312105 -91.88943953 14.43721574 -81.0234375 3.72265625 C-80.38664062 3.07554687 -79.74984375 2.4284375 -79.09375 1.76171875 C-70.97839763 -5.94954968 -60.81810124 -9.90605696 -50.0234375 -12.27734375 C-49.0334375 -12.50421875 -48.0434375 -12.73109375 -47.0234375 -12.96484375 C-29.94082393 -14.74428266 -13.7244176 -10.33764271 0 0 Z " fill="#000000" transform="translate(167.0234375,131.27734375)"/>
<path d="M0 0 C3 2 3 2 5 5 C5.82802122 9.20910788 6.03598631 11.39297304 3.703125 15.01171875 C1.89530618 17.12222283 -0.01281317 19.05780608 -2 21 C-2.68320313 21.72960937 -3.36640625 22.45921875 -4.0703125 23.2109375 C-7.53178145 26.85666716 -10.11485916 29.45485961 -15 31 C-19.32437201 31 -20.67941044 30.29968155 -23.875 27.3125 C-26 24 -26 24 -26.75 21.125 C-25.57894562 16.24560675 -22.47235248 13.49760595 -19 10 C-17.81277344 8.77410156 -17.81277344 8.77410156 -16.6015625 7.5234375 C-7.94058222 -1.30571715 -7.94058222 -1.30571715 0 0 Z " fill="#000000" transform="translate(207,97)"/>
<path d="M0 0 C4.29969126 1.23875864 7.05297998 4.47725907 10.1015625 7.60546875 C10.91625 8.39695312 11.7309375 9.1884375 12.5703125 10.00390625 C19.90690482 17.17797912 19.90690482 17.17797912 20.4765625 21.35546875 C19.96247082 25.81092994 18.34408351 27.5744165 15.1015625 30.60546875 C11.52530524 31.89900861 9.8696883 31.90924732 6.3359375 30.51171875 C2.36319863 28.17029778 -0.52651312 25.3435865 -3.7109375 22.04296875 C-4.29552734 21.45322266 -4.88011719 20.86347656 -5.48242188 20.25585938 C-10.77448183 14.86568475 -10.77448183 14.86568475 -11.2734375 9.79296875 C-11.21171067 6.40416605 -10.88710541 5.58847061 -8.8984375 2.60546875 C-5.82466697 0.5562884 -3.72451 -0.2580653 0 0 Z " fill="#000000" transform="translate(55.8984375,96.39453125)"/>
<path d="M0 0 C3.38939556 2.13679285 4.72582557 3.1774767 6 7 C6.2557918 10.62061659 6.23131941 14.24629503 6.25 17.875 C6.270625 18.86886719 6.29125 19.86273438 6.3125 20.88671875 C6.36193995 30.11963005 6.36193995 30.11963005 3 34 C-0.7373856 36.4915904 -2.57331583 36.45793285 -7 36 C-10.38939556 33.86320715 -11.72582557 32.8225233 -13 29 C-13.2557918 25.37938341 -13.23131941 21.75370497 -13.25 18.125 C-13.270625 17.13113281 -13.29125 16.13726562 -13.3125 15.11328125 C-13.36193995 5.88036995 -13.36193995 5.88036995 -10 2 C-6.2626144 -0.4915904 -4.42668417 -0.45793285 0 0 Z " fill="#000000" transform="translate(132,66)"/>
<path d="M0 0 C1.09376953 -0.02900391 2.18753906 -0.05800781 3.31445312 -0.08789062 C11.40316916 -0.15196942 11.40316916 -0.15196942 15.38671875 2.20703125 C17.74187843 4.96067782 18.15347044 5.95178665 18.5 9.625 C18.13768869 13.90027346 17.22603708 15.36077827 14.1875 18.3125 C9.62469699 19.83343434 5.09205432 19.53789483 0.3125 19.5625 C-0.68136719 19.583125 -1.67523437 19.60375 -2.69921875 19.625 C-11.84285185 19.67396189 -11.84285185 19.67396189 -15.8125 16.3125 C-18.13652951 13.10312591 -18.28820691 10.19743979 -17.8125 6.3125 C-12.96802567 -0.95421149 -8.1204209 0.07102409 0 0 Z " fill="#000000" transform="translate(31.8125,170.6875)"/>
<path d="M0 0 C1.09376953 -0.02900391 2.18753906 -0.05800781 3.31445312 -0.08789062 C11.31095913 -0.15123894 11.31095913 -0.15123894 15.4140625 2.01953125 C18.05258116 5.43100802 17.82370027 7.79606107 17.62109375 11.96484375 C17.1875 14.3125 17.1875 14.3125 15.3125 16.875 C10.51858761 20.11794073 6.02838975 19.53363777 0.375 19.5625 C-0.62337891 19.583125 -1.62175781 19.60375 -2.65039062 19.625 C-11.93990315 19.67451106 -11.93990315 19.67451106 -15.8125 16.3125 C-18.3040904 12.5751144 -18.27043285 10.73918417 -17.8125 6.3125 C-13.05270648 -0.98585007 -8.06590884 0.07054731 0 0 Z " fill="#000000" transform="translate(224.8125,170.6875)"/>
</svg>
