<?xml version="1.0" encoding="UTF-8"?>
<svg version="1.1" xmlns="http://www.w3.org/2000/svg" width="256" height="256">
<path d="M0 0 C1.05260513 -0.00997513 2.10521027 -0.01995026 3.18971252 -0.03022766 C4.33421875 -0.03089233 5.47872498 -0.03155701 6.65791321 -0.03224182 C8.47833885 -0.0447271 8.47833885 -0.0447271 10.33554077 -0.0574646 C13.65819488 -0.07741568 16.98059853 -0.08820275 20.30329108 -0.09329104 C22.38304013 -0.09694128 24.46276534 -0.10318491 26.54250526 -0.11029243 C33.8095009 -0.1347752 41.07642532 -0.14783541 48.34346008 -0.15138245 C55.09809448 -0.15501254 61.85227306 -0.18487259 68.60676831 -0.22678703 C74.42015645 -0.26158586 80.2333943 -0.27693257 86.04688579 -0.27762848 C89.51258502 -0.27841832 92.97782003 -0.2870195 96.44341087 -0.31562614 C100.31586856 -0.34687682 104.18768214 -0.33770136 108.06025696 -0.32521057 C109.19464203 -0.34004486 110.3290271 -0.35487915 111.49778748 -0.37016296 C118.85147705 -0.30285397 124.58934342 0.9988942 130.68257141 5.27415466 C136.25468459 11.14900545 138.92634755 16.69042042 138.94999695 24.85784912 C138.95452806 25.50576154 138.95905917 26.15367397 138.96372759 26.8212201 C138.97635106 28.98439719 138.97475259 31.14732185 138.97309875 33.31053162 C138.97908534 34.86477481 138.98589118 36.41901502 138.99345398 37.97325134 C139.01110892 42.190316 139.01580917 46.40729947 139.01708555 50.62439752 C139.0185081 53.26093084 139.02277968 55.89744358 139.02807999 58.53397179 C139.04657922 67.73733707 139.05475081 76.94064445 139.05317688 86.14402771 C139.0519758 94.71405582 139.07307186 103.28383195 139.10466421 111.8537963 C139.13084384 119.21872905 139.14154346 126.5835796 139.14026606 133.94855851 C139.13975688 138.3441254 139.14541536 142.73946836 139.16662216 147.13498878 C139.18603285 151.27110978 139.1861099 155.40679391 139.1715889 159.5429306 C139.16950313 161.05699746 139.17418789 162.57109185 139.18630981 164.08511162 C139.2582391 173.69498185 138.77527151 180.40715995 132.37007141 188.02415466 C126.57935027 192.87220027 121.21736353 195.38463977 113.63725281 195.42132568 C112.11089203 195.43205864 112.11089203 195.43205864 110.55369568 195.44300842 C109.44299713 195.44569733 108.33229858 195.44838623 107.1879425 195.45115662 C106.01348572 195.45772781 104.83902893 195.46429901 103.62898254 195.47106934 C99.73799792 195.49079686 95.84702681 195.50246956 91.95600891 195.51243591 C90.61275335 195.51648579 89.26949798 195.52060278 87.92624283 195.524786 C81.61191289 195.54382974 75.29759456 195.55806048 68.98324144 195.56639796 C61.7137187 195.576157 54.44450154 195.60244466 47.17508638 195.64289886 C41.54432027 195.67314962 35.91364129 195.68787542 30.28279555 195.69117898 C26.92549306 195.69352001 23.56877561 195.70435551 20.21151352 195.72764015 C16.45861928 195.75204861 12.70651722 195.75106263 8.9535675 195.74412537 C7.85501434 195.75693542 6.75646118 195.76974548 5.62461853 195.78294373 C-2.64075778 195.72746411 -9.70687279 194.25678772 -16.19242859 188.89915466 C-21.0811719 182.8601188 -23.43380977 178.73307989 -23.47132874 170.94442749 C-23.47571099 170.29963505 -23.48009324 169.65484261 -23.48460829 168.990511 C-23.49798246 166.82585995 -23.50417211 164.66124961 -23.51029968 162.49656677 C-23.51820196 160.94586504 -23.52647099 159.39516514 -23.53507996 157.84446716 C-23.56129323 152.74682876 -23.57661043 147.64918218 -23.59086609 142.55149841 C-23.59622672 140.79498858 -23.60160423 139.0384788 -23.60699844 137.28196907 C-23.62862929 129.972255 -23.6473637 122.66254312 -23.65862083 115.35280514 C-23.67484395 104.88800191 -23.70797941 94.42357093 -23.76502168 83.95890802 C-23.80378425 76.59569485 -23.82326119 69.23258097 -23.8285414 61.86926848 C-23.83218723 57.47464675 -23.84412569 53.08042211 -23.87664413 48.68591118 C-23.90683499 44.54648498 -23.91299776 40.40769381 -23.90126038 36.26818085 C-23.90104053 34.75493814 -23.90927125 33.24166503 -23.92691422 31.72852516 C-24.02250134 23.05306789 -23.6637507 15.4979572 -18.31742859 8.27415466 C-12.94561144 3.21066288 -7.51690728 0.03834859 0 0 Z M11.68257141 44.27415466 C10.02397541 47.08311529 10.02397541 47.08311529 9.68257141 50.27415466 C10.99124205 53.2186636 11.77660004 54.82116898 14.68257141 56.27415466 C17.37132119 56.39334478 20.03497032 56.45250502 22.72480774 56.46702576 C23.5558754 56.47520325 24.38694305 56.48338074 25.24319458 56.49180603 C28.00032323 56.51666934 30.75740038 56.53317811 33.51460266 56.54759216 C34.92569085 56.55557768 34.92569085 56.55557768 36.36528587 56.56372452 C41.34416769 56.59045974 46.3230244 56.60983374 51.30195618 56.62425232 C56.44710349 56.64090427 61.59161078 56.68568549 66.736516 56.73662376 C70.69048812 56.77026329 74.64430769 56.78182611 78.59840965 56.7874794 C80.49505698 56.79420064 82.39169396 56.80944532 84.28820229 56.83337021 C86.94338418 56.86495557 89.59683141 56.86506888 92.25215149 56.85765076 C93.03519653 56.87405609 93.81824158 56.89046143 94.62501526 56.90736389 C98.6460524 56.86139233 100.49036 56.42282053 103.70947266 53.93299866 C105.99294975 51.40773469 105.99294975 51.40773469 105.68257141 48.14915466 C104.68800967 45.28978966 104.09395667 44.03632081 101.68257141 42.27415466 C98.03944862 41.0597804 94.68749964 41.1186902 90.89399719 41.11302185 C90.10179779 41.10805695 89.30959839 41.10309204 88.49339294 41.09797668 C85.87154778 41.08336651 83.2497631 41.07655521 80.62788391 41.07102966 C78.80568948 41.06527756 76.98349506 41.05951984 75.16130066 41.05375671 C71.33977476 41.04325019 67.51826988 41.03740514 63.69673157 41.03392029 C58.80176896 41.02843426 53.90708434 41.00440246 49.01220894 40.97594833 C45.24781992 40.95731861 41.48349784 40.95211619 37.71906662 40.95058441 C35.91455947 40.94755845 34.11005348 40.9395318 32.30559158 40.92639923 C29.78015775 40.90933057 27.25540292 40.91122076 24.72993469 40.91770935 C23.98586365 40.90849457 23.2417926 40.89927979 22.47517395 40.88978577 C18.0413131 40.92544339 15.18386712 41.49860957 11.68257141 44.27415466 Z M12.68257141 75.27415466 C10.60280429 77.43486933 10.60280429 77.43486933 9.68257141 80.27415466 C10.26037481 83.88542593 10.88592758 85.64399331 13.77534485 87.92958069 C17.45884106 89.63317449 20.72118432 89.69493406 24.69819641 89.66233826 C25.49068787 89.66759521 26.28317932 89.67285217 27.09968567 89.67826843 C29.71084999 89.69143731 32.32140123 89.68274156 34.93257141 89.67259216 C36.75190854 89.6746138 38.57124487 89.67752598 40.39057922 89.68128967 C44.20022816 89.6857088 48.00966582 89.67929521 51.81929016 89.66526794 C56.6985506 89.64817629 61.57731595 89.65801967 66.45655823 89.67598534 C70.2123944 89.68683428 73.96811352 89.68337173 77.72395325 89.67560196 C79.52286335 89.67360302 81.32178414 89.67604846 83.12068176 89.68304062 C85.63638904 89.6906734 88.15129844 89.6790257 90.66694641 89.66233826 C91.77833984 89.6714473 91.77833984 89.6714473 92.91218567 89.68074036 C97.34260468 89.62639209 100.17326783 89.02215113 103.68257141 86.27415466 C105.99794737 83.45707272 105.99794737 83.45707272 105.49507141 80.27415466 C104.66430587 77.20671267 104.23990792 76.07376184 101.68257141 74.27415466 C97.86948528 72.94646266 93.95064988 73.12640187 89.96406555 73.12889099 C89.19122726 73.12553238 88.41838898 73.12217377 87.62213135 73.11871338 C85.07064705 73.10922443 82.5192285 73.10726138 79.96772766 73.10618591 C78.1918027 73.10297221 76.41587801 73.09960805 74.63995361 73.09609985 C70.9185576 73.09011395 67.19718479 73.08825943 63.4757843 73.08885193 C58.70982613 73.08895359 53.9440168 73.07529492 49.17809391 73.05807972 C45.51064369 73.04695644 41.84322944 73.04493281 38.17576408 73.04546165 C36.41871566 73.04428229 34.66166628 73.03986291 32.90463448 73.03212929 C30.44647436 73.0223216 27.98863723 73.02521034 25.5304718 73.03123474 C24.44477402 73.02280548 24.44477402 73.02280548 23.33714294 73.01420593 C19.35174616 73.03899988 16.22741182 73.4016708 12.68257141 75.27415466 Z M10.68257141 109.27415466 C9.59187625 112.23461296 9.5926835 113.88763664 10.30757141 116.96165466 C12.11799989 120.0064662 13.30179646 120.26557737 16.68257141 121.27415466 C19.42546133 121.46114461 22.06471828 121.54770386 24.80586243 121.53294373 C25.60971375 121.53644836 26.41356506 121.539953 27.24177551 121.54356384 C29.89009825 121.55234269 32.53815236 121.54654619 35.18647766 121.53977966 C37.03063 121.54112729 38.87478199 121.54306863 40.71893311 121.545578 C44.57981252 121.54852394 48.44059927 121.54424817 52.3014679 121.53489685 C57.25023289 121.52349464 62.19878112 121.53007001 67.14753819 121.54204178 C70.95392491 121.54926785 74.76026021 121.54696914 78.56664848 121.54178619 C80.39150455 121.54045218 82.21636528 121.54208872 84.0412159 121.5467453 C86.59049482 121.55182367 89.13942219 121.54408226 91.68867493 121.53294373 C92.4425499 121.53699219 93.19642487 121.54104065 93.97314453 121.54521179 C97.68352189 121.51517477 100.57532323 121.42077911 103.68257141 119.27415466 C105.58958916 116.73146433 105.68844901 115.41815574 105.55757141 112.21165466 C104.49990516 108.66091796 103.90345548 108.02726025 100.68257141 106.27415466 C97.84661606 105.98365681 95.23220139 105.86399937 92.39741516 105.88597107 C91.56444916 105.88071411 90.73148315 105.87545715 89.87327576 105.87004089 C87.12201646 105.85684548 84.37133652 105.86557728 81.62007141 105.87571716 C79.70722848 105.87369629 77.79438631 105.87078475 75.88154602 105.86701965 C71.87341473 105.86259692 67.86548406 105.86902574 63.8573761 105.88304138 C58.71904532 105.9001332 53.58118463 105.89029175 48.44287109 105.87232399 C44.49320431 105.8614848 40.54364902 105.86493312 36.59397888 105.87270737 C34.69934534 105.874709 32.80470169 105.8722514 30.91007996 105.86526871 C28.26235631 105.85765203 25.61539455 105.8692613 22.96772766 105.88597107 C21.79248032 105.87686203 21.79248032 105.87686203 20.5934906 105.86756897 C16.37745595 105.91687588 13.65400979 106.13390601 10.68257141 109.27415466 Z M11.68257141 140.27415466 C10.08833421 143.56201607 10.08833421 143.56201607 9.68257141 147.27415466 C10.98388415 150.26717396 11.74740128 151.8065696 14.68257141 153.27415466 C17.37132119 153.39334478 20.03497032 153.45250502 22.72480774 153.46702576 C23.5558754 153.47520325 24.38694305 153.48338074 25.24319458 153.49180603 C28.00032323 153.51666934 30.75740038 153.53317811 33.51460266 153.54759216 C34.92569085 153.55557768 34.92569085 153.55557768 36.36528587 153.56372452 C41.34416769 153.59045974 46.3230244 153.60983374 51.30195618 153.62425232 C56.44710349 153.64090427 61.59161078 153.68568549 66.736516 153.73662376 C70.69048812 153.77026329 74.64430769 153.78182611 78.59840965 153.7874794 C80.49505698 153.79420064 82.39169396 153.80944532 84.28820229 153.83337021 C86.94338418 153.86495557 89.59683141 153.86506888 92.25215149 153.85765076 C93.03519653 153.87405609 93.81824158 153.89046143 94.62501526 153.90736389 C98.62231648 153.86166369 100.49033663 153.42123357 103.70166016 150.96424866 C106.02183902 148.34382958 106.02183902 148.34382958 105.80757141 144.64915466 C105.00072237 141.22957346 105.00072237 141.22957346 102.6257019 139.58648682 C98.86631177 137.91018719 95.50529124 137.86129386 91.46748352 137.90184021 C90.65387863 137.89818954 89.84027374 137.89453888 89.00201416 137.89077759 C86.3211001 137.88269227 83.64079425 137.8962641 80.95991516 137.91087341 C79.0933431 137.91139221 77.22677049 137.91087374 75.36019897 137.90936279 C71.4521924 137.90945242 67.54439252 137.91986395 63.63642883 137.93797302 C58.62711651 137.96067553 53.61810569 137.96120043 48.60875607 137.95445538 C44.75603556 137.95111435 40.90338381 137.95774775 37.05067635 137.96758461 C35.20349551 137.97143341 33.35630702 137.97258615 31.50912285 137.97099876 C28.92868847 137.97062796 26.34864102 137.98325198 23.76826477 137.99949646 C22.62342621 137.99578033 22.62342621 137.99578033 21.45545959 137.99198914 C16.23495792 138.01602358 16.23495792 138.01602358 11.68257141 140.27415466 Z " fill="#000000" transform="translate(89.31742858886719,14.725845336914063)"/>
<path d="M0 0 C0.00238835 0.69315622 0.00477671 1.38631245 0.00723743 2.1004734 C0.06655438 19.02121205 0.14221003 35.94179252 0.23571491 52.86237526 C0.28054667 61.04528128 0.31998988 69.228145 0.34643555 77.41113281 C0.36951843 84.54925155 0.40302976 91.687235 0.44870156 98.82524621 C0.47249612 102.59949664 0.49131449 106.37361424 0.49761391 110.14793777 C0.50372788 113.71194532 0.52395014 117.2756136 0.55427551 120.83949471 C0.56704553 122.74759579 0.56550321 124.65577655 0.5632782 126.56391907 C0.72172381 141.37438373 3.23920659 154.72191093 13.44921875 165.81640625 C22.7297513 173.7609969 33.12545761 176.13287431 45.02270508 176.20532227 C46.02805298 176.21522186 47.03340088 176.22512146 48.06921387 176.23532104 C51.38596253 176.26686065 54.7027255 176.29166371 58.01953125 176.31640625 C60.32167428 176.33698228 62.62381358 176.35797893 64.9259491 176.37937927 C70.98067202 176.43453285 77.03542865 176.48397176 83.09020996 176.53222656 C89.2704569 176.5824906 95.45065497 176.63815107 101.63085938 176.69335938 C113.75386448 176.80085884 125.87691206 176.90232206 138 177 C137.67 177.66 137.34 178.32 137 179 C134.64668819 179.50931636 132.37470675 179.88149068 129.9921875 180.19140625 C128.85161644 180.35042168 128.85161644 180.35042168 127.68800354 180.51264954 C125.08489687 180.87229638 122.4801148 181.21771869 119.875 181.5625 C118.01696098 181.81426568 116.15897092 182.06639298 114.30102539 182.31884766 C107.53649756 183.23160222 100.76832647 184.11592997 94 185 C92.56731274 185.18777691 91.13463485 185.37562532 89.70196533 185.5635376 C79.41637651 186.91196828 69.12877381 188.24419294 58.83969879 189.56574631 C56.44345585 189.87423326 54.0474765 190.18469944 51.65155029 190.49563599 C47.82249533 190.99206056 43.99263196 191.4817438 40.16209221 191.96657372 C38.73998769 192.14753027 37.31814765 192.33058006 35.89660835 192.51592445 C22.54136491 194.25409547 12.9455437 195.4893109 1.25 188.3125 C-6.1982055 180.6573999 -7.23371938 171.48735493 -8.4375 161.3125 C-8.63890147 159.73284175 -8.84216067 158.15341942 -9.04711914 156.57421875 C-9.48532711 153.17515808 -9.91270182 149.77497562 -10.33203125 146.37353516 C-11.0091659 140.89548075 -11.71976858 135.42208467 -12.4375 129.94921875 C-12.5599408 129.01503616 -12.68238159 128.08085358 -12.80853271 127.11836243 C-13.05878529 125.20914024 -13.30909083 123.29992499 -13.55944824 121.39071655 C-13.93919169 118.48706471 -14.3162307 115.58307421 -14.69238281 112.67895508 C-16.81033658 96.33650165 -19.01866901 80.00708992 -21.25917053 63.68103027 C-21.48828556 62.01060553 -21.71692061 60.34011488 -21.9450531 58.66955566 C-22.56486936 54.13721332 -23.19687968 49.6068993 -23.84228516 45.078125 C-23.98136795 44.08985718 -24.12045074 43.10158936 -24.26374817 42.08337402 C-24.53077054 40.18642051 -24.80144683 38.28997631 -25.07646179 36.39416504 C-26.52525801 26.03252811 -26.36965916 17.67344622 -20.4375 8.75 C-14.9820949 1.96467028 -8.44501219 -0.12863878 0 0 Z " fill="#000000" transform="translate(50,48)"/>
</svg>
