<?xml version="1.0" encoding="UTF-8"?>
<svg version="1.1" xmlns="http://www.w3.org/2000/svg" width="256" height="256">
<path d="M0 0 C1.04955872 -0.00511093 2.09911743 -0.01022186 3.18048096 -0.01548767 C6.64340957 -0.02936537 10.10613871 -0.02842802 13.5690918 -0.02612305 C15.9827634 -0.03001139 18.39643433 -0.03434635 20.81010437 -0.03910828 C25.86805438 -0.04656689 30.92593459 -0.04628208 35.98388672 -0.04101562 C42.45336767 -0.03522606 48.92256186 -0.05214163 55.39199543 -0.0753603 C60.37724976 -0.09012107 65.36243544 -0.09096605 70.34770775 -0.08785057 C72.73223627 -0.08836275 75.11676875 -0.09358102 77.50127602 -0.10366249 C80.8421837 -0.11605265 84.18253811 -0.10921894 87.5234375 -0.09765625 C88.50088425 -0.10529999 89.47833099 -0.11294373 90.48539734 -0.12081909 C98.68736351 -0.05834253 106.33895493 1.5822735 112.94799805 6.70043945 C116.8772424 10.80273342 118.35903429 15.47499198 118.65893555 21.05200195 C118.56612246 25.35200741 117.79409908 29.35889727 116.76831055 33.5246582 C116.58896973 34.26409668 116.40962891 35.00353516 116.22485352 35.76538086 C110.50135144 58.37983507 96.70172361 75.37540679 80.29956055 91.34887695 C79.58155273 92.05125488 78.86354492 92.75363281 78.1237793 93.47729492 C76.70865754 94.85448887 75.28451524 96.22249126 73.8503418 97.57983398 C68.63048172 102.65484038 65.92415095 106.70356266 64.95581055 114.0871582 C65.34441755 122.45840068 70.51629411 128.9422036 76.38549805 134.4543457 C78.38688681 136.21405733 80.41331953 137.93793497 82.45581055 139.6496582 C83.44581055 140.5159082 84.43581055 141.3821582 85.45581055 142.2746582 C85.45581055 142.9346582 85.45581055 143.5946582 85.45581055 144.2746582 C86.11581055 144.2746582 86.77581055 144.2746582 87.45581055 144.2746582 C90.03865085 146.7034086 92.21015842 149.536865 94.45581055 152.2746582 C95.24858398 153.23114258 96.04135742 154.18762695 96.8581543 155.1730957 C109.35171918 170.59476404 120.10470314 190.8283901 118.45581055 211.2746582 C117.28217276 216.9081196 114.96096385 220.29775701 110.56518555 223.95043945 C103.74340255 228.23300322 98.23072807 228.70956463 90.30737305 228.6628418 C88.65484528 228.67072723 88.65484528 228.67072723 86.96893311 228.67877197 C83.33941327 228.69193957 79.71033459 228.68324499 76.08081055 228.6730957 C73.55167558 228.67511736 71.02254118 228.67802956 68.4934082 228.68179321 C63.19761049 228.6862122 57.90196983 228.68008684 52.60620117 228.66577148 C46.4968514 228.64944685 40.38780205 228.65473612 34.27845955 228.6712507 C28.38432456 228.68654153 22.49028234 228.6848767 16.59613037 228.6761055 C14.09551959 228.67410664 11.59490112 228.67655169 9.09429932 228.68354416 C5.59741003 228.691177 2.10109468 228.67952785 -1.39575195 228.6628418 C-2.4255719 228.66891449 -3.45539185 228.67498718 -4.51641846 228.6812439 C-12.32198813 228.61236978 -17.86336047 227.20837847 -23.85668945 221.8996582 C-24.84088867 221.05274414 -24.84088867 221.05274414 -25.8449707 220.1887207 C-29.92272254 215.59539105 -29.97203167 210.65380867 -29.85668945 204.77856445 C-27.35721422 176.75319844 -9.14245141 152.40258187 11.45581055 134.2746582 C12.11581055 134.2746582 12.77581055 134.2746582 13.45581055 134.2746582 C13.78581055 133.2846582 14.11581055 132.2946582 14.45581055 131.2746582 C15.23956055 130.5115332 16.02331055 129.7484082 16.83081055 128.9621582 C22.21121372 123.4536502 22.80472877 118.8193962 22.9519043 111.37231445 C21.89467413 104.77086941 17.81406907 100.269656 13.1315918 95.76293945 C12.37304146 95.02142891 12.37304146 95.02142891 11.59916687 94.26493835 C9.46716774 92.18116123 7.31788768 90.11559453 5.16894531 88.04931641 C-12.99008591 70.52754224 -28.93906706 48.18500197 -29.98168945 22.0246582 C-29.92066234 15.28879053 -28.27285569 11.07607315 -23.54418945 6.2746582 C-16.39073299 0.6735178 -8.72203627 -0.0219702 0 0 Z M-5.54418945 21.2746582 C-6.18299409 34.85335174 -2.55960128 47.22516393 5.45581055 58.2746582 C6.01526367 59.0480957 6.5747168 59.8215332 7.15112305 60.6184082 C10.2690528 64.77564787 13.24863129 68.17463138 17.45581055 71.2746582 C18.61506109 72.42757404 19.77278331 73.58207889 20.92163086 74.74536133 C24.05306929 77.86683338 27.29469844 80.87401311 30.51831055 83.8996582 C31.22536133 84.56739258 31.93241211 85.23512695 32.66088867 85.9230957 C33.34731445 86.56762695 34.03374023 87.2121582 34.7409668 87.8762207 C35.3585083 88.45710449 35.9760498 89.03798828 36.61230469 89.63647461 C40.42245167 93.2657552 40.42245167 93.2657552 45.34643555 94.3059082 C49.27501858 93.00296107 51.49129158 90.75987712 54.20581055 87.7746582 C59.3002286 82.35244918 59.3002286 82.35244918 61.45581055 81.2746582 C61.45581055 80.6146582 61.45581055 79.9546582 61.45581055 79.2746582 C62.04064209 79.01289795 62.62547363 78.7511377 63.22802734 78.48144531 C76.21929255 71.44409475 87.11947023 55.72117915 91.6784668 42.04418945 C93.43460784 35.78738543 95.27062569 28.79317939 94.45581055 22.2746582 C93.22825009 20.56626882 93.22825009 20.56626882 91.45581055 19.2746582 C88.37843251 18.9833939 85.50424876 18.87543676 82.42626953 18.90234375 C81.50245483 18.89869308 80.57864014 18.89504242 79.62683105 18.89128113 C76.56833608 18.88316441 73.510369 18.89679414 70.4519043 18.91137695 C68.33105978 18.91189538 66.21021477 18.91137836 64.08937073 18.90986633 C59.64316644 18.9099561 55.19714329 18.9203964 50.75097656 18.93847656 C45.04191461 18.96117762 39.33311715 18.96170584 33.62402248 18.95495892 C29.24467097 18.95162332 24.86538014 18.95824106 20.48604012 18.96808815 C18.38042582 18.97194648 16.27480478 18.97308576 14.16918755 18.9715023 C11.23131228 18.97113292 8.29378083 18.98371584 5.35595703 19 C4.47954056 18.99752258 3.60312408 18.99504517 2.70014954 18.99249268 C-1.90076151 18.82176654 -1.90076151 18.82176654 -5.54418945 21.2746582 Z " fill="#000000" transform="translate(83.544189453125,13.725341796875)"/>
</svg>
