<?xml version="1.0" encoding="UTF-8"?>
<svg version="1.1" xmlns="http://www.w3.org/2000/svg" width="256" height="256">
<path d="M0 0 C2.49291686 2.37110718 3.43816054 5.18720383 4.54101562 8.36547852 C4.78425568 9.04446198 5.02749573 9.72344543 5.27810669 10.42300415 C5.78819309 11.8644935 6.29035634 13.30880746 6.78515625 14.75561523 C7.53808417 16.9359289 8.33436513 19.09675182 9.13476562 21.26000977 C12.26298761 30.05599169 13.25584399 36.38478829 10.67382812 45.59204102 C10.30819346 47.29589216 9.95102935 49.00158932 9.60351562 50.70922852 C9.07633016 53.10694609 8.54079329 55.50248548 7.99804688 57.89672852 C7.05326947 62.21571093 6.45901527 66.13825455 6.67382812 70.59204102 C7.33382812 70.92204102 7.99382812 71.25204102 8.67382812 71.59204102 C8.86132812 73.96704102 8.86132812 73.96704102 8.67382812 76.59204102 C7.68382812 77.25204102 6.69382813 77.91204102 5.67382812 78.59204102 C5.67382812 79.25204102 5.67382812 79.91204102 5.67382812 80.59204102 C6.33382812 80.92204102 6.99382812 81.25204102 7.67382812 81.59204102 C7.14313752 85.41301341 6.17681247 87.65375505 3.67382812 90.59204102 C4.33382812 91.91204102 4.99382812 93.23204102 5.67382812 94.59204102 C4.68189453 95.57043945 4.68189453 95.57043945 3.66992188 96.56860352 C2.82558594 97.44258789 1.98125 98.31657227 1.11132812 99.21704102 C0.26441406 100.07555664 -0.5825 100.93407227 -1.45507812 101.81860352 C-3.63208665 104.41579714 -3.63208665 104.41579714 -3.0793457 107.32470703 C-2.26948634 110.83794784 -1.26441719 114.21484493 -0.14648438 117.64282227 C0.06694611 118.30106491 0.28037659 118.95930756 0.50027466 119.63749695 C1.17913605 121.72783503 1.86390627 123.8161819 2.54882812 125.90454102 C3.00103553 127.29438993 3.45286171 128.68436295 3.90429688 130.07446289 C4.124505 130.75088837 4.34471313 131.42731384 4.57159424 132.12423706 C5.00676471 133.46142702 5.44098146 134.79892777 5.87420654 136.13674927 C6.77255745 138.89798199 7.69255164 141.64275873 8.69824219 144.36694336 C9.12314941 145.52057373 9.12314941 145.52057373 9.55664062 146.69750977 C9.80043457 147.32165771 10.04422852 147.94580566 10.29541016 148.58886719 C11.30085421 153.91123393 8.9472932 159.58664152 7.52929688 164.70141602 C7.31823807 165.46826721 7.10717926 166.23511841 6.88972473 167.02520752 C6.44331043 168.64265691 5.99525577 170.25965435 5.5456543 171.8762207 C4.86776744 174.31883836 4.19925723 176.76389329 3.53125 179.20922852 C1.32583305 187.20566328 -0.99365301 194.97674519 -4.32617188 202.59204102 C-10.76492477 202.03349569 -16.59482469 200.85703418 -22.77929688 199.01782227 C-24.54999281 198.51018131 -26.32083036 198.00303409 -28.09179688 197.49633789 C-30.8476043 196.69913626 -33.6017542 195.8970008 -36.35351562 195.0859375 C-39.03331687 194.29933981 -41.71813709 193.5323759 -44.40429688 192.76782227 C-45.22520813 192.52002518 -46.04611938 192.27222809 -46.89190674 192.016922 C-50.38305201 191.03415718 -52.60242529 190.41574297 -56.17358398 191.28564453 C-58.19884044 192.51476411 -59.9335988 193.73164847 -61.68945312 195.31860352 C-62.28967285 195.84873047 -62.88989258 196.37885742 -63.50830078 196.92504883 C-64.68365006 198.00284696 -65.84591167 199.0951723 -66.99169922 200.2043457 C-77.59338409 210.23321489 -87.83686172 211.75826882 -101.88867188 211.71704102 C-102.68002533 211.72193542 -103.47137878 211.72682983 -104.28671265 211.73187256 C-113.76567986 211.72524949 -120.93888604 211.0658085 -128.32617188 204.59204102 C-129.57185505 203.70096838 -130.82682424 202.822699 -132.09179688 201.95922852 C-133.25430674 201.12997148 -134.41578406 200.29926486 -135.57617188 199.46704102 C-136.16140625 199.05067383 -136.74664062 198.63430664 -137.34960938 198.20532227 C-137.92453125 197.79411133 -138.49945313 197.38290039 -139.09179688 196.95922852 C-139.64826904 196.56630615 -140.20474121 196.17338379 -140.77807617 195.76855469 C-142.32617188 194.59204102 -142.32617188 194.59204102 -144.73632812 192.19750977 C-147.35906719 190.21668232 -147.35906719 190.21668232 -151.11914062 190.90063477 C-152.59037112 191.25113627 -154.05520629 191.62923039 -155.51367188 192.02954102 C-156.29814697 192.22475342 -157.08262207 192.41996582 -157.89086914 192.62109375 C-160.37776919 193.24956924 -162.85188408 193.91573568 -165.32617188 194.59204102 C-166.12474609 194.80634766 -166.92332031 195.0206543 -167.74609375 195.24145508 C-174.09585008 196.95020216 -180.42618346 198.72204449 -186.72460938 200.61157227 C-187.68625 200.89387695 -188.64789063 201.17618164 -189.63867188 201.46704102 C-190.43917969 201.71196289 -191.2396875 201.95688477 -192.06445312 202.20922852 C-194.73445748 202.66114635 -196.70205602 202.17493643 -199.32617188 201.59204102 C-199.53709473 200.87886719 -199.74801758 200.16569336 -199.96533203 199.4309082 C-200.59902499 197.28879906 -201.23309263 195.14680073 -201.86743164 193.00488281 C-202.59344779 190.55108233 -203.31787954 188.09681254 -204.04077148 185.64208984 C-205.72576678 179.93222212 -207.42543428 174.23069575 -209.22851562 168.55688477 C-209.51065918 167.65808594 -209.79280273 166.75928711 -210.08349609 165.83325195 C-210.60698565 164.17294244 -211.14063269 162.51578963 -211.68603516 160.86254883 C-214.31155916 152.46885566 -211.61246044 145.87675061 -209.07617188 137.71704102 C-208.60800049 136.19361084 -208.60800049 136.19361084 -208.13037109 134.6394043 C-206.69844643 129.98840144 -205.25078287 125.34252112 -203.78710938 120.70141602 C-203.55926758 119.97809082 -203.33142578 119.25476563 -203.09667969 118.50952148 C-202.49186142 116.59578866 -201.88185892 114.68369645 -201.27148438 112.77172852 C-200.95953125 111.72243164 -200.64757812 110.67313477 -200.32617188 109.59204102 C-200.03484375 108.71676758 -199.74351562 107.84149414 -199.44335938 106.93969727 C-199.06750912 104.4376083 -199.06750912 104.4376083 -201.01367188 102.34594727 C-201.77679688 101.6227832 -202.53992188 100.89961914 -203.32617188 100.15454102 C-205.59179688 97.80297852 -205.59179688 97.80297852 -207.32617188 95.59204102 C-207.07617188 92.27954102 -207.07617188 92.27954102 -206.32617188 89.59204102 C-208.22203571 87.44614679 -208.22203571 87.44614679 -210.32617188 85.59204102 C-210.32617188 84.27204102 -210.32617188 82.95204102 -210.32617188 81.59204102 C-209.33617187 81.09704102 -209.33617187 81.09704102 -208.32617188 80.59204102 C-208.09771698 78.34841528 -208.09771698 78.34841528 -210.32617188 76.46704102 C-210.98617187 75.84829102 -211.64617187 75.22954102 -212.32617188 74.59204102 C-211.99617188 73.60204102 -211.66617188 72.61204102 -211.32617188 71.59204102 C-210.33617187 71.09704102 -210.33617187 71.09704102 -209.32617188 70.59204102 C-209.93325075 61.97724583 -211.72328766 53.80054493 -213.7734375 45.42602539 C-215.27476042 38.77001866 -215.48489363 34.05522929 -213.32617188 27.59204102 C-212.99560791 26.56328857 -212.66504395 25.53453613 -212.32446289 24.47460938 C-211.17684243 20.99893753 -209.97794567 17.54495227 -208.76367188 14.09204102 C-208.35181641 12.90094727 -207.93996094 11.70985352 -207.515625 10.48266602 C-204.46267494 1.72854408 -204.46267494 1.72854408 -203.32617188 0.59204102 C-198.9593718 0.29887751 -195.78223864 0.90738221 -191.73242188 2.50610352 C-190.6416333 2.93109131 -189.55084473 3.3560791 -188.42700195 3.79394531 C-186.64459106 4.49837769 -186.64459106 4.49837769 -184.82617188 5.21704102 C-183.53498644 5.70483136 -182.24288284 6.19019707 -180.94995117 6.67333984 C-174.56755713 9.07378048 -168.28265416 11.56694015 -162.10598755 14.46061707 C-131.54693808 28.68080279 -92.11061024 33.11698162 -59.62646484 22.38549805 C-55.05560902 20.57605163 -50.63120108 18.54409639 -46.21289062 16.39086914 C-38.83865929 12.88170496 -31.09637955 10.17312498 -23.45269775 7.31716919 C-20.74907531 6.29760589 -18.05840866 5.24888354 -15.36865234 4.19335938 C-13.7167205 3.55867731 -12.06455085 2.92461378 -10.41210938 2.29125977 C-9.65321411 1.98770569 -8.89431885 1.68415161 -8.11242676 1.37139893 C-5.26791472 0.30086704 -3.03994031 -0.53313815 0 0 Z " fill="#EF7F1C" transform="translate(229.326171875,23.407958984375)"/>
<path d="M0 0 C1.27182867 3.64548687 2.54227857 7.29145283 3.8125 10.9375 C4.16892578 11.95908203 4.52535156 12.98066406 4.89257812 14.03320312 C5.59898086 16.06168071 6.30165465 18.09146094 7.00048828 20.12255859 C7.63314971 21.94389412 8.28074645 23.76016833 8.94873047 25.56884766 C10.48924144 29.84111493 11.41274993 32.93625033 10.5 37.5 C10.29632813 38.57636719 10.09265625 39.65273437 9.8828125 40.76171875 C9.75036133 41.3964209 9.61791016 42.03112305 9.48144531 42.68505859 C8.87858314 45.58381068 8.31140575 48.48898833 7.7421875 51.39453125 C6.51981191 57.60152198 5.26782499 63.80214699 4 70 C5.98 70.99 5.98 70.99 8 72 C6.7625 73.175625 6.7625 73.175625 5.5 74.375 C2.77011494 76.63721264 2.77011494 76.63721264 3 79 C4.485 79.99 4.485 79.99 6 81 C4.62845496 83.95409701 3.01136276 86.44008376 1 89 C1.99 89.99 2.98 90.98 4 92 C1.03 95.63 -1.94 99.26 -5 103 C-15.8463739 101.19227102 -26.41192407 97.96566296 -36.92724609 94.77734375 C-40.91080596 93.5755892 -44.86293737 92.60629031 -48.9375 91.75 C-54.32558192 90.30342597 -57.5294559 87.31291713 -61.46484375 83.46484375 C-64.05248833 80.94896743 -66.74852537 78.69572442 -69.5625 76.4375 C-73.13327613 73.53306528 -76.69300659 70.62106253 -80.1875 67.625 C-80.92355469 66.99851562 -81.65960938 66.37203125 -82.41796875 65.7265625 C-84 64 -84 64 -84 61 C-82.50976562 59.56469727 -82.50976562 59.56469727 -80.40625 58.06640625 C-79.63152344 57.50630859 -78.85679687 56.94621094 -78.05859375 56.36914062 C-77.21425781 55.77294922 -76.36992187 55.17675781 -75.5 54.5625 C-73.73909264 53.29364946 -71.97868318 52.02410766 -70.21875 50.75390625 C-69.33445313 50.11984863 -68.45015625 49.48579102 -67.5390625 48.83251953 C-63.98888988 46.27025072 -60.49238019 43.64018756 -57 41 C-46.36131389 32.99326311 -35.61970861 25.125674 -24.88671875 17.24609375 C-24.04729736 16.62911621 -23.20787598 16.01213867 -22.34301758 15.37646484 C-20.75641827 14.2103324 -19.16907684 13.04520864 -17.58081055 11.88134766 C-12.91946761 8.45435835 -8.35556263 4.93318495 -3.85205078 1.30053711 C-2 0 -2 0 0 0 Z " fill="#763D16" transform="translate(229,25)"/>
<path d="M0 0 C3.32202238 1.00667345 5.59293516 2.39368111 8.13671875 4.6796875 C12.16907443 8.20107775 16.4235995 11.3515196 20.75 14.5 C22.4336369 15.733014 24.11722934 16.96608871 25.80078125 18.19921875 C26.65881348 18.82618652 27.5168457 19.4531543 28.40087891 20.09912109 C32.58687937 23.16057137 36.76244696 26.23614513 40.9375 29.3125 C41.73833008 29.90224609 42.53916016 30.49199219 43.36425781 31.09960938 C48.5127047 34.89410242 53.6356544 38.72085516 58.74609375 42.56640625 C63.16659894 45.88142434 67.61559761 49.15803421 72.0625 52.4375 C73.31450195 53.36175781 73.31450195 53.36175781 74.59179688 54.3046875 C75.37748047 54.88347656 76.16316406 55.46226563 76.97265625 56.05859375 C77.67656494 56.57736084 78.38047363 57.09612793 79.10571289 57.63061523 C80.71086699 58.79098504 82.35199888 59.90133259 84 61 C83.47647311 65.01671494 81.62345231 66.59104839 78.625 69.1875 C77.72265625 69.97253906 76.8203125 70.75757812 75.890625 71.56640625 C72.1501053 74.71551946 68.3821879 77.82427167 64.5546875 80.8671875 C62.0377388 82.87680363 62.0377388 82.87680363 60.1953125 84.9453125 C54.1373657 91.39409458 46.13521745 92.36308676 37.84619141 94.29492188 C31.5341717 95.85857884 25.32438736 97.80814065 19.09765625 99.67773438 C16.40477148 100.47662352 13.70481966 101.24274873 11 102 C9.87980469 102.33386719 8.75960937 102.66773437 7.60546875 103.01171875 C5 103 5 103 2.4453125 100.91015625 C1.67960937 99.97042969 0.91390625 99.03070313 0.125 98.0625 C-0.65617187 97.12535156 -1.43734375 96.18820313 -2.2421875 95.22265625 C-3.11230469 94.12244141 -3.11230469 94.12244141 -4 93 C-3 90 -3 90 -1 88 C-2.65 86.35 -4.3 84.7 -6 83 C-5.67 82.01 -5.34 81.02 -5 80 C-4.01 79.505 -4.01 79.505 -3 79 C-2.77011494 76.63721264 -2.77011494 76.63721264 -5.5 74.375 C-6.325 73.59125 -7.15 72.8075 -8 72 C-6.02 71.01 -6.02 71.01 -4 70 C-4.2172876 68.97116699 -4.4345752 67.94233398 -4.65844727 66.88232422 C-5.4650432 63.04908846 -6.25743146 59.2130287 -7.0456543 55.37597656 C-7.38816332 53.71860176 -7.734473 52.06200751 -8.0847168 50.40625 C-8.58874051 48.02020319 -9.07883473 45.63164341 -9.56640625 43.2421875 C-9.72468399 42.50757294 -9.88296173 41.77295837 -10.04603577 41.01608276 C-11.32009907 34.65331535 -10.5201466 29.94778416 -8.1875 24 C-6.08999079 18.43969376 -4.48018343 12.80067838 -2.9296875 7.06640625 C-2.15305443 4.50482238 -1.29391052 2.33018398 0 0 Z " fill="#763D16" transform="translate(27,25)"/>
<path d="M0 0 C2.49291686 2.37110718 3.43816054 5.18720383 4.54101562 8.36547852 C4.78425568 9.04446198 5.02749573 9.72344543 5.27810669 10.42300415 C5.78819309 11.8644935 6.29035634 13.30880746 6.78515625 14.75561523 C7.53808417 16.9359289 8.33436513 19.09675182 9.13476562 21.26000977 C12.26298761 30.05599169 13.25584399 36.38478829 10.67382812 45.59204102 C10.30819346 47.29589216 9.95102935 49.00158932 9.60351562 50.70922852 C9.07633016 53.10694609 8.54079329 55.50248548 7.99804688 57.89672852 C7.05326947 62.21571093 6.45901527 66.13825455 6.67382812 70.59204102 C7.33382812 70.92204102 7.99382812 71.25204102 8.67382812 71.59204102 C8.86132812 73.96704102 8.86132812 73.96704102 8.67382812 76.59204102 C7.68382812 77.25204102 6.69382813 77.91204102 5.67382812 78.59204102 C5.67382812 79.25204102 5.67382812 79.91204102 5.67382812 80.59204102 C6.33382812 80.92204102 6.99382812 81.25204102 7.67382812 81.59204102 C7.14313752 85.41301341 6.17681247 87.65375505 3.67382812 90.59204102 C4.33382812 91.91204102 4.99382812 93.23204102 5.67382812 94.59204102 C4.68189453 95.57043945 4.68189453 95.57043945 3.66992188 96.56860352 C2.82558594 97.44258789 1.98125 98.31657227 1.11132812 99.21704102 C0.26441406 100.07555664 -0.5825 100.93407227 -1.45507812 101.81860352 C-3.63208665 104.41579714 -3.63208665 104.41579714 -3.0793457 107.32470703 C-2.26948634 110.83794784 -1.26441719 114.21484493 -0.14648438 117.64282227 C0.06694611 118.30106491 0.28037659 118.95930756 0.50027466 119.63749695 C1.17913605 121.72783503 1.86390627 123.8161819 2.54882812 125.90454102 C3.00103553 127.29438993 3.45286171 128.68436295 3.90429688 130.07446289 C4.124505 130.75088837 4.34471313 131.42731384 4.57159424 132.12423706 C5.00676471 133.46142702 5.44098146 134.79892777 5.87420654 136.13674927 C6.77255745 138.89798199 7.69255164 141.64275873 8.69824219 144.36694336 C9.12314941 145.52057373 9.12314941 145.52057373 9.55664062 146.69750977 C9.80043457 147.32165771 10.04422852 147.94580566 10.29541016 148.58886719 C11.30085421 153.91123393 8.9472932 159.58664152 7.52929688 164.70141602 C7.31823807 165.46826721 7.10717926 166.23511841 6.88972473 167.02520752 C6.44331043 168.64265691 5.99525577 170.25965435 5.5456543 171.8762207 C4.86776744 174.31883836 4.19925723 176.76389329 3.53125 179.20922852 C1.32583305 187.20566328 -0.99365301 194.97674519 -4.32617188 202.59204102 C-10.76492477 202.03349569 -16.59482469 200.85703418 -22.77929688 199.01782227 C-24.54999281 198.51018131 -26.32083036 198.00303409 -28.09179688 197.49633789 C-30.8476043 196.69913626 -33.6017542 195.8970008 -36.35351562 195.0859375 C-39.03331687 194.29933981 -41.71813709 193.5323759 -44.40429688 192.76782227 C-45.22520813 192.52002518 -46.04611938 192.27222809 -46.89190674 192.016922 C-50.38305201 191.03415718 -52.60242529 190.41574297 -56.17358398 191.28564453 C-58.19884044 192.51476411 -59.9335988 193.73164847 -61.68945312 195.31860352 C-62.28967285 195.84873047 -62.88989258 196.37885742 -63.50830078 196.92504883 C-64.68365006 198.00284696 -65.84591167 199.0951723 -66.99169922 200.2043457 C-77.59338409 210.23321489 -87.83686172 211.75826882 -101.88867188 211.71704102 C-102.68002533 211.72193542 -103.47137878 211.72682983 -104.28671265 211.73187256 C-113.76567986 211.72524949 -120.93888604 211.0658085 -128.32617188 204.59204102 C-129.57185505 203.70096838 -130.82682424 202.822699 -132.09179688 201.95922852 C-133.25430674 201.12997148 -134.41578406 200.29926486 -135.57617188 199.46704102 C-136.16140625 199.05067383 -136.74664062 198.63430664 -137.34960938 198.20532227 C-137.92453125 197.79411133 -138.49945313 197.38290039 -139.09179688 196.95922852 C-139.64826904 196.56630615 -140.20474121 196.17338379 -140.77807617 195.76855469 C-142.32617188 194.59204102 -142.32617188 194.59204102 -144.73632812 192.19750977 C-147.35906719 190.21668232 -147.35906719 190.21668232 -151.11914062 190.90063477 C-152.59037112 191.25113627 -154.05520629 191.62923039 -155.51367188 192.02954102 C-156.29814697 192.22475342 -157.08262207 192.41996582 -157.89086914 192.62109375 C-160.37776919 193.24956924 -162.85188408 193.91573568 -165.32617188 194.59204102 C-166.12474609 194.80634766 -166.92332031 195.0206543 -167.74609375 195.24145508 C-174.09585008 196.95020216 -180.42618346 198.72204449 -186.72460938 200.61157227 C-187.68625 200.89387695 -188.64789063 201.17618164 -189.63867188 201.46704102 C-190.43917969 201.71196289 -191.2396875 201.95688477 -192.06445312 202.20922852 C-194.73445748 202.66114635 -196.70205602 202.17493643 -199.32617188 201.59204102 C-199.53709473 200.87886719 -199.74801758 200.16569336 -199.96533203 199.4309082 C-200.59902499 197.28879906 -201.23309263 195.14680073 -201.86743164 193.00488281 C-202.59344779 190.55108233 -203.31787954 188.09681254 -204.04077148 185.64208984 C-205.72576678 179.93222212 -207.42543428 174.23069575 -209.22851562 168.55688477 C-209.51065918 167.65808594 -209.79280273 166.75928711 -210.08349609 165.83325195 C-210.60698565 164.17294244 -211.14063269 162.51578963 -211.68603516 160.86254883 C-214.31155916 152.46885566 -211.61246044 145.87675061 -209.07617188 137.71704102 C-208.60800049 136.19361084 -208.60800049 136.19361084 -208.13037109 134.6394043 C-206.69844643 129.98840144 -205.25078287 125.34252112 -203.78710938 120.70141602 C-203.55926758 119.97809082 -203.33142578 119.25476563 -203.09667969 118.50952148 C-202.49186142 116.59578866 -201.88185892 114.68369645 -201.27148438 112.77172852 C-200.95953125 111.72243164 -200.64757812 110.67313477 -200.32617188 109.59204102 C-200.03484375 108.71676758 -199.74351562 107.84149414 -199.44335938 106.93969727 C-199.06750912 104.4376083 -199.06750912 104.4376083 -201.01367188 102.34594727 C-201.77679688 101.6227832 -202.53992188 100.89961914 -203.32617188 100.15454102 C-205.59179688 97.80297852 -205.59179688 97.80297852 -207.32617188 95.59204102 C-207.07617188 92.27954102 -207.07617188 92.27954102 -206.32617188 89.59204102 C-208.22203571 87.44614679 -208.22203571 87.44614679 -210.32617188 85.59204102 C-210.32617188 84.27204102 -210.32617188 82.95204102 -210.32617188 81.59204102 C-209.33617187 81.09704102 -209.33617187 81.09704102 -208.32617188 80.59204102 C-208.09771698 78.34841528 -208.09771698 78.34841528 -210.32617188 76.46704102 C-210.98617187 75.84829102 -211.64617187 75.22954102 -212.32617188 74.59204102 C-211.99617188 73.60204102 -211.66617188 72.61204102 -211.32617188 71.59204102 C-210.33617187 71.09704102 -210.33617187 71.09704102 -209.32617188 70.59204102 C-209.93325075 61.97724583 -211.72328766 53.80054493 -213.7734375 45.42602539 C-215.27476042 38.77001866 -215.48489363 34.05522929 -213.32617188 27.59204102 C-212.99560791 26.56328857 -212.66504395 25.53453613 -212.32446289 24.47460938 C-211.17684243 20.99893753 -209.97794567 17.54495227 -208.76367188 14.09204102 C-208.35181641 12.90094727 -207.93996094 11.70985352 -207.515625 10.48266602 C-204.46267494 1.72854408 -204.46267494 1.72854408 -203.32617188 0.59204102 C-198.9593718 0.29887751 -195.78223864 0.90738221 -191.73242188 2.50610352 C-190.6416333 2.93109131 -189.55084473 3.3560791 -188.42700195 3.79394531 C-186.64459106 4.49837769 -186.64459106 4.49837769 -184.82617188 5.21704102 C-183.53498644 5.70483136 -182.24288284 6.19019707 -180.94995117 6.67333984 C-174.56755713 9.07378048 -168.28265416 11.56694015 -162.10598755 14.46061707 C-131.54693808 28.68080279 -92.11061024 33.11698162 -59.62646484 22.38549805 C-55.05560902 20.57605163 -50.63120108 18.54409639 -46.21289062 16.39086914 C-38.83865929 12.88170496 -31.09637955 10.17312498 -23.45269775 7.31716919 C-20.74907531 6.29760589 -18.05840866 5.24888354 -15.36865234 4.19335938 C-13.7167205 3.55867731 -12.06455085 2.92461378 -10.41210938 2.29125977 C-9.65321411 1.98770569 -8.89431885 1.68415161 -8.11242676 1.37139893 C-5.26791472 0.30086704 -3.03994031 -0.53313815 0 0 Z M-202.32617188 1.59204102 C-205.52169419 9.47607558 -208.21688713 17.28014186 -210.43164062 25.49829102 C-211.32617188 28.59204102 -211.32617188 28.59204102 -212.47460938 31.17016602 C-213.5095922 34.11369515 -213.30737515 35.77675323 -212.76367188 38.84204102 C-212.56902344 39.95450195 -212.374375 41.06696289 -212.17382812 42.21313477 C-211.89461034 43.67341168 -211.61152251 45.13295012 -211.32617188 46.59204102 C-211.13007324 47.5976709 -210.93397461 48.60330078 -210.73193359 49.6394043 C-209.29519572 56.96347074 -207.82195052 64.27982025 -206.32617188 71.59204102 C-208.30617187 72.58204102 -208.30617187 72.58204102 -210.32617188 73.59204102 C-209.50117188 74.37579102 -208.67617187 75.15954102 -207.82617188 75.96704102 C-205.32617188 78.59204102 -205.32617188 78.59204102 -205.32617188 80.59204102 C-206.81117188 81.58204102 -206.81117188 81.58204102 -208.32617188 82.59204102 C-206.95462684 85.54613802 -205.33753464 88.03212478 -203.32617188 90.59204102 C-204.81117188 91.58204102 -204.81117188 91.58204102 -206.32617188 92.59204102 C-204.90550891 95.90692126 -203.15559852 97.741894 -200.51367188 100.15454102 C-197.31428291 103.77962831 -197.31428291 103.77962831 -197.36132812 106.99438477 C-198.17359011 109.94604716 -199.22026772 112.73718301 -200.32617188 115.59204102 C-201.11049728 118.08885545 -201.88005277 120.58755033 -202.63867188 123.09204102 C-204.03656596 127.60377422 -205.48944177 132.09140296 -207.01757812 136.56079102 C-207.43753052 137.81666016 -207.43753052 137.81666016 -207.8659668 139.09790039 C-208.40860927 140.71837262 -208.96408061 142.33462532 -209.53442383 143.94555664 C-212.57588389 153.12419578 -209.91408469 160.56733447 -207.07617188 169.46704102 C-204.50382851 177.69668057 -202.05796848 185.93963786 -199.83691406 194.27124023 C-199.12968711 197.71326794 -199.12968711 197.71326794 -197.32617188 200.59204102 C-190.107248 200.07081907 -183.24312928 198.18164421 -176.26367188 196.34204102 C-175.05864014 196.02485107 -173.8536084 195.70766113 -172.61206055 195.38085938 C-158.71167779 191.67877564 -145.96590729 187.26569669 -133.22314453 180.58081055 C-130.27682975 179.04508663 -127.3014142 177.57092175 -124.32617188 176.09204102 C-122.67617187 175.26704102 -121.02617188 174.44204102 -119.32617188 173.59204102 C-119.65617187 179.86204102 -119.98617187 186.13204102 -120.32617188 192.59204102 C-119.66617188 192.26204102 -119.00617188 191.93204102 -118.32617188 191.59204102 C-115.79599112 191.49332224 -113.29397026 191.45218433 -110.76367188 191.45922852 C-110.01657959 191.45827179 -109.2694873 191.45731506 -108.49975586 191.45632935 C-106.91943274 191.45564853 -105.33910682 191.45749598 -103.75878906 191.46166992 C-101.33587378 191.46701959 -98.91314387 191.46172166 -96.49023438 191.45532227 C-94.9563798 191.45598306 -93.42252534 191.45726426 -91.88867188 191.45922852 C-91.16156006 191.45720428 -90.43444824 191.45518005 -89.68530273 191.45309448 C-84.55609548 191.47707921 -84.55609548 191.47707921 -82.32617188 192.59204102 C-82.65617188 186.32204102 -82.98617187 180.05204102 -83.32617188 173.59204102 C-79.98984435 175.14838946 -76.65717886 176.71187752 -73.32617188 178.27954102 C-71.92431641 178.93212891 -71.92431641 178.93212891 -70.49414062 179.59790039 C-66.27199898 181.59086935 -62.24207193 183.57299472 -58.38085938 186.20532227 C-53.46248729 189.38078215 -48.07199896 190.641408 -42.45117188 192.09204102 C-40.22846069 192.68688787 -38.00580483 193.28194149 -35.78320312 193.87719727 C-34.69217285 194.16481934 -33.60114258 194.45244141 -32.47705078 194.7487793 C-29.60745102 195.51676299 -26.75266646 196.32096922 -23.90039062 197.15063477 C-23.08876465 197.38524414 -22.27713867 197.61985352 -21.44091797 197.86157227 C-19.95415595 198.29293821 -18.46869284 198.72881839 -16.98486328 199.17016602 C-12.99331777 200.30811935 -9.47402755 200.80491697 -5.32617188 200.59204102 C-3.5884086 195.61452811 -1.94607746 190.60885513 -0.32617188 185.59204102 C0.04878418 184.43381836 0.42374023 183.2755957 0.81005859 182.08227539 C1.8662007 178.80352243 2.89861338 175.51783741 3.91995239 172.22808838 C4.3362909 170.89670222 4.75863864 169.56717905 5.18722534 168.23968506 C5.80098844 166.3337781 6.39004178 164.41997002 6.97851562 162.50610352 C7.32897949 161.39187012 7.67944336 160.27763672 8.04052734 159.12963867 C9.43597124 151.33473427 7.22562891 144.43095001 4.66210938 137.10375977 C4.06350275 135.32847004 3.46520427 133.5530764 2.8671875 131.77758789 C1.9240931 129.01297119 0.97617157 126.25014643 0.0222168 123.48925781 C-0.90232274 120.80242594 -1.80854634 118.10994365 -2.71289062 115.41625977 C-3.1502076 114.17715096 -3.1502076 114.17715096 -3.59635925 112.91300964 C-3.8535524 112.14153091 -4.11074554 111.37005219 -4.37573242 110.57519531 C-4.72428535 109.56334419 -4.72428535 109.56334419 -5.07987976 108.53105164 C-5.51882563 105.07531488 -3.57199563 102.92796308 -1.59960938 100.23266602 C-0.973125 99.44375977 -0.34664062 98.65485352 0.29882812 97.84204102 C0.93046875 97.04282227 1.56210938 96.24360352 2.21289062 95.42016602 C2.93605469 94.51524414 2.93605469 94.51524414 3.67382812 93.59204102 C2.68382812 92.27204102 1.69382813 90.95204102 0.67382812 89.59204102 C2.32382813 87.94204102 3.97382813 86.29204102 5.67382812 84.59204102 C5.34382812 83.60204102 5.01382813 82.61204102 4.67382812 81.59204102 C4.01382813 81.26204102 3.35382813 80.93204102 2.67382812 80.59204102 C2.67382812 78.59204102 2.67382812 78.59204102 5.17382812 75.96704102 C5.99882812 75.18329102 6.82382813 74.39954102 7.67382812 73.59204102 C6.35382813 72.93204102 5.03382813 72.27204102 3.67382812 71.59204102 C3.89111572 70.56320801 4.10840332 69.534375 4.33227539 68.47436523 C5.13887132 64.64112948 5.93125958 60.80506971 6.71948242 56.96801758 C7.06199145 55.31064278 7.40830112 53.65404853 7.75854492 51.99829102 C8.26256863 49.61224421 8.75266285 47.22368442 9.24023438 44.83422852 C9.39851212 44.09961395 9.55678986 43.36499939 9.71986389 42.60812378 C11.14243668 35.50368893 9.71782976 30.32885594 7.42382812 23.59204102 C7.20637939 22.95065186 6.98893066 22.3092627 6.76489258 21.6484375 C4.47717597 14.93621628 2.08812853 8.25961958 -0.32617188 1.59204102 C-7.7611875 3.49017151 -14.91403182 5.78269049 -22.07617188 8.52954102 C-23.07680664 8.90852539 -24.07744141 9.28750977 -25.10839844 9.67797852 C-31.29593174 12.02905339 -37.46821482 14.41926637 -43.63867188 16.81469727 C-44.69045624 17.22279884 -44.69045624 17.22279884 -45.76348877 17.6391449 C-49.23369965 18.98618003 -52.70252438 20.33659967 -56.16894531 21.69335938 C-57.44530014 22.1908683 -58.72166676 22.68834696 -59.99804688 23.18579102 C-61.12307617 23.62600586 -62.24810547 24.0662207 -63.40722656 24.51977539 C-67.78656206 26.12851088 -71.47344553 26.73760196 -76.15087891 26.86425781 C-77.91650681 26.91255989 -77.91650681 26.91255989 -79.71780396 26.96183777 C-84.46170486 27.05929056 -89.20551139 27.1390871 -93.95012093 27.19229412 C-97.52415238 27.23272347 -101.09533323 27.29173251 -104.66796875 27.40136719 C-123.72618703 27.97150456 -138.94220151 25.98573125 -156.56550598 17.81632996 C-160.90874731 15.89020687 -165.38191268 14.39665078 -169.88867188 12.90454102 C-176.97726619 10.48309644 -183.90761104 7.81030642 -190.77368164 4.81201172 C-194.62091623 3.16113356 -198.1669592 2.09423697 -202.32617188 1.59204102 Z " fill="#BFAD9E" transform="translate(229.326171875,23.407958984375)"/>
<path d="M0 0 C0.33 0 0.66 0 1 0 C1.05534912 1.1238208 1.11069824 2.2476416 1.16772461 3.40551758 C1.37605628 7.62324362 1.58738364 11.8408154 1.79956055 16.05834961 C1.89053182 17.87471587 1.98071873 19.69112161 2.07006836 21.50756836 C2.19953428 24.1366669 2.33193441 26.76560479 2.46484375 29.39453125 C2.50343002 30.1908345 2.5420163 30.98713776 2.58177185 31.80757141 C2.79767107 36.02107434 3.10805904 40.20588227 3.52734375 44.40429688 C4.05186856 49.99311286 4.12815394 55.52666092 4.09765625 61.13671875 C4.0962413 62.14217239 4.09482635 63.14762604 4.09336853 64.18354797 C4.0878326 67.35156404 4.07529266 70.51950579 4.0625 73.6875 C4.0574767 75.85351459 4.05291526 78.01953031 4.04882812 80.18554688 C4.03788428 85.45705602 4.02121154 90.7285227 4 96 C0.78599471 89.80237821 -0.36687524 82.97062947 0 76 C-0.804375 75.87044922 -0.804375 75.87044922 -1.625 75.73828125 C-7.34670899 74.71251434 -12.88123579 73.2488639 -18.4375 71.5625 C-19.13552734 71.35729736 -19.83355469 71.15209473 -20.55273438 70.94067383 C-26.92604577 68.95715907 -26.92604577 68.95715907 -29 66 C-29 65.34 -29 64.68 -29 64 C-29.56203125 63.7628125 -30.1240625 63.525625 -30.703125 63.28125 C-33.51894042 61.71052303 -35.47955416 59.78528536 -37.75 57.5 C-38.54921875 56.7059375 -39.3484375 55.911875 -40.171875 55.09375 C-42 53 -42 53 -42 51 C-42.99 50.67 -43.98 50.34 -45 50 C-43.39920025 45.349632 -40.91003766 41.54972465 -38.1875 37.5 C-37.54844727 36.52353516 -37.54844727 36.52353516 -36.89648438 35.52734375 C-32.63349509 29.14253377 -27.31847949 24.30818286 -21.5 19.375 C-20.89776611 18.8608252 -20.29553223 18.34665039 -19.67504883 17.81689453 C-16.53981641 15.1435545 -13.39132021 12.4867405 -10.23046875 9.84375 C-9.63492188 9.34439941 -9.039375 8.84504883 -8.42578125 8.33056641 C-7.28648676 7.37656729 -6.14464244 6.42560316 -5 5.47802734 C-2.07764666 3.09299948 -2.07764666 3.09299948 0 0 Z " fill="#E3751B" transform="translate(111,87)"/>
<path d="M0 0 C1.14855469 1.15991455 1.14855469 1.15991455 2.3203125 2.34326172 C5.09480616 5.09399422 8.00268066 7.6252485 11 10.125 C12.14324365 11.08592027 13.28647235 12.04685832 14.4296875 13.0078125 C15.01459961 13.49797852 15.59951172 13.98814453 16.20214844 14.49316406 C19.1811005 16.98991748 22.15386736 19.49395091 25.125 22 C25.66898438 22.45648926 26.21296875 22.91297852 26.7734375 23.38330078 C32.36909685 28.10110574 36.17464671 32.94410119 40.25 39 C40.8171875 39.81984375 41.384375 40.6396875 41.96875 41.484375 C42.49984375 42.27328125 43.0309375 43.0621875 43.578125 43.875 C44.06700195 44.59429687 44.55587891 45.31359375 45.05957031 46.0546875 C46 48 46 48 45 51 C44.34 51 43.68 51 43 51 C42.67 51.99 42.34 52.98 42 54 C41.34 54 40.68 54 40 54 C39.75636719 54.55042969 39.51273438 55.10085937 39.26171875 55.66796875 C34.35182465 64.74291234 27.71725715 69.20657959 18.10229492 72.26831055 C5.25398406 76 5.25398406 76 2 76 C-2.63302146 56.88514416 -2.01231909 39.11723807 -1 19.625 C-0.90332489 17.71355787 -0.80696852 15.8020996 -0.7109375 13.890625 C-0.47762603 9.26022262 -0.24002512 4.63005902 0 0 Z " fill="#E3751A" transform="translate(144,87)"/>
<path d="M0 0 C2.49291686 2.37110718 3.43816054 5.18720383 4.54101562 8.36547852 C4.78425568 9.04446198 5.02749573 9.72344543 5.27810669 10.42300415 C5.78819309 11.8644935 6.29035634 13.30880746 6.78515625 14.75561523 C7.53808417 16.9359289 8.33436513 19.09675182 9.13476562 21.26000977 C12.26298761 30.05599169 13.25584399 36.38478829 10.67382812 45.59204102 C10.30819346 47.29589216 9.95102935 49.00158932 9.60351562 50.70922852 C9.07633016 53.10694609 8.54079329 55.50248548 7.99804688 57.89672852 C7.05326947 62.21571093 6.45901527 66.13825455 6.67382812 70.59204102 C7.33382812 70.92204102 7.99382812 71.25204102 8.67382812 71.59204102 C8.86132812 73.96704102 8.86132812 73.96704102 8.67382812 76.59204102 C7.68382812 77.25204102 6.69382813 77.91204102 5.67382812 78.59204102 C5.67382812 79.25204102 5.67382812 79.91204102 5.67382812 80.59204102 C6.33382812 80.92204102 6.99382812 81.25204102 7.67382812 81.59204102 C7.14313752 85.41301341 6.17681247 87.65375505 3.67382812 90.59204102 C4.33382812 91.91204102 4.99382812 93.23204102 5.67382812 94.59204102 C4.68189453 95.57043945 4.68189453 95.57043945 3.66992188 96.56860352 C2.82558594 97.44258789 1.98125 98.31657227 1.11132812 99.21704102 C0.26441406 100.07555664 -0.5825 100.93407227 -1.45507812 101.81860352 C-3.63208665 104.41579714 -3.63208665 104.41579714 -3.0793457 107.32470703 C-2.26948634 110.83794784 -1.26441719 114.21484493 -0.14648438 117.64282227 C0.06694611 118.30106491 0.28037659 118.95930756 0.50027466 119.63749695 C1.17913605 121.72783503 1.86390627 123.8161819 2.54882812 125.90454102 C3.00103553 127.29438993 3.45286171 128.68436295 3.90429688 130.07446289 C4.124505 130.75088837 4.34471313 131.42731384 4.57159424 132.12423706 C5.00676471 133.46142702 5.44098146 134.79892777 5.87420654 136.13674927 C6.77255745 138.89798199 7.69255164 141.64275873 8.69824219 144.36694336 C9.12314941 145.52057373 9.12314941 145.52057373 9.55664062 146.69750977 C9.80043457 147.32165771 10.04422852 147.94580566 10.29541016 148.58886719 C11.30085421 153.91123393 8.9472932 159.58664152 7.52929688 164.70141602 C7.31823807 165.46826721 7.10717926 166.23511841 6.88972473 167.02520752 C6.44331043 168.64265691 5.99525577 170.25965435 5.5456543 171.8762207 C4.86776744 174.31883836 4.19925723 176.76389329 3.53125 179.20922852 C1.32583305 187.20566328 -0.99365301 194.97674519 -4.32617188 202.59204102 C-10.76492477 202.03349569 -16.59482469 200.85703418 -22.77929688 199.01782227 C-24.54999281 198.51018131 -26.32083036 198.00303409 -28.09179688 197.49633789 C-30.8476043 196.69913626 -33.6017542 195.8970008 -36.35351562 195.0859375 C-39.03331687 194.29933981 -41.71813709 193.5323759 -44.40429688 192.76782227 C-45.22520813 192.52002518 -46.04611938 192.27222809 -46.89190674 192.016922 C-50.38305201 191.03415718 -52.60242529 190.41574297 -56.17358398 191.28564453 C-58.19884044 192.51476411 -59.9335988 193.73164847 -61.68945312 195.31860352 C-62.28967285 195.84873047 -62.88989258 196.37885742 -63.50830078 196.92504883 C-64.68365006 198.00284696 -65.84591167 199.0951723 -66.99169922 200.2043457 C-77.59338409 210.23321489 -87.83686172 211.75826882 -101.88867188 211.71704102 C-102.68002533 211.72193542 -103.47137878 211.72682983 -104.28671265 211.73187256 C-113.76567986 211.72524949 -120.93888604 211.0658085 -128.32617188 204.59204102 C-129.57185505 203.70096838 -130.82682424 202.822699 -132.09179688 201.95922852 C-133.25430674 201.12997148 -134.41578406 200.29926486 -135.57617188 199.46704102 C-136.16140625 199.05067383 -136.74664062 198.63430664 -137.34960938 198.20532227 C-137.92453125 197.79411133 -138.49945313 197.38290039 -139.09179688 196.95922852 C-139.64826904 196.56630615 -140.20474121 196.17338379 -140.77807617 195.76855469 C-142.32617188 194.59204102 -142.32617188 194.59204102 -144.73632812 192.19750977 C-147.35906719 190.21668232 -147.35906719 190.21668232 -151.11914062 190.90063477 C-152.59037112 191.25113627 -154.05520629 191.62923039 -155.51367188 192.02954102 C-156.29814697 192.22475342 -157.08262207 192.41996582 -157.89086914 192.62109375 C-160.37776919 193.24956924 -162.85188408 193.91573568 -165.32617188 194.59204102 C-166.12474609 194.80634766 -166.92332031 195.0206543 -167.74609375 195.24145508 C-174.09585008 196.95020216 -180.42618346 198.72204449 -186.72460938 200.61157227 C-187.68625 200.89387695 -188.64789063 201.17618164 -189.63867188 201.46704102 C-190.43917969 201.71196289 -191.2396875 201.95688477 -192.06445312 202.20922852 C-194.73445748 202.66114635 -196.70205602 202.17493643 -199.32617188 201.59204102 C-199.53709473 200.87886719 -199.74801758 200.16569336 -199.96533203 199.4309082 C-200.59902499 197.28879906 -201.23309263 195.14680073 -201.86743164 193.00488281 C-202.59344779 190.55108233 -203.31787954 188.09681254 -204.04077148 185.64208984 C-205.72576678 179.93222212 -207.42543428 174.23069575 -209.22851562 168.55688477 C-209.51065918 167.65808594 -209.79280273 166.75928711 -210.08349609 165.83325195 C-210.60698565 164.17294244 -211.14063269 162.51578963 -211.68603516 160.86254883 C-214.31155916 152.46885566 -211.61246044 145.87675061 -209.07617188 137.71704102 C-208.60800049 136.19361084 -208.60800049 136.19361084 -208.13037109 134.6394043 C-206.69844643 129.98840144 -205.25078287 125.34252112 -203.78710938 120.70141602 C-203.55926758 119.97809082 -203.33142578 119.25476563 -203.09667969 118.50952148 C-202.49186142 116.59578866 -201.88185892 114.68369645 -201.27148438 112.77172852 C-200.95953125 111.72243164 -200.64757812 110.67313477 -200.32617188 109.59204102 C-200.03484375 108.71676758 -199.74351562 107.84149414 -199.44335938 106.93969727 C-199.06750912 104.4376083 -199.06750912 104.4376083 -201.01367188 102.34594727 C-201.77679688 101.6227832 -202.53992188 100.89961914 -203.32617188 100.15454102 C-205.59179688 97.80297852 -205.59179688 97.80297852 -207.32617188 95.59204102 C-207.07617188 92.27954102 -207.07617188 92.27954102 -206.32617188 89.59204102 C-208.22203571 87.44614679 -208.22203571 87.44614679 -210.32617188 85.59204102 C-210.32617188 84.27204102 -210.32617188 82.95204102 -210.32617188 81.59204102 C-209.33617187 81.09704102 -209.33617187 81.09704102 -208.32617188 80.59204102 C-208.09771698 78.34841528 -208.09771698 78.34841528 -210.32617188 76.46704102 C-210.98617187 75.84829102 -211.64617187 75.22954102 -212.32617188 74.59204102 C-211.99617188 73.60204102 -211.66617188 72.61204102 -211.32617188 71.59204102 C-210.33617187 71.09704102 -210.33617187 71.09704102 -209.32617188 70.59204102 C-209.93325075 61.97724583 -211.72328766 53.80054493 -213.7734375 45.42602539 C-215.27476042 38.77001866 -215.48489363 34.05522929 -213.32617188 27.59204102 C-212.99560791 26.56328857 -212.66504395 25.53453613 -212.32446289 24.47460938 C-211.17684243 20.99893753 -209.97794567 17.54495227 -208.76367188 14.09204102 C-208.35181641 12.90094727 -207.93996094 11.70985352 -207.515625 10.48266602 C-204.46267494 1.72854408 -204.46267494 1.72854408 -203.32617188 0.59204102 C-198.9593718 0.29887751 -195.78223864 0.90738221 -191.73242188 2.50610352 C-190.6416333 2.93109131 -189.55084473 3.3560791 -188.42700195 3.79394531 C-186.64459106 4.49837769 -186.64459106 4.49837769 -184.82617188 5.21704102 C-183.53498644 5.70483136 -182.24288284 6.19019707 -180.94995117 6.67333984 C-174.56755713 9.07378048 -168.28265416 11.56694015 -162.10598755 14.46061707 C-131.54693808 28.68080279 -92.11061024 33.11698162 -59.62646484 22.38549805 C-55.05560902 20.57605163 -50.63120108 18.54409639 -46.21289062 16.39086914 C-38.83865929 12.88170496 -31.09637955 10.17312498 -23.45269775 7.31716919 C-20.74907531 6.29760589 -18.05840866 5.24888354 -15.36865234 4.19335938 C-13.7167205 3.55867731 -12.06455085 2.92461378 -10.41210938 2.29125977 C-9.65321411 1.98770569 -8.89431885 1.68415161 -8.11242676 1.37139893 C-5.26791472 0.30086704 -3.03994031 -0.53313815 0 0 Z M-202.32617188 1.59204102 C-205.52169419 9.47607558 -208.21688713 17.28014186 -210.43164062 25.49829102 C-211.32617188 28.59204102 -211.32617188 28.59204102 -212.47460938 31.17016602 C-213.5095922 34.11369515 -213.30737515 35.77675323 -212.76367188 38.84204102 C-212.56902344 39.95450195 -212.374375 41.06696289 -212.17382812 42.21313477 C-211.89461034 43.67341168 -211.61152251 45.13295012 -211.32617188 46.59204102 C-211.13007324 47.5976709 -210.93397461 48.60330078 -210.73193359 49.6394043 C-209.29519572 56.96347074 -207.82195052 64.27982025 -206.32617188 71.59204102 C-208.30617187 72.58204102 -208.30617187 72.58204102 -210.32617188 73.59204102 C-209.50117188 74.37579102 -208.67617187 75.15954102 -207.82617188 75.96704102 C-205.32617188 78.59204102 -205.32617188 78.59204102 -205.32617188 80.59204102 C-206.81117188 81.58204102 -206.81117188 81.58204102 -208.32617188 82.59204102 C-206.95462684 85.54613802 -205.33753464 88.03212478 -203.32617188 90.59204102 C-204.81117188 91.58204102 -204.81117188 91.58204102 -206.32617188 92.59204102 C-204.90550891 95.90692126 -203.15559852 97.741894 -200.51367188 100.15454102 C-197.31428291 103.77962831 -197.31428291 103.77962831 -197.36132812 106.99438477 C-198.17359011 109.94604716 -199.22026772 112.73718301 -200.32617188 115.59204102 C-201.11049728 118.08885545 -201.88005277 120.58755033 -202.63867188 123.09204102 C-204.03656596 127.60377422 -205.48944177 132.09140296 -207.01757812 136.56079102 C-207.43753052 137.81666016 -207.43753052 137.81666016 -207.8659668 139.09790039 C-208.40860927 140.71837262 -208.96408061 142.33462532 -209.53442383 143.94555664 C-212.57588389 153.12419578 -209.91408469 160.56733447 -207.07617188 169.46704102 C-204.50382851 177.69668057 -202.05796848 185.93963786 -199.83691406 194.27124023 C-199.12968711 197.71326794 -199.12968711 197.71326794 -197.32617188 200.59204102 C-189.97571232 200.07528143 -182.99097032 198.09443722 -175.88867188 196.21704102 C-174.71240234 195.91282227 -173.53613281 195.60860352 -172.32421875 195.29516602 C-166.54088312 193.78225317 -160.83184387 192.19374009 -155.1965332 190.1940918 C-151.6622484 189.05644053 -148.85974545 188.49385544 -145.32617188 189.59204102 C-140.33851929 193.02457737 -135.79036746 197.10103621 -131.55273438 201.41625977 C-121.21479753 210.87857901 -107.42179433 210.24776233 -94.17292786 209.77268982 C-83.68842074 209.18957394 -76.27045392 206.65938467 -68.77685547 199.04614258 C-66.53332514 196.79732624 -64.02047102 194.91166659 -61.51367188 192.96704102 C-60.76472656 192.33540039 -60.01578125 191.70375977 -59.24414062 191.05297852 C-57.32617188 189.59204102 -57.32617188 189.59204102 -54.32617188 188.59204102 C-51.97631836 189.04174805 -51.97631836 189.04174805 -49.19726562 189.84985352 C-47.65679565 190.29059204 -47.65679565 190.29059204 -46.08520508 190.74023438 C-44.98909912 191.06258057 -43.89299316 191.38492676 -42.76367188 191.71704102 C-41.64500732 192.03745361 -40.52634277 192.35786621 -39.3737793 192.68798828 C-35.07417943 193.91973896 -30.77977625 195.16905164 -26.48535156 196.41870117 C-24.03817169 197.12844757 -21.5886151 197.82940807 -19.13867188 198.52954102 C-18.42831787 198.74046387 -17.71796387 198.95138672 -16.98608398 199.16870117 C-12.99441395 200.30890201 -9.47459978 200.80494634 -5.32617188 200.59204102 C-3.5884086 195.61452811 -1.94607746 190.60885513 -0.32617188 185.59204102 C0.04878418 184.43381836 0.42374023 183.2755957 0.81005859 182.08227539 C1.8662007 178.80352243 2.89861338 175.51783741 3.91995239 172.22808838 C4.3362909 170.89670222 4.75863864 169.56717905 5.18722534 168.23968506 C5.80098844 166.3337781 6.39004178 164.41997002 6.97851562 162.50610352 C7.32897949 161.39187012 7.67944336 160.27763672 8.04052734 159.12963867 C9.43597124 151.33473427 7.22562891 144.43095001 4.66210938 137.10375977 C4.06350275 135.32847004 3.46520427 133.5530764 2.8671875 131.77758789 C1.9240931 129.01297119 0.97617157 126.25014643 0.0222168 123.48925781 C-0.90232274 120.80242594 -1.80854634 118.10994365 -2.71289062 115.41625977 C-3.1502076 114.17715096 -3.1502076 114.17715096 -3.59635925 112.91300964 C-3.8535524 112.14153091 -4.11074554 111.37005219 -4.37573242 110.57519531 C-4.72428535 109.56334419 -4.72428535 109.56334419 -5.07987976 108.53105164 C-5.51882563 105.07531488 -3.57199563 102.92796308 -1.59960938 100.23266602 C-0.973125 99.44375977 -0.34664062 98.65485352 0.29882812 97.84204102 C0.93046875 97.04282227 1.56210938 96.24360352 2.21289062 95.42016602 C2.93605469 94.51524414 2.93605469 94.51524414 3.67382812 93.59204102 C2.68382812 92.27204102 1.69382813 90.95204102 0.67382812 89.59204102 C2.32382813 87.94204102 3.97382813 86.29204102 5.67382812 84.59204102 C5.34382812 83.60204102 5.01382813 82.61204102 4.67382812 81.59204102 C4.01382813 81.26204102 3.35382813 80.93204102 2.67382812 80.59204102 C2.67382812 78.59204102 2.67382812 78.59204102 5.17382812 75.96704102 C5.99882812 75.18329102 6.82382813 74.39954102 7.67382812 73.59204102 C6.35382813 72.93204102 5.03382813 72.27204102 3.67382812 71.59204102 C3.89111572 70.56320801 4.10840332 69.534375 4.33227539 68.47436523 C5.13887132 64.64112948 5.93125958 60.80506971 6.71948242 56.96801758 C7.06199145 55.31064278 7.40830112 53.65404853 7.75854492 51.99829102 C8.26256863 49.61224421 8.75266285 47.22368442 9.24023438 44.83422852 C9.39851212 44.09961395 9.55678986 43.36499939 9.71986389 42.60812378 C11.14243668 35.50368893 9.71782976 30.32885594 7.42382812 23.59204102 C7.20637939 22.95065186 6.98893066 22.3092627 6.76489258 21.6484375 C4.47717597 14.93621628 2.08812853 8.25961958 -0.32617188 1.59204102 C-7.7611875 3.49017151 -14.91403182 5.78269049 -22.07617188 8.52954102 C-23.07680664 8.90852539 -24.07744141 9.28750977 -25.10839844 9.67797852 C-31.29593174 12.02905339 -37.46821482 14.41926637 -43.63867188 16.81469727 C-44.69045624 17.22279884 -44.69045624 17.22279884 -45.76348877 17.6391449 C-49.23369965 18.98618003 -52.70252438 20.33659967 -56.16894531 21.69335938 C-57.44530014 22.1908683 -58.72166676 22.68834696 -59.99804688 23.18579102 C-61.12307617 23.62600586 -62.24810547 24.0662207 -63.40722656 24.51977539 C-67.78656206 26.12851088 -71.47344553 26.73760196 -76.15087891 26.86425781 C-77.91650681 26.91255989 -77.91650681 26.91255989 -79.71780396 26.96183777 C-84.46170486 27.05929056 -89.20551139 27.1390871 -93.95012093 27.19229412 C-97.52415238 27.23272347 -101.09533323 27.29173251 -104.66796875 27.40136719 C-123.72618703 27.97150456 -138.94220151 25.98573125 -156.56550598 17.81632996 C-160.90874731 15.89020687 -165.38191268 14.39665078 -169.88867188 12.90454102 C-176.97726619 10.48309644 -183.90761104 7.81030642 -190.77368164 4.81201172 C-194.62091623 3.16113356 -198.1669592 2.09423697 -202.32617188 1.59204102 Z " fill="#FAF5F1" transform="translate(229.326171875,23.407958984375)"/>
<path d="M0 0 C8.96942378 -0.05855686 17.91208169 0.10013173 26.875 0.4375 C28.04546875 0.47681641 29.2159375 0.51613281 30.421875 0.55664062 C36.01680054 0.76280285 41.48064278 1.04256048 47 2 C46.49451662 10.54092606 44.93265709 18.67377292 43 27 C37.10381965 25.84182172 31.37243332 24.30059328 25.625 22.5625 C24.92310547 22.35729736 24.22121094 22.15209473 23.49804688 21.94067383 C17.06358663 19.95360682 17.06358663 19.95360682 15 17 C15 16.34 15 15.68 15 15 C14.43796875 14.7628125 13.8759375 14.525625 13.296875 14.28125 C10.48105958 12.71052303 8.52044584 10.78528536 6.25 8.5 C5.45078125 7.7059375 4.6515625 6.911875 3.828125 6.09375 C2 4 2 4 2 2 C1.34 2 0.68 2 0 2 C0 1.34 0 0.68 0 0 Z " fill="#CC6116" transform="translate(67,136)"/>
<path d="M0 0 C0 0.66 0 1.32 0 2 C-0.66 2 -1.32 2 -2 2 C-2.33 2.99 -2.66 3.98 -3 5 C-3.66 5 -4.32 5 -5 5 C-5.24363281 5.55042969 -5.48726562 6.10085937 -5.73828125 6.66796875 C-10.64817535 15.74291234 -17.28274285 20.20657959 -26.89770508 23.26831055 C-39.74601594 27 -39.74601594 27 -43 27 C-45.13898002 18.65932321 -46.55046968 10.60308032 -47 2 C-39.73422229 1.18423904 -32.49219392 0.72163626 -25.1875 0.4375 C-23.61452148 0.37381226 -23.61452148 0.37381226 -22.00976562 0.30883789 C-14.6684763 0.0264369 -7.34697703 -0.12914608 0 0 Z " fill="#CC6116" transform="translate(189,136)"/>
<path d="M0 0 C0.65830811 -0.00191345 1.31661621 -0.0038269 1.99487305 -0.00579834 C3.3868854 -0.0071595 4.77891047 -0.00346783 6.17089844 0.00488281 C8.30432589 0.015584 10.43691131 0.00498594 12.5703125 -0.0078125 C13.92187686 -0.00649089 15.2734407 -0.00392847 16.625 0 C18.47544922 0.00338379 18.47544922 0.00338379 20.36328125 0.00683594 C23.3125 0.265625 23.3125 0.265625 25.3125 2.265625 C25.72314453 4.32861328 25.72314453 4.32861328 25.9453125 6.8359375 C26.02910156 7.73183594 26.11289063 8.62773437 26.19921875 9.55078125 C26.27785156 10.48792969 26.35648438 11.42507812 26.4375 12.390625 C26.52386719 13.33550781 26.61023438 14.28039062 26.69921875 15.25390625 C26.91164083 17.59054918 27.11571542 19.9276217 27.3125 22.265625 C26.6525 21.935625 25.9925 21.605625 25.3125 21.265625 C22.78231924 21.16690623 20.28029839 21.12576832 17.75 21.1328125 C17.00290771 21.13185577 16.25581543 21.13089905 15.48608398 21.12991333 C13.90576086 21.12923251 12.32543494 21.13107997 10.74511719 21.13525391 C8.3222019 21.14060358 5.899472 21.13530565 3.4765625 21.12890625 C1.94270792 21.12956705 0.40885346 21.13084825 -1.125 21.1328125 C-1.85211182 21.13078827 -2.57922363 21.12876404 -3.32836914 21.12667847 C-7.13411501 21.08053837 -7.13411501 21.08053837 -10.6875 22.265625 C-10.41033063 18.97256769 -10.11331219 15.6816001 -9.8125 12.390625 C-9.73386719 11.45347656 -9.65523438 10.51632813 -9.57421875 9.55078125 C-9.49042969 8.65488281 -9.40664062 7.75898438 -9.3203125 6.8359375 C-9.24699707 6.00852051 -9.17368164 5.18110352 -9.09814453 4.32861328 C-8.08310678 -0.77071432 -4.35965245 0.0079722 0 0 Z " fill="#171616" transform="translate(119.6875,193.734375)"/>
<path d="M0 0 C8.58 0 17.16 0 26 0 C23.53268011 6.16829973 19.99243279 11.36489119 16.32348633 16.85791016 C15.06109484 18.75210842 13.8125398 20.65494887 12.56445312 22.55859375 C11.76384718 23.76357028 10.96244239 24.96801651 10.16015625 26.171875 C9.43449463 27.2659668 8.70883301 28.36005859 7.96118164 29.48730469 C6 32 6 32 3 33 C2.49056215 29.18870032 1.9941935 25.37580386 1.5 21.5625 C1.35691406 20.49322266 1.21382812 19.42394531 1.06640625 18.32226562 C0.93105469 17.26845703 0.79570312 16.21464844 0.65625 15.12890625 C0.53056641 14.17056885 0.40488281 13.21223145 0.27539062 12.22485352 C-0.07142123 8.16364984 0 4.075985 0 0 Z " fill="#CD6116" transform="translate(170,177)"/>
<path d="M0 0 C8.58 0 17.16 0 26 0 C26 10.125 26 10.125 25.34375 15.12890625 C25.20839844 16.18271484 25.07304688 17.23652344 24.93359375 18.32226562 C24.79050781 19.39154297 24.64742187 20.46082031 24.5 21.5625 C24.35691406 22.66658203 24.21382812 23.77066406 24.06640625 24.90820312 C23.7160201 27.6061765 23.36044731 30.3033556 23 33 C18.85153132 31.61717711 17.56087867 28.71783384 15.3125 25.1875 C14.42344311 23.81883757 13.53411645 22.45035035 12.64453125 21.08203125 C12.20189941 20.3957666 11.75926758 19.70950195 11.30322266 19.00244141 C10.10205471 17.15681018 8.87792981 15.33058048 7.63671875 13.51171875 C6.93160156 12.47660156 6.22648437 11.44148437 5.5 10.375 C4.8709375 9.45460937 4.241875 8.53421875 3.59375 7.5859375 C2 5 2 5 0 0 Z " fill="#CD6116" transform="translate(60,177)"/>
<path d="M0 0 C0.50693672 4.01999019 1.0043039 8.04110954 1.5 12.0625 C1.64308594 13.19623047 1.78617188 14.32996094 1.93359375 15.49804688 C2.61191318 21.03765554 3.19443782 26.41801428 3 32 C-1.83575629 31.37785592 -5.66878015 29.33664872 -9.9375 27.125 C-10.62779297 26.77308594 -11.31808594 26.42117187 -12.02929688 26.05859375 C-13.38252367 25.36851222 -14.73461467 24.676198 -16.08544922 23.98144531 C-18.71362051 22.63418076 -21.35597054 21.31580809 -24 20 C-22.46615124 15.93116767 -19.91118847 14.18518405 -16.4375 11.6875 C-15.35618463 10.90184785 -14.27546164 10.11537977 -13.1953125 9.328125 C-12.14085937 8.55984375 -11.08640625 7.7915625 -10 7 C-7.53545698 5.08701193 -5.08712283 3.15571382 -2.64453125 1.21484375 C-1 0 -1 0 0 0 Z " fill="#E3761C" transform="translate(170,177)"/>
<path d="M0 0 C5.33823942 3.43789529 10.35436916 7.24141793 15.375 11.125 C16.20644531 11.75792969 17.03789063 12.39085937 17.89453125 13.04296875 C18.67957031 13.65011719 19.46460937 14.25726563 20.2734375 14.8828125 C20.98935059 15.43340332 21.70526367 15.98399414 22.44287109 16.55126953 C22.95672363 17.02935059 23.47057617 17.50743164 24 18 C24 18.66 24 19.32 24 20 C22.865625 20.53109375 21.73125 21.0621875 20.5625 21.609375 C19.04164194 22.32286397 17.52081001 23.03640862 16 23.75 C15.25621094 24.09804687 14.51242188 24.44609375 13.74609375 24.8046875 C9.98699247 26.56983071 6.25823176 28.3709777 2.5625 30.265625 C-1 32 -1 32 -3 32 C-2.45707868 21.2558729 -1.4598439 10.65827777 0 0 Z " fill="#E3761B" transform="translate(86,177)"/>
<path d="M0 0 C-0.96355353 19.00455581 -0.96355353 19.00455581 -2 27 C-3.98 26.34 -5.96 25.68 -8 25 C-8 24.34 -8 23.68 -8 23 C-8.6909375 22.89816406 -9.381875 22.79632813 -10.09375 22.69140625 C-14.6655301 21.60376502 -18.65089755 19.3590754 -22.84375 17.27734375 C-25.88522035 16.04645166 -27.77129272 15.71688574 -31 16 C-27.53811464 13.05557206 -24.17945072 10.93149534 -20.078125 8.984375 C-18.97082031 8.45585937 -17.86351563 7.92734375 -16.72265625 7.3828125 C-15.57667969 6.84398437 -14.43070313 6.30515625 -13.25 5.75 C-12.08855469 5.19570312 -10.92710938 4.64140625 -9.73046875 4.0703125 C-1.15875154 0 -1.15875154 0 0 0 Z " fill="#D5BEAF" transform="translate(111,196)"/>
<path d="M0 0 C3.0007008 1.41518558 6.00042767 2.83242433 9 4.25 C9.83917969 4.64574219 10.67835938 5.04148438 11.54296875 5.44921875 C16.72943306 7.90173288 21.87807837 10.41532658 27 13 C26 16 26 16 23.79101562 17.3503418 C22.83904297 17.79547119 21.88707031 18.24060059 20.90625 18.69921875 C19.36130859 19.42915039 19.36130859 19.42915039 17.78515625 20.17382812 C16.70105469 20.67333984 15.61695313 21.17285156 14.5 21.6875 C13.41589844 22.19861328 12.33179688 22.70972656 11.21484375 23.23632812 C3.18500709 27 3.18500709 27 2 27 C1.66078548 23.81309767 1.32970583 20.62539896 1 17.4375 C0.90460938 16.54224609 0.80921875 15.64699219 0.7109375 14.72460938 C0.20432035 9.78509212 -0.10897382 4.96511986 0 0 Z " fill="#D4BEAF" transform="translate(145,196)"/>
<path d="M0 0 C0.66 0.33 1.32 0.66 2 1 C1.443125 2.0415625 0.88625 3.083125 0.3125 4.15625 C-4.06676611 12.37497853 -8.37246526 20.61549096 -12.43554688 28.99609375 C-13.75927622 31.69329592 -14.85928513 33.85928513 -17 36 C-17.93573547 18.79686319 -17.93573547 18.79686319 -13.40234375 13.2421875 C-11.38362873 11.15061282 -9.23032188 9.28308436 -6.98046875 7.4453125 C-4.19295908 5.15831243 -2.13671168 2.88688891 0 0 Z " fill="#E4751E" transform="translate(187,138)"/>
<path d="M0 0 C0.66 0 1.32 0 2 0 C3.515625 1.57421875 3.515625 1.57421875 5.25 3.6875 C7.44913502 6.28522825 9.58824176 8.6272478 12.25 10.75 C17.78737396 15.28057869 17.78737396 15.28057869 18.23681641 18.91503906 C18.29530475 21.20066174 18.2613966 23.46488966 18.1875 25.75 C18.16719727 26.93916016 18.16719727 26.93916016 18.14648438 28.15234375 C18.11125223 30.10185564 18.05744821 32.05101626 18 34 C15.31748989 30.67725799 13.36366712 27.08550342 11.42578125 23.30078125 C11.09708542 22.66512741 10.76838959 22.02947357 10.42973328 21.3745575 C9.73973371 20.03828719 9.05151696 18.70109495 8.36499023 17.36303711 C7.30956736 15.30678642 6.24800816 13.25379316 5.18554688 11.20117188 C4.51526298 9.90122827 3.84532861 8.60110437 3.17578125 7.30078125 C2.85708572 6.68415115 2.5383902 6.06752106 2.21003723 5.4322052 C0 1.11586085 0 1.11586085 0 0 Z " fill="#E4751E" transform="translate(67,138)"/>
<path d="M0 0 C0.66 0.33 1.32 0.66 2 1 C1.54548816 2.73017508 1.08621143 4.45909877 0.625 6.1875 C0.36976562 7.15042969 0.11453125 8.11335938 -0.1484375 9.10546875 C-1 12 -1 12 -2.140625 14.51171875 C-3.20196292 17.58477445 -2.93940124 19.43234224 -2.375 22.625 C-2.1790625 23.75292969 -1.983125 24.88085938 -1.78125 26.04296875 C-0.72997443 31.50705829 0.44693215 36.94933339 1.67822266 42.37548828 C2.62208994 46.64561872 3.36415615 50.59640808 3 55 C1.5 56.875 1.5 56.875 0 58 C2.475 59.98 2.475 59.98 5 62 C4 65 4 65 2 66 C3.37154504 68.95409701 4.98863724 71.44008376 7 74 C4.525 74.99 4.525 74.99 2 76 C2.33 75.01 2.66 74.02 3 73 C2.34 72.4225 1.68 71.845 1 71.25 C-1 69 -1 69 -1 65 C-0.01 64.505 -0.01 64.505 1 64 C1.2284549 61.75637427 1.2284549 61.75637427 -1 59.875 C-1.66 59.25625 -2.32 58.6375 -3 58 C-2.67 57.01 -2.34 56.02 -2 55 C-1.01 54.505 -1.01 54.505 0 54 C-0.60707888 45.38520481 -2.39711578 37.20850391 -4.44726562 28.83398438 C-5.93128127 22.25470823 -6.15219759 17.41203711 -4 11 C-3.64679687 9.91589844 -3.29359375 8.83179688 -2.9296875 7.71484375 C-2.58164062 6.79832031 -2.23359375 5.88179687 -1.875 4.9375 C-1.34519531 3.52791016 -1.34519531 3.52791016 -0.8046875 2.08984375 C-0.53914063 1.40019531 -0.27359375 0.71054687 0 0 Z " fill="#F2EEEB" transform="translate(20,40)"/>
<path d="M0 0 C1.03041513 1.95330868 2.0490893 3.91281528 3.0625 5.875 C3.63097656 6.96554688 4.19945313 8.05609375 4.78515625 9.1796875 C5.38650391 10.57574219 5.38650391 10.57574219 6 12 C5.67 12.66 5.34 13.32 5 14 C-1.6 12.02 -8.2 10.04 -15 8 C-15 7.34 -15 6.68 -15 6 C-12.87717331 4.99539469 -10.75166979 3.99644398 -8.625 3 C-7.44164063 2.443125 -6.25828125 1.88625 -5.0390625 1.3125 C-2 0 -2 0 0 0 Z " fill="#2D3644" transform="translate(103,149)"/>
<path d="M0 0 C5.19644079 1.59890486 10.06612142 3.74138003 15 6 C15 6.66 15 7.32 15 8 C8.07 9.98 1.14 11.96 -6 14 C-4.7290827 10.1872481 -3.66918099 7.09374991 -1.875 3.625 C-1.34519531 2.59246094 -1.34519531 2.59246094 -0.8046875 1.5390625 C-0.53914062 1.03117188 -0.27359375 0.52328125 0 0 Z " fill="#2A3544" transform="translate(153,149)"/>
<path d="M0 0 C0.33 0 0.66 0 1 0 C4.72805027 18.34537732 4.72805027 18.34537732 3 26 C2.75378906 27.20398438 2.50757813 28.40796875 2.25390625 29.6484375 C1.53262264 33.10645747 0.77924619 36.55465362 0 40 C-0.33 40 -0.66 40 -1 40 C-1.02477941 35.1070187 -1.04289763 30.2140742 -1.05493164 25.32104492 C-1.05995023 23.65762699 -1.06676652 21.99421344 -1.07543945 20.33081055 C-1.08761357 17.93537307 -1.09325314 15.53999409 -1.09765625 13.14453125 C-1.10281754 12.4047554 -1.10797882 11.66497955 -1.11329651 10.90278625 C-1.11370241 7.13916846 -0.90758309 3.65859619 0 0 Z " fill="#E4741E" transform="translate(142,142)"/>
<path d="M0 0 C1.32 0.99 2.64 1.98 4 3 C2.55575365 6.23861303 0.74227753 8.61969163 -1.625 11.25 C-2.25664062 11.95640625 -2.88828125 12.6628125 -3.5390625 13.390625 C-4.02117187 13.92171875 -4.50328125 14.4528125 -5 15 C-5.66 14.67 -6.32 14.34 -7 14 C-6.41089844 13.32453125 -5.82179687 12.6490625 -5.21484375 11.953125 C-4.46332031 11.06109375 -3.71179688 10.1690625 -2.9375 9.25 C-2.18339844 8.36828125 -1.42929688 7.4865625 -0.65234375 6.578125 C1.2659486 4.17873455 1.2659486 4.17873455 0.74609375 1.671875 C0.37677734 0.84429687 0.37677734 0.84429687 0 0 Z " fill="#F8F6F5" transform="translate(231,113)"/>
<path d="M0 0 C0.66 0.33 1.32 0.66 2 1 C0.60746468 4.48133831 -0.63176216 5.47886033 -4 7 C-4.33 7.66 -4.66 8.32 -5 9 C-5 4.61031544 -2.87194899 3.23094261 0 0 Z " fill="#EFE9E6" transform="translate(235,106)"/>
<path d="M0 0 C0.66 0 1.32 0 2 0 C1.01 3.3 0.02 6.6 -1 10 C-1.66 9.67 -2.32 9.34 -3 9 C-2.01 6.03 -1.02 3.06 0 0 Z " fill="#FCEEE2" transform="translate(25,148)"/>
<path d="M0 0 C2.97 0.99 5.94 1.98 9 3 C8.34 3.66 7.68 4.32 7 5 C5.0625 4.875 5.0625 4.875 3 4 C1.25 1.9375 1.25 1.9375 0 0 Z " fill="#E48334" transform="translate(31,26)"/>
</svg>
