<?xml version="1.0" encoding="UTF-8"?>
<svg version="1.1" xmlns="http://www.w3.org/2000/svg" width="256" height="256">
<path d="M0 0 C1.06089844 0.26683594 2.12179688 0.53367187 3.21484375 0.80859375 C29.77023886 8.05097423 54.56518591 27.06718502 68.25 50.9375 C69.53712271 53.2747696 70.77035461 55.63100715 72 58 C72.54527344 59.02609375 73.09054688 60.0521875 73.65234375 61.109375 C85.83636118 85.53941503 88.05205702 116.01078616 80 142 C79.649375 143.18980469 79.29875 144.37960938 78.9375 145.60546875 C75.24410194 156.9549732 69.77213297 168.84273443 62 178 C61.360625 178.82757813 60.72125 179.65515625 60.0625 180.5078125 C41.30308447 204.31237387 14.91741328 218.5952258 -15 223 C-48.38534178 225.1505561 -77.53202217 218.07689752 -103.375 196.30859375 C-126.87016617 175.64543421 -140.55233291 147.74435402 -142.921875 116.6171875 C-143.86427693 85.04672269 -133.8858431 55.61360103 -112.26928711 32.41552734 C-83.8591709 2.57398769 -40.53568236 -11.71932744 0 0 Z M-99.25 41.8125 C-118.30209565 61.63531149 -126.82220069 86.36450846 -126.52612305 113.59570312 C-125.94497375 131.83317509 -120.02464939 147.24562924 -111 163 C-109.68 162.67 -108.36 162.34 -107 162 C-107 161.34 -107 160.68 -107 160 C-106.42121094 159.73445312 -105.84242187 159.46890625 -105.24609375 159.1953125 C-102.91926145 157.95703305 -101.09337076 156.55115053 -99.0625 154.875 C-81.8854083 141.41262894 -60.08068358 131.8178031 -38 131 C-36.7109375 130.9484375 -35.421875 130.896875 -34.09375 130.84375 C-4.83337871 130.06601211 22.41380002 139.23772945 45 158 C45.7528125 158.62519531 46.505625 159.25039062 47.28125 159.89453125 C48.87199985 161.24224987 50.43976742 162.61706657 52 164 C66.65757698 140.52555564 71.82762424 114.37247394 66.04296875 87.0703125 C62.59563744 72.69785657 55.51845294 59.23841979 46 48 C45.32066406 47.18660156 44.64132813 46.37320313 43.94140625 45.53515625 C28.55636859 27.73677935 7.467974 15.95218144 -16 13 C-17.01578125 12.86722656 -18.0315625 12.73445313 -19.078125 12.59765625 C-49.48125907 9.50875336 -77.42520593 21.09573393 -99.25 41.8125 Z " fill="#000000" transform="translate(157,18)"/>
<path d="M0 0 C9.75100472 7.20210987 17.04593002 17.23689562 19.1953125 29.2734375 C20.46784473 42.02148354 19.8240024 54.27440981 12.0703125 64.9609375 C10.81305439 66.42862652 9.51918916 67.86554559 8.1953125 69.2734375 C7.463125 70.05847656 6.7309375 70.84351562 5.9765625 71.65234375 C-0.20515746 77.74374638 -6.54766614 80.76724132 -14.8046875 83.2734375 C-15.45824219 83.47324219 -16.11179688 83.67304688 -16.78515625 83.87890625 C-28.53275052 86.17389082 -40.73651276 83.81118186 -50.7421875 77.3359375 C-52.10805721 76.33081662 -53.46357725 75.31136397 -54.8046875 74.2734375 C-55.8359375 73.5515625 -56.8671875 72.8296875 -57.9296875 72.0859375 C-66.47915534 64.60515314 -70.90050318 53.04755837 -72.18359375 42.015625 C-72.69195656 28.40462073 -67.81782434 15.50582967 -58.5546875 5.5234375 C-42.50078884 -9.43667906 -18.60303805 -11.4520095 0 0 Z " fill="#000000" transform="translate(153.8046875,51.7265625)"/>
</svg>
