<?xml version="1.0" encoding="UTF-8"?>
<svg version="1.1" xmlns="http://www.w3.org/2000/svg" width="256" height="256">
<path d="M0 0 C0.80953125 0.68835938 1.6190625 1.37671875 2.453125 2.0859375 C27.43518813 23.92608471 39.84652094 52.76156481 42.1875 85.6328125 C42.9427829 113.48386934 32.8286569 140.79004611 15 162 C14.23171875 162.93070313 13.4634375 163.86140625 12.671875 164.8203125 C-5.52973369 185.89894966 -32.44255429 198.97837119 -60 202 C-73.86017776 202.95367185 -87.54019586 202.58733675 -101 199 C-102.80017578 198.52433594 -102.80017578 198.52433594 -104.63671875 198.0390625 C-134.39242699 189.12183644 -157.95918687 168.99826571 -172.89526367 141.99169922 C-187.69846395 114.36825119 -189.71261037 82.53914511 -180.72705078 52.75 C-171.14897485 23.22738418 -149.91688787 -0.0034977 -122.67651367 -14.30249023 C-83.62646205 -33.86532105 -33.28359582 -28.5461497 0 0 Z M-114 26 C-121.88440759 35.99081703 -126.03975834 47.9053795 -126.25 60.625 C-126.27578125 61.54539063 -126.3015625 62.46578125 -126.328125 63.4140625 C-125.40359196 73.51788787 -121.80998903 82.31937863 -117.4375 91.375 C-116.5781816 93.189806 -115.71886891 95.00461472 -114.85972595 96.81950378 C-113.9224888 98.79418131 -112.97993875 100.76624728 -112.03613281 102.73779297 C-109.44738393 108.14912239 -106.88946099 113.57496276 -104.32888794 118.99966431 C-102.38228063 123.12176901 -100.43124967 127.2416472 -98.46923828 131.35644531 C-95.2098302 138.19469262 -91.9605529 145.03044389 -88.875 151.94921875 C-88.43051514 152.93156494 -87.98603027 153.91391113 -87.52807617 154.92602539 C-86.75262736 156.64777407 -85.99320823 158.3768949 -85.25512695 160.11499023 C-82.80128207 165.51227066 -80.50791219 167.68055698 -75 170 C-72.61280145 170.45270474 -72.61280145 170.45270474 -70.4375 170.0625 C-69.73496094 169.99160156 -69.03242188 169.92070312 -68.30859375 169.84765625 C-62.32124568 167.64925603 -59.20910704 163.28862618 -56.58984375 157.71484375 C-56.3008017 157.11017273 -56.01175964 156.50550171 -55.71395874 155.88250732 C-54.7741571 153.90725121 -53.85575293 151.92285312 -52.9375 149.9375 C-52.27944893 148.5428041 -51.62016871 147.14868755 -50.9597168 145.75512695 C-49.27695694 142.19446135 -47.61239444 138.62563931 -45.95422363 135.0534668 C-45.05061973 133.10893246 -44.1430413 131.16632487 -43.23339844 129.22460938 C-40.52069965 123.43310004 -37.8244509 117.63457052 -35.15234375 111.82421875 C-33.00892574 107.1657498 -30.83147076 102.52531983 -28.62890625 97.89453125 C-28.08258545 96.73671143 -27.53626465 95.5788916 -26.97338867 94.38598633 C-25.94679093 92.2112675 -24.91244295 90.040181 -23.8684082 87.8737793 C-19.01378156 77.53043513 -16.11806458 67.4818007 -17 56 C-17.05800781 55.15179688 -17.11601562 54.30359375 -17.17578125 53.4296875 C-18.53732814 42.4388873 -24.67511624 29.45391052 -33 22 C-33.64324219 21.4225 -34.28648437 20.845 -34.94921875 20.25 C-59.38857901 -0.10882075 -92.56457158 2.96441519 -114 26 Z " fill="#000000" transform="translate(200,40)"/>
<path d="M0 0 C6.39008483 6.13949327 9.08922842 12.08466113 9.4375 20.9375 C9.17276279 29.70691997 5.84031404 35.90619604 -0.0703125 42.2734375 C-5.3648339 47.01064086 -11.23376431 48.70460897 -18.1875 49.25 C-27.27067722 48.65438182 -33.29793035 45.91200186 -39.859375 39.515625 C-45.31970828 33.09873698 -46.70940891 26.26224329 -46.37890625 17.95703125 C-45.41260342 10.41588439 -42.55951209 4.5911655 -36.9296875 -0.53125 C-25.43254128 -9.28211433 -11.31623312 -9.05298649 0 0 Z " fill="#000000" transform="translate(147,80)"/>
</svg>
