<?xml version="1.0" encoding="UTF-8"?>
<svg version="1.1" xmlns="http://www.w3.org/2000/svg" width="256" height="256">
<path d="M0 0 C1.3765979 0.00749268 1.3765979 0.00749268 2.78100586 0.01513672 C30.84394549 0.7225033 56.25567141 21.18001373 76.48828125 38.90625 C78 40.5 78 40.5 78 42.5 C78.5775 42.7475 79.155 42.995 79.75 43.25 C82.32939979 44.68299988 84.06121592 46.28424676 86 48.5 C86 49.16 86 49.82 86 50.5 C86.84498047 50.83064453 86.84498047 50.83064453 87.70703125 51.16796875 C96.55769704 56.30949692 103.46559066 69.08684799 109 77.5 C109.57878906 78.3765625 110.15757812 79.253125 110.75390625 80.15625 C117.45917336 90.77712423 120.66663179 100.79193257 119 113.5 C117.30497969 117.98202486 113.71575487 119.8060289 109.5625 121.8125 C101.87458022 125.07195794 93.82358999 124.69182757 85.625 124.6875 C84.3781543 124.68814453 83.13130859 124.68878906 81.84667969 124.68945312 C72.74865761 124.63747793 63.96548688 124.05921511 55 122.5 C54.70738281 123.09941406 54.41476563 123.69882813 54.11328125 124.31640625 C51.46805765 129.50475709 48.14679522 133.45687466 44 137.5 C42.64444707 139.14864545 41.30368347 140.81003995 40 142.5 C40.59167969 142.87511719 41.18335938 143.25023437 41.79296875 143.63671875 C49.22739526 148.45151047 54.87633012 152.99760444 58 161.5 C58.56481648 165.17130712 58.4420427 166.71637886 56.625 169.9375 C51.81252425 172.8020689 47.07990727 171.26945456 41.84033203 169.96044922 C39.39039962 169.31828298 36.94505152 168.66049131 34.5 168 C32.04244986 167.3516049 29.58410559 166.70651633 27.12451172 166.06591797 C25.39901445 165.60628769 23.68392237 165.10772396 21.97265625 164.59765625 C19.29515219 164.00313752 17.66689924 163.82985609 15 164.5 C12.49607295 166.20773034 10.25235542 168.05852883 8.02172852 170.10864258 C-7.712117 184.52164648 -30.59057596 196.67201916 -52.0625 196.6875 C-52.96033203 196.69974609 -53.85816406 196.71199219 -54.78320312 196.72460938 C-55.65009766 196.72654297 -56.51699219 196.72847656 -57.41015625 196.73046875 C-58.19527588 196.73457764 -58.98039551 196.73868652 -59.78930664 196.74291992 C-62.24475115 196.47310575 -63.87222319 195.72414635 -66 194.5 C-66.51552823 191.34954972 -66.73454833 189.54964205 -66 186.5 C-63.40112389 183.04661813 -60.26342579 180.31610263 -57 177.5 C-56.29617187 176.86835938 -55.59234375 176.23671875 -54.8671875 175.5859375 C-52.27615972 173.27941473 -49.6372476 171.03494286 -46.98046875 168.8046875 C-46.34753906 168.27101562 -45.71460938 167.73734375 -45.0625 167.1875 C-44.49660156 166.71699219 -43.93070313 166.24648437 -43.34765625 165.76171875 C-41.86554616 164.52049527 -41.86554616 164.52049527 -41 162.5 C-41.60884033 162.40501221 -42.21768066 162.31002441 -42.8449707 162.2121582 C-73.28320089 157.36035441 -73.28320089 157.36035441 -83.25 144.625 C-85.76977966 140.12539346 -88 135.71846557 -88 130.5 C-88.59167969 130.53480469 -89.18335937 130.56960937 -89.79296875 130.60546875 C-96.23424691 130.82613244 -99.42266469 129.86255737 -104.25 125.4375 C-107.18399466 122.18914877 -107.18629193 119.99310364 -107.25 115.6875 C-107.27578125 114.64980469 -107.3015625 113.61210937 -107.328125 112.54296875 C-106.84973427 108.10646421 -104.872648 105.54154761 -102.0625 102.1875 C-97.25644049 99.53926313 -92.37146929 100.19159028 -87 100.5 C-86.88269531 99.77683594 -86.76539062 99.05367188 -86.64453125 98.30859375 C-85.09905502 91.57406399 -81.17632539 84.97242638 -77 79.5 C-76.34 79.5 -75.68 79.5 -75 79.5 C-74.72929688 78.90703125 -74.45859375 78.3140625 -74.1796875 77.703125 C-67.49801758 65.22477455 -51.28774629 58.351234 -38.45898438 54.20458984 C-17.49787513 48.19845787 4.81904826 49.59839673 24.0390625 60.171875 C28.99936359 62.99598803 33.60424125 65.84221535 38 69.5 C38.49628906 68.89671875 38.99257812 68.2934375 39.50390625 67.671875 C43.65904927 62.78347145 47.20211952 59.27815106 53 56.5 C47.1805233 52.96620924 41.28822397 50.38265559 34.91796875 48.0078125 C-13.1858822 29.78992004 -13.1858822 29.78992004 -21 16.5 C-22.36077758 12.19087098 -22.39132029 10.38472414 -20.5625 6.25 C-15.01268764 0.29410381 -7.70256834 -0.05551144 0 0 Z " fill="#8A92FD" transform="translate(122,29.5)"/>
<path d="M0 0 C11.77312447 6.58134455 24.15341728 16.05239154 31.69921875 27.37109375 C31.32421875 30.05859375 31.32421875 30.05859375 30.69921875 32.37109375 C25.74194432 32.77576921 22.97920635 32.20253329 18.79296875 29.55859375 C16.29418995 28.14137592 13.76815469 27.18340503 11.07421875 26.18359375 C-34.94143528 8.93435781 -34.94143528 8.93435781 -46.30078125 -5.62890625 C-45.48828125 -7.56640625 -45.48828125 -7.56640625 -44.30078125 -9.62890625 C-30.32484208 -14.28755264 -12.55148361 -6.19404576 0 0 Z " fill="#7174E4" transform="translate(149.30078125,52.62890625)"/>
<path d="M0 0 C6.05060637 -0.04944549 12.10109505 -0.08574129 18.15185547 -0.10986328 C20.21014454 -0.11991954 22.26841933 -0.13356629 24.32666016 -0.15087891 C27.28551763 -0.17514354 30.24418617 -0.18648688 33.203125 -0.1953125 C34.12305237 -0.20563507 35.04297974 -0.21595764 35.99078369 -0.22659302 C36.8513739 -0.22674408 37.71196411 -0.22689514 38.59863281 -0.22705078 C39.73114471 -0.23371262 39.73114471 -0.23371262 40.88653564 -0.24050903 C43.28848957 0.03282967 44.91393523 0.807789 47 2 C46.0409375 2.5259375 46.0409375 2.5259375 45.0625 3.0625 C42.04912668 4.81489109 42.04912668 4.81489109 40.0859375 6.8984375 C37.78894353 9.0784936 35.8775304 10.65948129 33 12 C29.74013108 11.61246313 27.2056971 10.60618257 24.1875 9.32421875 C20.88454274 7.9520343 17.74630895 7.16994435 14.25 6.4375 C9.27001164 5.34681663 4.71057218 3.93964737 0 2 C0 1.34 0 0.68 0 0 Z " fill="#5547BB" transform="translate(93,191)"/>
<path d="M0 0 C7.57251335 5.95762578 13.17912914 12.28394692 15 22 C15.47432468 28.6627795 15.90117095 34.85090459 13 41 C10.36 41 7.72 41 5 41 C4 38 4 38 4.9375 34.5 C7.89655668 23.25558461 5.6434977 10.14304317 0 0 Z " fill="#5E54C8" transform="translate(125,125)"/>
<path d="M0 0 C7.26 0 14.52 0 22 0 C22 0.33 22 0.66 22 1 C17.37078475 2.0161692 13.65537393 1.83796731 9 1 C9 1.66 9 2.32 9 3 C2.25 2.25 2.25 2.25 0 0 Z " fill="#6E6CE7" transform="translate(84,190)"/>
</svg>
