<?xml version="1.0" encoding="UTF-8"?>
<svg version="1.1" xmlns="http://www.w3.org/2000/svg" width="256" height="256">
<path d="M0 0 C-0.16048828 -0.96099609 -0.16048828 -0.96099609 -0.32421875 -1.94140625 C-1.16317107 -7.99449235 -1.25963694 -11.74252106 2 -17 C5.80291265 -20.44915333 8.99350689 -21.7067655 14.03515625 -21.46484375 C17.60349257 -20.6206449 19.46662984 -18.59515968 22 -16 C23.22393401 -13.55213198 23.15316165 -11.90788499 23.19287109 -9.1706543 C23.20893402 -8.16588547 23.22499695 -7.16111664 23.24154663 -6.12590027 C23.28595105 -1.52868277 23.32705938 3.06838975 23.35009766 7.66577148 C23.36666321 10.09165028 23.39396075 12.51748015 23.43212891 14.94311523 C23.48684539 18.43759528 23.50876441 21.93093073 23.5234375 25.42578125 C23.54610687 26.50926346 23.56877625 27.59274567 23.59213257 28.70906067 C23.57094077 36.25045933 23.57094077 36.25045933 20.59228516 40.16088867 C12.06464075 46.2108741 -2.56449475 44.21236964 -12.82568359 44.24023438 C-15.0260765 44.25011712 -17.22559869 44.28136764 -19.42578125 44.3125 C-20.84634876 44.31901747 -22.26692276 44.32427284 -23.6875 44.328125 C-24.94949219 44.3374707 -26.21148437 44.34681641 -27.51171875 44.35644531 C-32.70459127 43.82581864 -35.90275356 42.18165001 -39.4375 38.375 C-41.49361291 33.93379612 -41.50543511 30.64460945 -40 26 C-37.80176185 23.29447612 -36.10443333 21.55221667 -33 20 C-30.12089412 19.76725791 -27.25853505 19.58027243 -24.375 19.4375 C-23.17230469 19.37272461 -23.17230469 19.37272461 -21.9453125 19.30664062 C-19.9637489 19.20048543 -17.98189729 19.09973145 -16 19 C-38.66705271 3.81142016 -61.92980703 -3.12786479 -89.375 0.625 C-105.80214186 4.00984335 -120.41902305 12.04948241 -133 23 C-133.60199219 23.50660156 -134.20398438 24.01320312 -134.82421875 24.53515625 C-151.40994038 39.65174636 -159.90776857 63.37396641 -161.125 85.24609375 C-161.73245563 108.36737361 -153.46139161 130.86133711 -138 148 C-137.09701172 149.02480469 -137.09701172 149.02480469 -136.17578125 150.0703125 C-121.56162586 165.69551009 -100.15492094 175.40011868 -78.9140625 176.30859375 C-60.77726052 176.79252387 -46.22970963 174.55552905 -30 166 C-28.71029297 165.32324219 -28.71029297 165.32324219 -27.39453125 164.6328125 C-6.41323003 152.8245762 6.95014195 133.22754886 14.07421875 110.5859375 C16.3524192 100.91747703 16.40323285 91.17734321 16.35888672 81.27807617 C16.45797176 72.73290861 16.45797176 72.73290861 19.3515625 68.8203125 C24.04971769 65.59119699 26.19893238 64.41006092 32 65 C35.70390021 67.02666238 37.65363011 68.48044516 40 72 C45.86311813 96.79688179 37.88360874 126.68795216 24.77441406 147.99169922 C20.21612151 154.98026109 15.18774533 161.37477697 9 167 C7.824375 168.2065625 7.824375 168.2065625 6.625 169.4375 C-16.69261094 192.19992973 -45.6899083 201.55185477 -77.83203125 201.21484375 C-106.97854464 200.49567307 -134.04232401 187.18686389 -154.43896484 166.65185547 C-159.05153781 161.77092511 -163.10031349 156.45819997 -167 151 C-167.57234375 150.2059375 -168.1446875 149.411875 -168.734375 148.59375 C-184.65786054 124.280471 -188.88005313 92.45643399 -183.375 64.3125 C-179.35441106 45.90571263 -170.69052795 29.68525523 -159 15 C-158.30583984 14.09121094 -158.30583984 14.09121094 -157.59765625 13.1640625 C-154.22949565 8.87731265 -150.16298738 5.47775229 -146 2 C-145.28199219 1.3709375 -144.56398437 0.741875 -143.82421875 0.09375 C-102.17685404 -35.18401776 -42.3827494 -31.54065072 0 0 Z " fill="#000000" transform="translate(200,40)"/>
</svg>
