<?xml version="1.0" encoding="UTF-8"?>
<svg version="1.1" xmlns="http://www.w3.org/2000/svg" width="256" height="256">
<path d="M0 0 C0.69810791 0.00459229 1.39621582 0.00918457 2.11547852 0.01391602 C13.08897535 0.11297969 23.02240233 1.03566743 33.125 5.5625 C34.14352051 6.00456787 34.14352051 6.00456787 35.18261719 6.45556641 C58.68196664 16.85346079 75.49628582 33.67074785 85.84375 57.125 C94.85264362 81.2952024 94.11465607 106.13500058 83.98828125 129.69921875 C82.1501664 133.66655261 79.94236972 137.39755243 77.640625 141.109375 C76.33478779 143.22294656 75.21694031 145.33503601 74.125 147.5625 C74.85971527 148.29499466 75.59443054 149.02748932 76.35140991 149.78218079 C83.26999056 156.68050298 90.18593929 163.58145407 97.09930992 170.48499775 C100.65375003 174.03421593 104.20911579 177.58249649 107.76660156 181.12866211 C111.19875769 184.54996495 114.62847606 187.97369402 118.05650711 191.39912987 C119.36578192 192.70655485 120.67593758 194.01309834 121.98698044 195.31875038 C123.82096062 197.1454878 125.65180388 198.97531432 127.48193359 200.8059082 C128.02643661 201.34681595 128.57093964 201.88772369 129.13194275 202.44502258 C133.23065551 206.55502247 135.41933126 209.04868213 135.5 214.9375 C135.43870928 218.79881533 135.28029472 220.30367546 133.25 223.6875 C130.28607272 226.30272996 128.38752735 226.82178623 124.5 227.0625 C123.68273437 227.1346875 122.86546875 227.206875 122.0234375 227.28125 C112.97289776 225.0369113 105.03122293 213.59641331 98.53125 207.06640625 C97.33221046 205.86549797 96.13294723 204.664813 94.93347168 203.46434021 C91.80119792 200.32827715 88.6719409 197.18922111 85.54333496 194.04949951 C82.3406273 190.83649999 79.13503092 187.62638529 75.9296875 184.41601562 C69.65865211 178.13430629 63.39080477 171.84942642 57.125 165.5625 C53.7238042 166.88366625 50.80571845 168.31824164 47.75 170.3125 C27.87380894 182.37386816 3.03761003 186.36095552 -19.73535156 181.38037109 C-22.83277298 180.57851237 -25.84982368 179.60165661 -28.875 178.5625 C-29.98488281 178.211875 -31.09476563 177.86125 -32.23828125 177.5 C-54.99047357 169.65253726 -72.72900685 151.90718795 -83.19287109 130.57543945 C-93.19268334 109.26515996 -94.17161152 83.43069671 -86.73828125 61.15625 C-77.85612971 36.7233284 -60.57398962 18.60533233 -37.4375 7.25 C-25.00923572 1.91592118 -13.4995824 -0.17947702 0 0 Z M-53.875 49.5625 C-64.57180785 63.80614413 -69.11195377 80.85639036 -67.875 98.5625 C-65.16287709 117.47280031 -55.55820341 134.44740654 -40.55566406 146.36035156 C-28.42831584 155.03482318 -14.8580318 159.13700565 -0.0625 159 C1.08951904 158.99170166 2.24153809 158.98340332 3.4284668 158.97485352 C11.69657285 158.81027621 18.56272556 158.11127683 26.125 154.5625 C27.19234375 154.088125 28.2596875 153.61375 29.359375 153.125 C45.1627131 145.40881614 57.65658722 131.92926202 64.125 115.5625 C70.28662527 96.75626958 69.37175306 78.2007802 61 60.25 C52.58228203 44.71370447 39.09905204 32.19001591 22.125 26.5625 C-6.8323194 18.66504925 -34.30788599 26.71253131 -53.875 49.5625 Z " fill="#000000" transform="translate(105.875,14.4375)"/>
</svg>
