<?xml version="1.0" encoding="UTF-8"?>
<svg version="1.1" xmlns="http://www.w3.org/2000/svg" width="256" height="256">
<path d="M0 0 C13.49395771 11.46062162 22.30995786 26.74067135 25.53125 44.125 C25.80388672 45.28128906 25.80388672 45.28128906 26.08203125 46.4609375 C29.19006439 64.89292537 24.24000828 83.91397861 14.37109375 99.55859375 C4.68046249 113.07609849 -7.61419625 122.7200385 -23.46875 128.125 C-24.32984375 128.44339844 -25.1909375 128.76179687 -26.078125 129.08984375 C-33.02203812 131.26734252 -39.87779632 131.4024906 -47.09375 131.4375 C-48.05966064 131.44305908 -49.02557129 131.44861816 -50.02075195 131.4543457 C-67.35797195 131.28131365 -84.41637576 124.70868603 -97.46875 113.125 C-97.46875 112.465 -97.46875 111.805 -97.46875 111.125 C-98.95375 110.63 -98.95375 110.63 -100.46875 110.125 C-112.77565052 97.36327924 -121.02649817 79.97302037 -121.46875 62.125 C-121.50742188 61.42761719 -121.54609375 60.73023438 -121.5859375 60.01171875 C-121.97924182 48.05963758 -119.3794683 36.96150127 -114.46875 26.125 C-114.04851562 25.18914062 -113.62828125 24.25328125 -113.1953125 23.2890625 C-104.62414059 5.99808564 -88.41394004 -6.32392941 -70.59765625 -12.94140625 C-46.47145445 -20.5428123 -20.00047689 -15.19023562 0 0 Z " fill="#000000" transform="translate(215.46875,109.875)"/>
<path d="M0 0 C11.62123454 10.11218535 22.29101966 23.55601401 24.875 39.1875 C24.91625 40.115625 24.9575 41.04375 25 42 C23.36757964 43.63242036 21.30322447 43.5167355 19.0625 43.875 C-2.38481386 47.70684656 -21.06159025 58.73764622 -33.828125 76.55078125 C-45.72894674 94.42788521 -48.49282906 111.00704615 -49 132 C-68.99507371 131.62909644 -86.01978273 123.46107452 -100.34375 109.7578125 C-115.49054735 93.93667144 -120.77332898 75.8100721 -120.59423828 54.30639648 C-120.05121906 36.43865068 -113.65348511 21.569836 -102 8 C-101.50242187 7.40703125 -101.00484375 6.8140625 -100.4921875 6.203125 C-74.63961977 -22.11777834 -29.25639984 -22.7076163 0 0 Z " fill="#000000" transform="translate(135,43)"/>
<path d="M0 0 C7.83605201 0.19086929 14.44757608 2.46163671 21.66210938 5.44042969 C22.45359375 5.76269531 23.24507812 6.08496094 24.06054688 6.41699219 C38.5073613 12.98372602 48.0253374 25.93798369 53.66210938 40.44042969 C55.28537464 45.36774728 56.5212338 50.38089452 57.66210938 55.44042969 C58.42523438 54.61929688 59.18835938 53.79816406 59.97460938 52.95214844 C62.66210938 50.44042969 62.66210938 50.44042969 65.66210938 50.25292969 C69.84465969 51.90852252 71.21749391 53.6623876 73.66210938 57.44042969 C73.30393198 63.23994937 67.31175209 67.30214787 63.47460938 71.12792969 C62.62318359 72.00771484 61.77175781 72.8875 60.89453125 73.79394531 C59.64446289 75.04788086 59.64446289 75.04788086 58.36914062 76.32714844 C57.61093018 77.09244873 56.85271973 77.85774902 56.0715332 78.64624023 C53.1810246 80.79867186 51.24410331 81.28122329 47.66210938 81.44042969 C44.28710938 79.62792969 44.28710938 79.62792969 41.66210938 77.44042969 C41.66210938 76.78042969 41.66210938 76.12042969 41.66210938 75.44042969 C41.08460938 75.21355469 40.50710937 74.98667969 39.91210938 74.75292969 C37.0723863 73.09642456 35.70986401 71.01474981 33.66210938 68.44042969 C32.44523716 67.4460253 31.21521416 66.4675632 29.97460938 65.50292969 C27.53554365 63.43869874 26.6692517 62.456755 25.34960938 59.44042969 C25.75323468 55.56562679 27.10437834 54.10579495 29.97460938 51.58105469 C31.66210938 50.44042969 31.66210938 50.44042969 34.28710938 49.81542969 C37.34222037 50.61940626 38.65157433 52.05757334 40.66210938 54.44042969 C39.9507449 46.08189713 36.60668589 39.18303402 31.66210938 32.44042969 C30.98148438 31.47105469 30.30085938 30.50167969 29.59960938 29.50292969 C21.0888843 19.67691073 7.95976727 15.80084785 -4.58789062 14.81542969 C-5.45929688 14.78191406 -6.33070313 14.74839844 -7.22851562 14.71386719 C-9.33789062 14.44042969 -9.33789062 14.44042969 -11.33789062 12.44042969 C-11.60351562 10.12792969 -11.60351562 10.12792969 -11.58789062 7.44042969 C-11.59304687 6.55355469 -11.59820312 5.66667969 -11.60351562 4.75292969 C-10.90610148 -1.31867577 -4.70803186 0.00641421 0 0 Z " fill="#000000" transform="translate(165.337890625,13.5595703125)"/>
</svg>
