<?xml version="1.0" encoding="UTF-8"?>
<svg version="1.1" xmlns="http://www.w3.org/2000/svg" width="256" height="256">
<path d="M0 0 C0.80277878 -0.00807175 1.60555756 -0.01614349 2.43266296 -0.02445984 C4.1314377 -0.03828325 5.83024 -0.0490132 7.52905273 -0.05688477 C10.11691383 -0.0740871 12.70349334 -0.11798567 15.29101562 -0.16210938 C16.94400105 -0.17223797 18.59699731 -0.18075356 20.25 -0.1875 C21.40342644 -0.21376213 21.40342644 -0.21376213 22.58015442 -0.24055481 C27.76950467 -0.21977581 30.70210725 0.81480571 34.82421875 4.23828125 C36.30584747 7.20153869 35.94682605 9.85241145 35.94447327 13.16043091 C35.9457549 14.24105201 35.9457549 14.24105201 35.94706243 15.34350383 C35.94871611 17.7695548 35.9431977 20.19553738 35.93774414 22.62158203 C35.93746222 24.35584512 35.9376201 26.09010832 35.93818665 27.82437134 C35.93847442 32.54312106 35.93258084 37.26184555 35.92561269 41.98058939 C35.91937591 46.90802795 35.91877509 51.83546704 35.91758728 56.76290894 C35.91447492 66.09849691 35.90626282 75.43407323 35.89623779 84.76965606 C35.88507369 95.39585902 35.87956545 106.02206253 35.87454236 116.64826989 C35.86408013 138.51161353 35.84648253 160.37494666 35.82421875 182.23828125 C37.37882812 182.15126953 37.37882812 182.15126953 38.96484375 182.0625 C40.33459031 182.01559087 41.70438567 181.97009193 43.07421875 181.92578125 C44.09708984 181.86293945 44.09708984 181.86293945 45.140625 181.79882812 C48.9718607 181.70583697 50.48475593 181.91643206 53.30859375 184.59375 C54.82421875 187.23828125 54.82421875 187.23828125 54.82421875 189.86328125 C53.55442238 192.87904762 52.69514762 193.64403473 49.82421875 195.23828125 C46.88044239 195.52564585 44.15069729 195.63889787 41.20788574 195.61250305 C39.89004695 195.61846466 39.89004695 195.61846466 38.54558516 195.62454671 C35.59598165 195.63418603 32.64685582 195.62234165 29.69726562 195.6105957 C27.5849642 195.61302313 25.47266392 195.61674196 23.36036682 195.62165833 C17.61872154 195.6310777 11.87724641 195.62163302 6.1356144 195.6083262 C0.13301181 195.59702539 -5.86958222 195.60111815 -11.87219238 195.60307312 C-21.95339748 195.60395653 -32.0345354 195.59286588 -42.11572266 195.57446289 C-53.77869468 195.55329458 -65.44156826 195.54978513 -77.10455561 195.55602485 C-88.31401529 195.56171539 -99.52344022 195.55607649 -110.7328949 195.5448513 C-115.50793601 195.54020122 -120.2829559 195.53933324 -125.05799866 195.54143715 C-130.67877814 195.54331789 -136.29945713 195.53523256 -141.9202137 195.51937675 C-143.98583116 195.51512663 -146.05145881 195.51428822 -148.11707878 195.51706696 C-150.931313 195.52027895 -153.74524509 195.51123166 -156.55944824 195.49897766 C-157.7927093 195.50464665 -157.7927093 195.50464665 -159.05088472 195.51043016 C-166.349229 195.45400942 -166.349229 195.45400942 -169.17578125 193.23828125 C-170.17578125 189.86328125 -170.17578125 189.86328125 -170.17578125 186.23828125 C-168.66015625 184.02734375 -168.66015625 184.02734375 -166.17578125 182.23828125 C-163.43895154 181.94712915 -161.13638086 181.85505707 -158.42578125 181.98828125 C-157.72839844 182.00632813 -157.03101563 182.024375 -156.3125 182.04296875 C-154.59966586 182.08989571 -152.88754301 182.1616352 -151.17578125 182.23828125 C-151.1846637 181.2449176 -151.19354614 180.25155396 -151.20269775 179.22808838 C-151.28375867 169.86993087 -151.34373461 160.51184452 -151.38302994 151.15341568 C-151.40391125 146.34203721 -151.43223879 141.530942 -151.47753906 136.71972656 C-151.52097747 132.07723962 -151.54491426 127.43502524 -151.55529022 122.79235077 C-151.56268521 121.02048196 -151.57712588 119.24862818 -151.59870148 117.47687531 C-151.6277094 114.99629904 -151.63173844 112.51685121 -151.62988281 110.03613281 C-151.65145447 108.93561584 -151.65145447 108.93561584 -151.67346191 107.81286621 C-151.64545979 104.35691127 -151.4362153 102.57006847 -149.2723999 99.81341553 C-145.19158001 96.74760321 -141.56144501 97.06052206 -136.625 97.03515625 C-135.34856377 97.02660614 -135.34856377 97.02660614 -134.04634094 97.0178833 C-132.24322759 97.00842827 -130.44009692 97.00189733 -128.63696289 96.99804688 C-125.88461927 96.98835638 -123.13302717 96.9573445 -120.38085938 96.92578125 C-118.62891068 96.91924962 -116.87695665 96.91399978 -115.125 96.91015625 C-113.89350471 96.89163605 -113.89350471 96.89163605 -112.63713074 96.8727417 C-108.01834159 96.89065109 -104.8663516 97.14833912 -101.17578125 100.23828125 C-98.69220787 103.87416171 -98.90608098 107.61178194 -98.94873047 111.85253906 C-98.94843842 112.61390167 -98.94814636 113.37526428 -98.94784546 114.15969849 C-98.94923619 116.67038461 -98.96478521 119.18077211 -98.98046875 121.69140625 C-98.98419979 123.43446694 -98.98704634 125.17752973 -98.98904419 126.92059326 C-98.99667345 131.50404673 -99.01631588 136.08737306 -99.03845215 140.67077637 C-99.05892579 145.3495105 -99.06804916 150.02826521 -99.078125 154.70703125 C-99.09956245 163.88417937 -99.13473885 173.06119984 -99.17578125 182.23828125 C-93.23578125 182.23828125 -87.29578125 182.23828125 -81.17578125 182.23828125 C-81.1846637 180.61851379 -81.19354614 178.99874634 -81.20269775 177.32989502 C-81.28368951 162.08524377 -81.34394166 146.84065915 -81.38302994 131.59584427 C-81.40366082 123.75781874 -81.43179128 115.91995374 -81.47753906 108.08203125 C-81.51739096 101.25099289 -81.54321024 94.42007078 -81.55213523 87.5889194 C-81.55735285 83.97135704 -81.56962649 80.35412728 -81.59870148 76.73667145 C-81.63088612 72.69962266 -81.63174174 68.66315319 -81.62988281 64.62597656 C-81.64426392 63.42476166 -81.65864502 62.22354675 -81.67346191 60.9859314 C-81.66796326 59.88659271 -81.6624646 58.78725403 -81.65679932 57.65460205 C-81.66048649 56.69962452 -81.66417366 55.74464699 -81.66797256 54.76073074 C-81.03049057 51.49367565 -79.70951307 50.32335787 -77.17578125 48.23828125 C-74.10534699 46.70306412 -70.87149521 47.03367478 -67.5 47 C-66.73782669 46.99192825 -65.97565338 46.98385651 -65.19038391 46.97554016 C-63.57559482 46.9617015 -61.96077651 46.95097836 -60.34594727 46.94311523 C-57.88305792 46.92591933 -55.42151719 46.88203618 -52.95898438 46.83789062 C-51.38933278 46.8277619 -49.81966978 46.81924636 -48.25 46.8125 C-47.51649826 46.79499191 -46.78299652 46.77748383 -46.02726746 46.75944519 C-42.35642374 46.77492207 -40.3466873 47.12781845 -37.23364258 49.13989258 C-34.12599219 52.30874477 -34.05132422 54.04753945 -34.05552673 58.37612915 C-34.05346474 60.00839195 -34.05346474 60.00839195 -34.05136108 61.67362976 C-34.05495636 62.87268448 -34.05855164 64.0717392 -34.06225586 65.30712891 C-34.06210983 66.56563156 -34.06196381 67.82413422 -34.06181335 69.12077332 C-34.06152577 72.57717041 -34.06741617 76.03353299 -34.07438731 79.48992205 C-34.08062738 83.10008095 -34.08122517 86.71024059 -34.08241272 90.32040405 C-34.0855241 97.15916839 -34.09373491 103.99791679 -34.10376221 110.83667409 C-34.11492932 118.62133436 -34.12043531 126.40599539 -34.12545764 134.19066167 C-34.13591767 150.20654446 -34.1537142 166.2224102 -34.17578125 182.23828125 C-28.23578125 182.23828125 -22.29578125 182.23828125 -16.17578125 182.23828125 C-16.18688431 180.0444429 -16.19798737 177.85060455 -16.20942688 175.59028625 C-16.31152847 154.94514191 -16.38597668 134.30003079 -16.43484211 113.65469074 C-16.46063342 103.03995617 -16.49580174 92.42540675 -16.55297852 81.81079102 C-16.60278501 72.56003405 -16.63506552 63.30941116 -16.64622372 54.05852383 C-16.65274714 49.15931839 -16.6680983 44.26049656 -16.70443153 39.36141396 C-16.73834747 34.75095753 -16.74884313 30.14104304 -16.74131966 25.53047371 C-16.74269618 23.83774623 -16.75265509 22.1450008 -16.77180862 20.45238113 C-16.79667949 18.14131888 -16.79071034 15.83230384 -16.77705383 13.52119446 C-16.78396728 11.58128112 -16.78396728 11.58128112 -16.79102039 9.60217762 C-16.01335439 5.35019225 -14.51575871 3.89435884 -11.17578125 1.23828125 C-7.43027966 -0.01021928 -3.90452359 0.03721493 0 0 Z " fill="#000000" transform="translate(185.17578125,29.76171875)"/>
</svg>
