<?xml version="1.0" encoding="UTF-8"?>
<svg version="1.1" xmlns="http://www.w3.org/2000/svg" width="256" height="256">
<path d="M0 0 C1.56306321 -0.00407113 3.12612353 -0.00941604 4.68917847 -0.01593018 C8.91232813 -0.02954528 13.13525662 -0.02432927 17.35840988 -0.01479292 C21.79045939 -0.0071661 26.22249072 -0.0142503 30.65454102 -0.01895142 C38.09557473 -0.02440019 45.53651895 -0.01724044 52.97753906 -0.00292969 C61.56463958 0.01339514 70.15152637 0.00810601 78.73862171 -0.0084089 C86.1282855 -0.02204883 93.51788517 -0.0239312 100.90755749 -0.0160929 C105.31366158 -0.01143014 109.7196654 -0.01075291 114.12576294 -0.02070236 C118.26928779 -0.02940634 122.41253865 -0.0232879 126.55603409 -0.00601959 C128.07128572 -0.00207299 129.58656065 -0.00315728 131.10180283 -0.00980759 C142.16429651 -0.05386179 151.40159986 0.43462658 159.703125 8.38818359 C164.48671177 13.9168437 165.6370215 18.94499954 165.52734375 26.19287109 C165.51380859 27.35544434 165.50027344 28.51801758 165.48632812 29.71582031 C165.46022461 31.03864014 165.46022461 31.03864014 165.43359375 32.38818359 C163.91390991 32.4179126 163.91390991 32.4179126 162.36352539 32.44824219 C158.56690656 32.52491971 154.77064034 32.61353549 150.97436523 32.70556641 C149.33836889 32.74360159 147.70229614 32.77849648 146.06616211 32.81005859 C130.04033958 33.12304384 117.8624927 34.47288227 105.703125 45.90380859 C95.76114957 56.78693488 95.84158303 71.40662741 96.32861328 85.32177734 C96.91754362 96.91411777 100.60565688 106.62697125 109.1953125 114.63427734 C117.73499436 121.32593032 127.45308224 123.63758101 138.08984375 123.80224609 C138.87758179 123.82161224 139.66531982 123.84097839 140.47692871 123.8609314 C142.96237787 123.92011905 145.4478749 123.96686585 147.93359375 124.01318359 C149.63152923 124.05141955 151.32944648 124.09047443 153.02734375 124.13037109 C157.16261015 124.2257694 161.29796713 124.31002101 165.43359375 124.38818359 C165.47434167 126.45312219 165.50329983 128.51829546 165.52734375 130.58349609 C165.54474609 131.73350098 165.56214844 132.88350586 165.58007812 134.06835938 C165.27634194 140.9520338 162.63119208 145.58828754 157.68359375 150.26318359 C149.5280286 157.35646925 139.97904076 156.8254098 129.81298828 156.79223633 C128.23198974 156.79794533 126.65099531 156.80491164 125.07000732 156.81303406 C120.79302669 156.83092326 116.5162517 156.82980495 112.23924494 156.82409167 C108.66089852 156.82099329 105.08259124 156.82709957 101.50425041 156.83313042 C93.05797604 156.84716048 84.61180286 156.84562737 76.16552734 156.83422852 C67.46992903 156.82275205 58.77463931 156.83681844 50.07908165 156.86362499 C42.59685068 156.88582222 35.11471629 156.89241022 27.63245475 156.88654858 C23.17093188 156.88318701 18.70960672 156.88554047 14.24811172 156.90279961 C10.05036941 156.91833072 5.8530821 156.91424539 1.65535736 156.89549446 C0.12117216 156.89182539 -1.41304721 156.89486765 -2.94720078 156.90538025 C-12.65685518 156.96679757 -21.38919034 156.57563764 -29.22265625 150.23974609 C-29.83109375 149.50498047 -30.43953125 148.77021484 -31.06640625 148.01318359 C-31.69546875 147.28357422 -32.32453125 146.55396484 -32.97265625 145.80224609 C-37.09359695 139.56023297 -36.86830134 133.25371882 -36.87280273 126.03369141 C-36.88112625 124.89795685 -36.88944977 123.76222229 -36.89802551 122.59207153 C-36.92209766 118.84178221 -36.93089464 115.09166695 -36.9375 111.34130859 C-36.94646883 108.72825062 -36.95559073 106.11519316 -36.96485901 103.50213623 C-36.98220411 98.02469232 -36.98908107 92.54729257 -36.99194336 87.06982422 C-36.99557451 80.75879223 -37.02544626 74.44824776 -37.06734794 68.13736463 C-37.1063651 62.04513822 -37.1175387 55.95314708 -37.11866951 49.8608017 C-37.12286637 47.27891142 -37.13527898 44.69702052 -37.15618706 42.11521149 C-37.18315843 38.49646538 -37.17825713 34.8790505 -37.16577148 31.26025391 C-37.18060577 30.20224579 -37.19544006 29.14423767 -37.21072388 28.0541687 C-37.13324334 20.13485096 -35.19890894 13.67597356 -30.00917721 7.55003738 C-21.55127642 -0.44110614 -10.96213412 -0.04811212 0 0 Z " fill="#000000" transform="translate(51.56640625,72.61181640625)"/>
<path d="M0 0 C0.72245911 -0.00570007 1.44491821 -0.01140015 2.18927002 -0.01727295 C3.71210284 -0.02667493 5.23495557 -0.0332377 6.7578125 -0.03710938 C9.05766334 -0.04678888 11.35660924 -0.07784608 13.65625 -0.109375 C33.36679542 -0.25377705 33.36679542 -0.25377705 40.703125 6.265625 C47.10999177 12.67249177 48.82954062 20.26042013 48.875 29.125 C48.85953125 30.14078125 48.8440625 31.1565625 48.828125 32.203125 C48.85132813 33.72679687 48.85132813 33.72679687 48.875 35.28125 C48.8341964 43.23795224 47.39130441 50.16917352 42.50390625 56.60546875 C41.88902344 57.11207031 41.27414063 57.61867187 40.640625 58.140625 C40.03863281 58.66527344 39.43664062 59.18992188 38.81640625 59.73046875 C30.25941239 64.79481206 21.44230767 64.67050189 11.76269531 64.59423828 C9.33341309 64.57816 6.90579408 64.59414185 4.4765625 64.61328125 C-5.82368359 64.62682543 -15.48101026 64.30187444 -23.671875 57.203125 C-30.02710262 49.44223325 -30.54594874 42.34181576 -30.296875 32.578125 C-30.30332031 31.30710938 -30.30976563 30.03609375 -30.31640625 28.7265625 C-30.21984646 20.29952586 -29.34626693 14.32246283 -23.671875 7.9609375 C-23.011875 7.42210938 -22.351875 6.88328125 -21.671875 6.328125 C-21.011875 5.77382812 -20.351875 5.21953125 -19.671875 4.6484375 C-13.61279153 0.26980296 -7.30928944 0.04558988 0 0 Z M-4.109375 27.328125 C-5.93153461 30.11558248 -5.93153461 30.11558248 -5.609375 33.328125 C-4.46862687 36.92519385 -4.46862687 36.92519385 -1.671875 39.203125 C1.95844276 39.74381062 3.65026579 39.66692341 6.703125 37.578125 C8.81519006 34.49126068 8.94007645 32.8748337 8.328125 29.203125 C6.828125 26.703125 6.828125 26.703125 4.328125 25.203125 C0.3304507 24.45356107 -1.01864552 24.63364289 -4.109375 27.328125 Z " fill="#000000" transform="translate(191.671875,118.796875)"/>
<path d="M0 0 C1.859375 1.15234375 1.859375 1.15234375 3.625 2.5 C4.22828125 2.95503906 4.8315625 3.41007812 5.453125 3.87890625 C12.30728567 10.30095679 14.50756787 20.61877718 16.625 29.5 C16.625 30.16 16.625 30.82 16.625 31.5 C-17.035 31.5 -50.695 31.5 -85.375 31.5 C-85.375 30.84 -85.375 30.18 -85.375 29.5 C-84.68390137 29.17950684 -83.99280273 28.85901367 -83.28076172 28.52880859 C-80.56072387 27.26719301 -77.84083739 26.00525171 -75.12103271 24.74313354 C-73.87324471 24.16417701 -72.62540124 23.58534001 -71.37750244 23.00662231 C-63.97368782 19.57293297 -56.57504788 16.12871967 -49.1875 12.66015625 C-47.84653972 12.03136415 -46.50555688 11.40262016 -45.16455078 10.77392578 C-43.22738158 9.86572989 -41.29065195 8.95666368 -39.35540771 8.04437256 C-11.60357419 -5.0372105 -11.60357419 -5.0372105 0 0 Z " fill="#000000" transform="translate(163.375,27.5)"/>
</svg>
