<?xml version="1.0" encoding="UTF-8"?>
<svg version="1.1" xmlns="http://www.w3.org/2000/svg" width="256" height="256">
<path d="M0 0 C9.54473729 4.98637621 14.60005112 16.33819277 19.453125 25.3671875 C22.93656349 31.76636917 26.63776481 38.02702067 30.3671875 44.28515625 C31.07225177 45.47191676 31.77716502 46.658767 32.48193359 47.84570312 C35.71972282 53.2945707 38.9707407 58.73531615 42.2421875 64.1640625 C42.77376465 65.04650635 43.3053418 65.9289502 43.85302734 66.83813477 C44.81973008 68.44031752 45.78858854 70.04120289 46.76025391 71.64038086 C49.14266675 75.5838804 51.42058508 79.56266954 53.609375 83.6171875 C56.98613538 89.85796101 60.60396598 95.9441511 64.2421875 102.03515625 C65.66669293 104.42759645 67.08940518 106.82109996 68.51171875 109.21484375 C68.86816971 109.81450455 69.22462067 110.41416534 69.59187317 111.03199768 C73.64950938 117.86453871 77.64621744 124.73236612 81.64013672 131.60229492 C84.52763869 136.56480011 87.42998453 141.51752415 90.36328125 146.453125 C90.95149658 147.4433667 91.53971191 148.4336084 92.14575195 149.45385742 C93.25512555 151.31875676 94.36676961 153.18230826 95.48120117 155.04418945 C106.27272 173.1873329 106.27272 173.1873329 104.18359375 182.9609375 C101.75111447 190.08539904 97.35473193 195.04118132 90.60476971 198.41645908 C86.98919988 199.59260291 83.60279195 199.6341902 79.84321594 199.62181091 C79.05379032 199.62704759 78.26436469 199.63228427 77.45101708 199.63767964 C74.80884602 199.65266726 72.16686884 199.65338452 69.5246582 199.65405273 C67.62883681 199.66167517 65.73301851 199.67010281 63.83720398 199.67927551 C58.68822653 199.70122188 53.53930848 199.71001987 48.39028955 199.71510196 C45.17147827 199.71874603 41.95268253 199.72498643 38.73387718 199.73210335 C27.49876599 199.75660044 16.26370098 199.76964985 5.02856445 199.77319336 C-5.43414649 199.77682657 -15.89656371 199.80670598 -26.35918492 199.84859794 C-35.34876212 199.88332637 -44.33824212 199.89874226 -53.32788593 199.89943939 C-58.6938232 199.90023147 -64.05946141 199.90893833 -69.42532921 199.93743706 C-74.47582996 199.96366055 -79.52578465 199.96579887 -84.57632256 199.94978142 C-86.42496687 199.94797022 -88.27364289 199.95462784 -90.12221909 199.97060013 C-108.52620977 200.11985875 -108.52620977 200.11985875 -116.2578125 194.34765625 C-118.51171875 191.99609375 -118.51171875 191.99609375 -119.8203125 189.72265625 C-120.27535156 188.96726563 -120.73039062 188.211875 -121.19921875 187.43359375 C-123.75469476 182.39808014 -124.19694105 177.87194186 -123.2578125 172.34765625 C-119.50393122 162.92301815 -114.13088423 154.23588943 -108.84375 145.60546875 C-105.73770455 140.52307074 -102.75146354 135.37178642 -99.7578125 130.22265625 C-98.55095147 128.14964047 -97.34391488 126.0767269 -96.13671875 124.00390625 C-95.50910645 122.92625 -94.88149414 121.84859375 -94.23486328 120.73828125 C-90.73031683 114.72801438 -87.2137922 108.72477449 -83.6953125 102.72265625 C-83.33597626 102.10964661 -82.97664001 101.49663696 -82.60641479 100.86505127 C-76.31945548 90.14191276 -70.00067511 79.43774648 -63.671875 68.73925781 C-58.11187577 59.33564034 -52.58329232 49.91393111 -47.08203125 40.47583008 C-45.87112616 38.39936769 -44.65889767 36.32367646 -43.4453125 34.2487793 C-40.73201806 29.60775446 -38.030921 24.96203867 -35.38671875 20.28125 C-27.16293209 5.80671303 -18.83430436 -5.44174538 0 0 Z M-19.2578125 52.34765625 C-22.36634597 56.43334089 -22.67594567 59.90001009 -22.5390625 64.87109375 C-22.52830688 65.63932465 -22.51755127 66.40755554 -22.50646973 67.19906616 C-22.26566008 79.46742568 -21.46716877 91.7247554 -20.7578125 103.97265625 C-20.61282083 106.54033863 -20.46828629 109.10804686 -20.32421875 111.67578125 C-19.97401228 117.90004981 -19.61764618 124.12393714 -19.2578125 130.34765625 C-12.9878125 130.34765625 -6.7178125 130.34765625 -0.2578125 130.34765625 C1.78015728 108.36669652 3.66671606 86.24337991 4.1171875 64.16015625 C4.15972656 62.34451172 4.15972656 62.34451172 4.203125 60.4921875 C3.62766377 56.5663715 2.20290586 54.42467068 -0.2578125 51.34765625 C-7.09354041 46.79050431 -12.99014986 47.07712176 -19.2578125 52.34765625 Z M-22.1328125 153.53515625 C-23.7408066 157.55514151 -23.92161656 161.07818922 -23.2578125 165.34765625 C-21.17973222 169.75318643 -18.54600511 172.52074672 -14.25 174.71484375 C-10.44329003 175.92403398 -7.02832036 175.53365236 -3.2578125 174.34765625 C0.03513874 172.51901737 2.21629063 170.25602357 4.1171875 166.97265625 C5.28517678 162.06710125 5.40574579 158.10940374 3.0546875 153.59765625 C0.65348518 150.22299353 -0.40685922 148.77083463 -4.2578125 147.34765625 C-11.94744113 146.31722025 -16.9225596 147.45652786 -22.1328125 153.53515625 Z " fill="#000000" transform="translate(137.2578125,28.65234375)"/>
</svg>
