<?xml version="1.0" encoding="UTF-8"?>
<svg version="1.1" xmlns="http://www.w3.org/2000/svg" width="256" height="256">
<path d="M0 0 C6.71212145 4.37747051 10.05045731 11.40124209 13.8125 18.25 C14.96199979 20.31466128 16.11309424 22.37843538 17.265625 24.44140625 C17.85794922 25.50246582 18.45027344 26.56352539 19.06054688 27.65673828 C21.99963396 32.86974231 25.03128001 38.02770289 28.0625 43.1875 C32.23919069 50.30544935 36.33889452 57.45423016 40.3125 64.6875 C46.40112478 75.7061609 53.09941605 85.64252736 61.05859375 95.390625 C63.29720755 98.13649994 65.42635948 100.93895392 67.5 103.8125 C68.28375 104.823125 69.0675 105.83375 69.875 106.875 C70.535 106.875 71.195 106.875 71.875 106.875 C71.27398192 100.29333213 70.10668117 94.09644345 68.51953125 87.6875 C68.05709778 85.75280593 67.59553543 83.81790347 67.13476562 81.8828125 C66.41262089 78.87236087 65.68472051 75.86375829 64.94165039 72.85839844 C64.22064404 69.93040048 63.524584 66.99733948 62.83203125 64.0625 C62.60610794 63.17473877 62.38018463 62.28697754 62.14741516 61.37231445 C60.78797023 55.50241812 60.64296873 50.56487009 62.875 44.875 C65.75978057 41.39846956 68.72382304 38.16542577 73.36328125 37.5390625 C77.76621026 37.47816445 81.13664548 37.5741889 85.25 39.25 C91.99928566 45.99928566 94.5200704 56.10690028 97.3125 65 C97.70010498 66.22485107 98.08770996 67.44970215 98.48706055 68.71166992 C109.67527635 104.61096681 122.50902629 148.76000508 104.08227539 184.25878906 C93.56975566 203.5305344 77.76539816 216.96560682 56.859375 223.87109375 C34.26094238 230.32337847 12.35632155 226.85401091 -8.125 215.75 C-20.02587817 208.52889424 -28.46632075 198.504335 -36.80908203 187.58740234 C-38.62980842 185.21809345 -40.50795023 182.89537305 -42.375 180.5625 C-45.125 177.125 -45.125 177.125 -45.125 174.875 C-45.71039551 174.60421631 -46.29579102 174.33343262 -46.89892578 174.05444336 C-49.10936788 172.88328238 -50.83068891 171.61029141 -52.7421875 170.00390625 C-53.42442383 169.43518799 -54.10666016 168.86646973 -54.80957031 168.28051758 C-55.53241211 167.67232178 -56.25525391 167.06412598 -57 166.4375 C-62.39811135 161.93888155 -67.82334771 157.49536106 -73.375 153.1875 C-78.43429725 149.25336863 -83.35247914 145.18590836 -88.21386719 141.01025391 C-92.80326581 137.0895001 -97.5410025 133.37636151 -102.36914062 129.75390625 C-106.69388756 126.44046912 -110.65030535 122.82438931 -113.125 117.875 C-113.71606487 112.19168392 -113.39743416 107.72722997 -110.125 102.875 C-105.92143552 98.98670285 -102.29921632 97.32613296 -96.47729492 97.40356445 C-87.87263122 99.12806945 -79.60417543 107.40060536 -72.8125 112.6875 C-65.81874314 118.0759602 -58.77377242 123.33691018 -51.5546875 128.41796875 C-46.73583967 131.83452901 -42.04812365 135.43211807 -37.36401367 139.03027344 C-36.40458862 139.75972168 -36.40458862 139.75972168 -35.42578125 140.50390625 C-34.86028564 140.93775635 -34.29479004 141.37160645 -33.7121582 141.81860352 C-31.98770973 143.06653998 -31.98770973 143.06653998 -29.125 143.875 C-29.68324885 140.25817647 -30.87100727 138.89583171 -33.6875 136.625 C-38.82294228 132.33173363 -43.4416766 127.61073206 -48.125 122.8359375 C-51.35474198 119.56834698 -54.61011625 116.40347667 -58.09375 113.40625 C-63.26814977 108.94939395 -67.98750569 104.0605361 -72.76953125 99.19140625 C-76.82574026 95.090705 -80.96924229 91.18057288 -85.33935547 87.41601562 C-97.28391584 77.10783063 -97.28391584 77.10783063 -99.125 69.875 C-99.357598 64.2040393 -97.801794 60.26672616 -94.125 55.875 C-90.18261272 52.29101156 -86.02400124 52.48735422 -80.94140625 52.37890625 C-75.22165558 53.38640741 -71.18010441 57.57603477 -67.234375 61.60546875 C-65.92339844 62.93288086 -65.92339844 62.93288086 -64.5859375 64.28710938 C-63.69132812 65.20298828 -62.79671875 66.11886719 -61.875 67.0625 C-60.0803291 68.89148827 -58.28356174 70.71842256 -56.484375 72.54296875 C-55.69514648 73.35016357 -54.90591797 74.1573584 -54.09277344 74.98901367 C-52.2622582 76.9297157 -52.2622582 76.9297157 -50.125 77.875 C-50.125 78.535 -50.125 79.195 -50.125 79.875 C-49.56651367 80.10678955 -49.00802734 80.3385791 -48.43261719 80.57739258 C-45.52000672 82.21519671 -43.54309206 84.25038715 -41.203125 86.63671875 C-40.73944519 87.10560013 -40.27576538 87.57448151 -39.79803467 88.05757141 C-38.31882975 89.55451598 -36.84647299 91.05795749 -35.375 92.5625 C-33.44620692 94.52821238 -31.51413002 96.49060867 -29.578125 98.44921875 C-29.10827682 98.92470154 -28.63842865 99.40018433 -28.15434265 99.89007568 C-24.85523827 103.20366265 -21.43123041 106.3098485 -17.87646484 109.34399414 C-14.21418953 112.54529446 -10.92019618 116.12087588 -7.54296875 119.6171875 C-5.26285764 122.06034371 -5.26285764 122.06034371 -2.125 122.875 C-3.6644313 118.03678735 -6.43873121 114.71719229 -9.625 110.875 C-10.72103265 109.52944397 -11.81606998 108.18307663 -12.91015625 106.8359375 C-13.45559082 106.1665918 -14.00102539 105.49724609 -14.56298828 104.80761719 C-19.58886788 98.58928913 -24.37514764 92.17605241 -29.21484375 85.8125 C-34.99268193 78.22367174 -40.8296375 70.69585783 -46.80932617 63.26489258 C-50.85453843 58.23202857 -54.82507246 53.14907516 -58.7265625 48.00390625 C-60.36011909 45.87283324 -62.00676064 43.78639959 -63.7109375 41.71484375 C-71.39389575 32.12932328 -71.39389575 32.12932328 -71.4609375 25.97265625 C-70.59507401 20.5660435 -68.42237946 16.99939553 -64.3125 13.4375 C-59.29830247 10.97956003 -55.80981708 10.57118053 -50.3125 11.5625 C-43.98521491 14.28286826 -40.14358909 20.52548633 -36.125 25.875 C-35.42068848 26.80747559 -35.42068848 26.80747559 -34.70214844 27.75878906 C-32.70105293 30.41308498 -30.70678762 33.07220817 -28.7253418 35.74121094 C-25.30462233 40.34282179 -21.79014063 44.85217247 -18.1875 49.3125 C-13.91394294 54.60373718 -9.73931989 59.9590055 -5.625 65.375 C-0.96901149 71.50375156 3.77620022 77.54794288 8.61694336 83.53173828 C12.59174572 88.46344984 16.34803625 93.53007856 20.03515625 98.6796875 C21.76064533 101.12798017 21.76064533 101.12798017 24.875 101.875 C22.26104397 95.26047327 18.80934309 89.18349324 15.3125 83 C14.68335693 81.88230225 14.05421387 80.76460449 13.40600586 79.61303711 C9.59929694 72.86934956 5.74021842 66.16050032 1.78833008 59.50097656 C-2.19665583 52.78275628 -6.09974569 46.01762099 -10 39.25 C-10.96474243 37.57659546 -10.96474243 37.57659546 -11.94897461 35.86938477 C-13.15195899 33.78137359 -14.35354396 31.69255527 -15.5534668 29.6027832 C-16.50342384 27.95389862 -17.45898357 26.30820008 -18.42504883 24.66870117 C-21.12769704 20.06187305 -22.80027489 16.27085351 -21.71875 10.83203125 C-20.0582144 5.56378439 -17.64414933 2.98191516 -13.125 -0.125 C-8.46247142 -1.67917619 -4.63746673 -1.66948802 0 0 Z " fill="#000000" transform="translate(128.125,15.125)"/>
<path d="" fill="#000000" transform="translate(0,0)"/>
<path d="" fill="#000000" transform="translate(0,0)"/>
</svg>
